<?xml version="1.0" encoding="UTF-8"?>
<svg id="Layer_1" data-name="Layer 1" xmlns="http://www.w3.org/2000/svg" viewBox="0 0 1184 860">
  <defs>
    <style>
      .cls-1 {
        fill: none;
        stroke-width: 6.6px;
      }

      .cls-1, .cls-2 {
        stroke: #000;
        stroke-linecap: round;
        stroke-linejoin: round;
      }

      .cls-2 {
        stroke-width: 2.2px;
      }
    </style>
  </defs>
  <g>
    <path class="cls-1" d="m850.08,321.15c-.4-12.76-1.8-25.65-4.26-38.57-2.4-12.63-5.72-24.84-9.88-36.59-1.08-3.04-2.2-6.03-3.39-8.98"/>
    <path class="cls-1" d="m398.08,464.1c56.68,87.36,154,124.41,248.89,107.36.84-.13,1.67-.29,2.51-.44,91.61-17.4,161.68-83.36,188.65-166.17,3.87-11.84,6.84-24.05,8.87-36.48"/>
    <path class="cls-1" d="m765.96,143.01c-14.7-12.85-30.87-23.91-48.14-32.96-3.96-2.09-7.99-4.05-12.06-5.92-44.13-20.17-94.62-27.54-145.88-18.33-.84.13-1.67.29-2.51.44-.66.13-1.32.24-1.96.4-.46.09-.9.18-1.34.29-.33.07-.64.15-.97.22-54.6,11.37-101.33,40-135.5,79.18"/>
    <path class="cls-1" d="m361.03,339.45c26.97,18.35,53.53,34.78,87.74,43.82.64.18,1.28.33,1.94.48,49.9,12.85,109.93,13.95,166.96,3.1,57.77-10.98,105.51-37.49,147.4-68.33,28.51-20.94,52.51-45.56,70.88-72.53-1.08-3.04-2.2-6.03-3.39-8.98"/>
    <path class="cls-1" d="m398.08,464.1c26.17,18.35,51.94,34.78,85.14,43.82.62.18,1.24.33,1.88.48,48.42,12.85,106.69,13.95,162.02,3.1,56.06-10.98,102.39-37.49,143.04-68.33,27.67-20.94,40.88-32.24,56.82-74.8"/>
    <path class="cls-1" d="m765.96,143.01c-14.7-12.85-30.87-23.91-48.14-32.96-3.96-2.09-7.99-4.05-12.06-5.92-44.13-20.17-94.62-27.54-145.88-18.33-.84.13-1.67.29-2.51.44-.66.13-1.32.24-1.96.4-.46.09-.9.18-1.34.29-.33.07-.64.15-.97.22-54.6,11.37-101.33,40-135.5,79.18"/>
    <path class="cls-1" d="m705.77,104.14c-9.97,8.25-20.59,15.99-31.83,23.08-24.18,15.33-51.15,27.79-80.39,36.59-6.8,2.05-13.6,3.85-20.39,5.43-38.41,8.95-76.67,10.63-112.86,5.9-14.61-1.91-28.89-4.86-42.68-8.8,34.16-39.17,80.89-67.8,135.5-79.17,1.41-.33,2.83-.63,4.26-.91.84-.15,1.67-.31,2.51-.44,51.26-9.22,101.75-1.85,145.88,18.33Z"/>
    <line class="cls-1" x1="557.38" y1="86.25" x2="649.47" y2="571.02"/>
    <path class="cls-1" d="m750.93,471.21c-19.84,53.31-55.53,91.1-101.46,99.81-.84.15-1.67.31-2.51.44-45.63,7.57-92.18-15.03-129.69-57.46-30.21-34.12-54.56-81.07-67.89-135.48-1.63-6.49-3.06-13.09-4.33-19.8-13-68.49-6.2-133.85,15.25-183.59,20.5-47.5,54.36-80.76,97.09-88.88.84-.15,1.67-.31,2.51-.44,39.47-6.53,79.64,9.48,114.05,41.4,41.18,38.19,74.14,99.11,87.87,171.34,1.28,6.69,2.35,13.35,3.26,19.98,7.63,56.28,1.94,109.56-14.12,152.68Z"/>
    <path class="cls-1" d="m408.41,438.17c-13.31,26.4-33.79,73.71-36.11,84.06-2.32,10.35-4.22,11.4-9.72,1.9-5.49-9.5-39.92-75.82-44.35-102.01-4.44-26.19-9.08-70.96-8.66-83,.42-12.04,22.18-14.57,33.58-14.57s16.05,4.86,18.37,7.81c-3.8,26.82.84,66.11,4.65,82.58"/>
    <path class="cls-1" d="m415.95,170.76c-4.86-3.42-13.23-7.74-21.53-4.24-8.31,3.5-10.01,4-25.62,4h-26.72c-5.2,0-13.41,1.9-13.41,8.61s7.86,13.64,7.86,25.23v46.36"/>
    <path class="cls-1" d="m334.25,193.57c-9.18-.67-29.53.14-29.53,10.79s3.64,12.53,3.64,18.73v39.89"/>
    <path class="cls-1" d="m308.36,224.31c-6.71,0-21.19,2.99-21.19,12.48s5.74,14.97,5.74,21.71v17.22"/>
    <path class="cls-1" d="m289.99,248.54c-5.68,9.83-17.04,22.56-17.04,36.04s14.35,16.97,17.97,26.08c3.62,9.11,10.3,21.75,18.87,26.74"/>
    <path class="cls-1" d="m381.67,314.64c6.56,1.29,25.21,13.72,25.21,27.08"/>
    <path class="cls-1" d="m831.05,353.2c5.44,5.22,58.63,55.26,63.74,63.74,7.14,11.85,8.89,6.72,10.84,0,1.95-6.72,5.42-41.41,5.42-70.9s-15.39-100.16-29.92-122.5"/>
    <path class="cls-1" d="m872.46,158.51c-4.99-7.37-7.37-15.61-7.37-24.07s-2.03-20.24-10.77-20.24-10.6.29-14.89,2.72"/>
    <path class="cls-1" d="m851.6,151.01c-6.16-10.31-12.85-32.37-15.66-43.82-2.81-11.46-5.82-14.89-12.7-14.89s-13.75,3.15-19.05,6.02"/>
    <path class="cls-1" d="m823.1,152.59c-9.31-18.05-16.76-35.95-18.9-47.98s1.15-23.06-5.44-24.63-15.04-.57-21.48,3.15c-6.44,3.72-15.32,8.02-21.48,11.6-6.16,3.58-13.75,4.15-19.33,4.44s-13.61,3.15-18.62,10.88"/>
    <path class="cls-1" d="m832.55,237.02c-.57.86-1.06,1.72-1.5,2.57-7.81-1.89-17.05-5.3-25.83-10.1-9.39-5.13-18.26-11.88-24.24-20.13-11.55-15.93-15.66-52.6-15.03-66.35"/>
    <path class="cls-1" d="m865.09,134.43c14.63,4.8,30.56,21.25,30.56,29.72s-6.93,20.37-6.93,23.41-.44,10.19,0,19.07c.44,8.89-5.41,18.22-7.59,16.92-2.16-1.3-5.63-3.92-19.73-3.92-12.8,0-23.39,8.71-28.84,17.38"/>
    <path class="cls-1" d="m805.22,229.5c-10.15,7.59-11.83,11.94-11.83,33.12"/>
    <path class="cls-1" d="m446.35,518.9c25.3,21.62,75.95,83.66,86.08,99.81,10.13,16.14,38.93,72.8,43.68,84.52s8.55,25.64-9.18,18.99c-17.73-6.65-83.88-31.34-92.43-34.5-8.55-3.17-23.42-9.81-32.92,6.96-9.5,16.78-14.24,63.94-14.24,76.29s0,9.5,0,9.5h210.5s-18.36-40.83-18.36-67.11-9.5-134.53,10.13-134.53,24.69,34.19,24.69,74.7-14.31,115.19-21.91,127.22h208.72v-9.34s-3.8-64.68-14.27-78.31c-10.46-13.63-20.61-11.73-29.49-7.61-8.88,4.12-87.82,33.92-97.02,37.73s-15.54-1.59-13.95-13.32,22.51-80.21,32.97-99.55c10.46-19.34,41.93-88.08,68.52-117.83"/>
    <path class="cls-1" d="m417.61,166.33c-6.84,8.76-33.21,48.69-33.21,48.69-.75,3.93,6.4,12.03,8.78,21.02,2.37,9,5.7,30.1,3.01,49.89s-25.17,42.14-34.67,46.42"/>
  </g>
  <g>
    <polygon class="cls-2" points="477.37 229.1 533.89 216.29 522.91 203.89 475.54 221.17 477.37 229.1"/>
    <polygon class="cls-2" points="617.65 197.38 624.56 182.14 681.49 180.51 680.47 186.61 619.28 200.23 617.65 197.38"/>
    <polygon class="cls-2" points="543.12 237.72 476.7 367.41 493.81 376.19 560.68 247.85 543.12 237.72"/>
    <polygon class="cls-2" points="468.59 251.9 573.96 325.76 564.06 341.07 456.43 267.21 468.59 251.9"/>
    <polygon class="cls-2" points="610.59 229.1 730.86 320.35 744.22 306.95 623.96 209.36 610.59 229.1"/>
    <polygon class="cls-2" points="695.82 201.6 715.74 212.63 654.03 328.63 635.53 320.35 695.82 201.6"/>
    <circle class="cls-2" cx="575.15" cy="439.92" r="19.89"/>
  </g>
</svg>