<?xml version="1.0" encoding="UTF-8"?>
<svg id="Layer_1" data-name="Layer 1" xmlns="http://www.w3.org/2000/svg" viewBox="0 0 1184 860">
  <defs>
    <style>
      .cls-1 {
        fill: none;
        stroke: #000;
        stroke-linecap: round;
        stroke-linejoin: round;
        stroke-width: 6.6px;
      }
    </style>
  </defs>
  <g>
    <path d="m432.8,549.69c1.67-8.05,2.46-16.68,3.04-24.31-17.07-6.53-34.58-14.45-46.53-23.19-11.92-8.76-44.42-37.86-44.42-37.86,2.51,15.27,10.08,55.22,20.79,72.58,2.79,4.49,5.85,9.48,9.15,14.39,9.44,14.06,20.81,27.54,32.96,27.54,15.03,0,21.71-13.49,24.99-29.13"/>
    <path d="m739.74,527.2c1.47,8,12.9,30.69,43.1,30.69,34.02,0,56-55.51,61.06-66.93,1.43-3.88-2.78-4.73-7.84-2.29s-96.32,38.53-96.32,38.53Z"/>
    <ellipse cx="383.14" cy="363.12" rx="20.84" ry="59.33" transform="translate(-100.53 151.66) rotate(-19.85)"/>
    <path d="m655.57,353.58c0,31.18-7.78,56.45-17.38,56.45-9.6,0-17.38-25.27-17.38-56.45s7.78-56.45,17.38-56.45,17.38,25.27,17.38,56.45Z"/>
    <ellipse cx="743.39" cy="363.55" rx="56.45" ry="17.38" transform="translate(297.99 1060.98) rotate(-83.5)"/>
    <path d="m498.84,354.74c-.09.92-.18,1.87-.24,2.82-.07.66-.11,1.3-.15,1.94-.07.84-.13,1.67-.18,2.51-.04.59-.09,1.19-.11,1.76-.11,1.78-.18,3.59-.24,5.37-.02.77-.07,1.54-.07,2.29v.2c-.02.79-.04,1.56-.04,2.35-.02.2-.02.37-.02.57-.02,1.03-.02,2.09-.02,3.12v.07c0,1.36.02,2.71.05,4.05,0,.75.02,1.47.04,2.18.05,1.65.09,3.28.18,4.91.02.86.07,1.69.13,2.53v.13c-1.54,4.03-3.81,6.69-6.75,7.57-11.04,3.26-27.54-19.54-36.87-50.95-9.33-31.39-7.94-59.53,3.08-62.81,11.05-3.26,27.55,19.54,36.87,50.95,1.89,6.34,3.34,12.56,4.36,18.46Z"/>
    <path d="m262.71,155.4c4.16-23.04,18.71-55.91,21.38-61.77,2.67-5.86,6.09-10.54,10.28-10.54s7.24,14.53,7.91,19.72c.44,3.39,1.48,3.91-2.19,3.43-3.67-.48-6.76,3.67-14.92,14.94-8.15,11.27-14.19,24.17-19.59,34.97l-2.87-.75Z"/>
    <path d="m349.11,55.27c.16,4.07,2.33,14.9,2.33,14.9h1.86s-.47-2.33,1.05-2.33,40.27,19.09,46.21,21.88v-4.54c-7.33-8.15-34.68-34.68-38.64-38.76s-13.27-3.38-12.8,8.85Z"/>
    <path d="m687.16,95.89c15.29-13.57,43.88-27.86,49.03-30.36,5.15-2.5,10.28-3.74,13.58-1.27,3.41,2.56-1.88,14.38-4.06,18.38-1.43,2.62-.87,3.59-3.51,1.09-2.64-2.49-7.23-1.44-19.53,1.59-12.29,3.03-23.77,8.45-33.64,12.77l-1.86-2.21Z"/>
    <path d="m821.12,43.95c-.97,4.13-1.54,15.7-1.54,15.7l2.13.6s.12-2.49,1.86-2c1.73.49,40.73,32.14,46.74,36.85l1.28-4.55c-6.1-10.54-29.93-45.98-33.31-51.34-3.38-5.36-14.24-7.67-17.16,4.74Z"/>
  </g>
  <g>
    <path class="cls-1" d="m405.38,611.88c3.26,1.34,6.53,2.55,9.81,3.65-5.19-.53-10.34-1.23-15.42-2.09"/>
    <path class="cls-1" d="m351.42,544.2c.26.04.51.11.77.15.46.09.92.15,1.39.24.15.02.33.07.48.09,1.1.22,2.22.42,3.32.59.33.07.66.11.99.18,1.12.2,2.24.37,3.37.53.13.02.29.04.42.07.97.15,1.96.29,2.93.42.26.04.53.07.79.11.75.11,1.52.2,2.29.31.31.04.64.07.97.11.31.02.64.07.97.09.26.04.55.07.84.11.97.11,1.94.22,2.93.31.48.04.95.09,1.43.13"/>
    <path class="cls-1" d="m332.1,539.5c1.06-5.87.37-12.25-2.18-18.7-3.59-9.11-12.1-17.07-20.72-21.63v-.53c0-10.05-10.8-26.91-27.81-26.91-1.41,0-2.77.04-4.07.15.07.2.15.37.22.57-.09-.2-.15-.37-.24-.57-.24-.55-.46-1.1-.68-1.67-.73-1.72-1.43-3.45-2.11-5.21-.92-2.35-1.83-4.71-2.68-7.06-.46-1.25-.92-2.49-1.34-3.72-.46-1.28-.92-2.55-1.34-3.85-.35-.97-.66-1.91-.99-2.88-.75-2.22-1.47-4.44-2.16-6.69-.77-2.46-1.52-4.93-2.22-7.39-.13-.48-.29-.99-.42-1.47-.57-2.05-1.14-4.09-1.67-6.14-.15-.48-.26-.95-.4-1.43-.11-.46-.22-.95-.33-1.41-.37-1.39-.73-2.77-1.06-4.18,0-.02-.02-.07-.02-.09-.18-.68-.35-1.39-.51-2.07-.4.02-.77.04-1.17.07-1.08.07-2.16.13-3.21.18-.09,0-.18.02-.26.02-2.55.15-5.13.26-7.68.37-1.17.07-2.33.11-3.5.15-.59.02-1.17.04-1.76.07-.57.02-1.12.04-1.69.04-1.63.07-3.23.11-4.86.15-1.3.02-2.62.07-3.92.09-4.25.09-8.49.13-12.74.15h-2.16c-1.21,0-2.4,0-3.59-.02-1.19.02-2.38,0-3.56-.02h-.35c-1.43,0-2.77-.02-4.05-.04h-.04c-.68-.02-1.34-.02-1.98-.04-.53,0-1.08,0-1.58-.02-1.28-7.02-2.27-14.17-2.9-21.38v-.02c-.02-.18-.02-.35-.04-.53-.66-7.19-.99-14.45-.99-21.82,0-6.93.29-13.77.88-20.55.02-.11.02-.22.04-.33.18-2.31.4-4.6.66-6.89.22-1.96.46-3.92.75-5.85.4-.64.79-1.23,1.21-1.85l.02-.02c.64-.97,1.3-1.94,1.98-2.9.02-.02.02-.04.04-.07.02-.04.04-.07.07-.11.04-.09.11-.2.18-.29.04-.04.09-.11.13-.18s.09-.13.13-.18c.86-1.25,1.74-2.49,2.64-3.72,2.02-2.77,4.11-5.5,6.27-8.18.84-1.03,1.69-2.09,2.57-3.1.66-.81,1.34-1.61,2.05-2.42.73-.88,1.47-1.74,2.24-2.57l.4-.46c.09-.11.18-.2.26-.29,1.06-1.21,2.16-2.4,3.28-3.59.66-.73,1.34-1.43,2.02-2.16.81-.88,1.65-1.74,2.51-2.62,1.06-1.08,2.11-2.13,3.19-3.19,1.06-1.06,2.13-2.11,3.23-3.15.11-.09.2-.2.31-.29.79-.77,1.61-1.54,2.42-2.29.15-.13.29-.26.42-.4.02-.02.07-.04.09-.07.62-.57,1.25-1.17,1.91-1.74l.04-.04c2.07-1.89,4.16-3.74,6.27-5.52.09-.07.18-.15.26-.22.18-.15.33-.29.51-.42.66-.57,1.32-1.12,1.98-1.67.33-.26.64-.53.97-.79.35-.31.68-.57,1.03-.86.88-.75,1.78-1.47,2.68-2.18.18-.15.33-.29.51-.42.42-.33.81-.66,1.23-.97,1.39-1.1,2.77-2.18,4.18-3.26,3.7-2.82,7.48-5.57,11.31-8.21,1.21-.86,2.44-1.69,3.7-2.53.02-.02.07-.04.09-.07.15-.11.31-.22.46-.31.84-.57,1.67-1.14,2.53-1.69l.4-.26c1.52-.99,3.04-1.98,4.58-2.97l.53-.33c1.5-.95,3.01-1.89,4.53-2.82.4-.26.81-.53,1.23-.75v-.02"/>
    <path class="cls-1" d="m504.78,430.29c.09.42.18.81.29,1.23.13.51.24,1.01.37,1.52.07.24.13.51.2.75"/>
    <path class="cls-1" d="m510.04,449.01c.18.57.35,1.17.55,1.74.07.2.13.37.2.57"/>
    <path class="cls-1" d="m516.57,466.79c.11.24.2.46.29.68l1.32,3.1c.04.09.09.2.15.31"/>
    <path class="cls-1" d="m523.24,481.44c.04.11.11.24.15.35.09.18.18.37.29.55"/>
    <path class="cls-1" d="m526.47,487.75c.22.44.46.88.7,1.32.42.79.84,1.58,1.28,2.35.04.09.11.18.18.26"/>
    <path class="cls-1" d="m530.26,494.57c.09.15.18.33.26.48.81,1.45,1.67,2.9,2.53,4.31.46.75.92,1.5,1.39,2.24.33.53.66,1.06,1.01,1.58,0,.02,0,.04.04.09.09.13.15.29.24.42.11.18.22.33.33.51.04.07.07.11.11.15.09.15.18.31.26.44.2.31.37.59.57.88-.24.15-.46.33-.7.48l-.02.02c-.07.04-.11.09-.18.13-1.28.86-2.55,1.72-3.83,2.55v.02c-2.93,1.91-5.9,3.78-8.93,5.57-.84.51-1.67.99-2.53,1.47-.62.37-1.25.73-1.89,1.08-.11.07-.24.13-.35.2-.42.24-.81.46-1.21.68-.09.07-.18.11-.26.15-.18.11-.37.2-.57.31l-.4.2s-.11.07-.15.09l-.73.4c-1.03.57-2.09,1.12-3.15,1.67-.04.04-.11.07-.15.09-1.65.86-3.32,1.72-4.99,2.53-.07.04-.15.07-.24.11-1.65.81-3.34,1.63-5.04,2.4-.24.11-.51.24-.77.35-.75.35-1.5.68-2.27,1.03-.2.09-.42.18-.62.26-.4.15-.77.33-1.17.51-.18.07-.33.15-.51.22-.09.04-.18.07-.26.11l-.33.13c-1.65.7-3.3,1.41-4.95,2.07-.22.09-.46.18-.68.26-1.8.75-3.63,1.43-5.46,2.11-.75.29-1.5.55-2.24.81-.44.18-.86.33-1.3.48-.4.13-.79.29-1.19.42-.22.07-.42.15-.64.22-1.61.55-3.21,1.1-4.82,1.61-1.61.53-3.23,1.03-4.88,1.52-1.63.51-3.26.97-4.93,1.43-1.65.46-3.3.9-4.97,1.34-1.87.51-3.76.97-5.65,1.39-.51.13-.99.24-1.5.35-.97.22-1.96.44-2.93.64-.13.04-.24.07-.37.09-.26.07-.51.11-.77.15l-1.25.26c-.42.09-.84.15-1.28.24-.42.09-.86.18-1.28.24-.2.04-.42.09-.62.13-1.28.24-2.53.48-3.78.68-.09.02-.2.02-.29.04-.46.11-.95.18-1.43.24-.2.04-.4.07-.59.11-1.1.2-2.2.37-3.3.53-.29.04-.57.09-.88.13-.2.04-.37.07-.55.09"/>
    <path class="cls-1" d="m498.27,378.13c-.02-.13-.02-.29-.02-.42"/>
    <path class="cls-1" d="m437.7,203.45s.07-.02.09-.02c.02-.02.07-.02.09-.02.09-.02.18-.02.24-.04.18-.04.35-.07.53-.09,1.83-.33,3.67-.64,5.5-.92,2.29-.37,4.55-.73,6.84-1.06.73-.11,1.45-.22,2.16-.31.35-.04.68-.11,1.03-.15,1.14-.18,2.31-.33,3.45-.48.18-.02.37-.04.55-.07.81-.11,1.65-.22,2.46-.33,1.41-.18,2.84-.33,4.25-.51.7-.09,1.43-.15,2.13-.24,2.82-.31,5.63-.59,8.47-.86.13-.02.26-.02.4-.04.4-.04.81-.07,1.21-.11,1.06-.09,2.09-.18,3.15-.26.92-.07,1.85-.15,2.77-.22.13,0,.24-.02.37-.02.44-.04.9-.07,1.36-.11.26-.02.51-.04.75-.04h.09c1.01-.09,2.02-.15,3.01-.22.77.75,1.54,1.5,2.31,2.27.29.26.59.57.95.92,3.72,3.74,7.3,7.59,10.76,11.55.66.75,1.28,1.47,1.91,2.22l1.91,2.24c.55.66,1.08,1.32,1.65,2,.33.42.68.86,1.03,1.28.09.09.15.2.24.29.04.07.09.11.13.18l.26.33s.02.04.04.07c.13.15.24.31.37.46.15.22.31.44.48.64.75.95,1.47,1.89,2.2,2.86.84,1.08,1.65,2.16,2.44,3.26.4.55.79,1.08,1.19,1.63.42.55.81,1.1,1.19,1.65,1.56,2.2,3.1,4.44,4.6,6.69,1.45,2.18,2.86,4.38,4.25,6.62.07.07.11.13.13.2l.13.2c.07.09.13.2.2.31.07.15.15.31.26.46.04.07.09.15.13.24.64,1.06,1.28,2.11,1.94,3.17.09.18.2.35.31.53.46.79.92,1.61,1.41,2.4v.04s.02.02.02.04c0,0-.02.02-.02.04v.02c-1.12,1.89-2.2,3.81-3.23,5.74-.09.11-.15.24-.2.35-.75,1.34-1.47,2.71-2.18,4.07-.35.66-.7,1.34-1.03,2.02-.24.44-.46.88-.68,1.34-.18.33-.33.64-.48.97-1.67,3.37-3.26,6.78-4.77,10.23-.11.26-.24.53-.35.79,0,.02-.02.07-.02.11-.13.26-.24.53-.35.79-.26.62-.53,1.25-.79,1.89-.26.59-.51,1.19-.75,1.8-.88,2.11-1.72,4.27-2.51,6.42-.26.62-.48,1.23-.7,1.87-.02.04-.04.09-.04.13-.22.51-.4,1.03-.57,1.56-.09.22-.15.44-.22.66-.44,1.17-.86,2.35-1.25,3.56-.13.35-.26.73-.37,1.08-.09.26-.18.51-.24.77-.33.99-.64,1.98-.95,2.97-.37,1.14-.75,2.31-1.08,3.45-.24.81-.46,1.61-.68,2.44-.2.68-.4,1.36-.57,2.05-.22.79-.44,1.56-.64,2.35-.13.35-.22.73-.31,1.08-.11.4-.22.79-.29,1.19-.09.29-.15.59-.22.88,0,.02-.02.02,0,.04-.02.02-.02.07-.02.09v.02"/>
    <path class="cls-1" d="m503.24,324.69c.18-.9.37-1.8.57-2.73s.4-1.85.64-2.75"/>
    <path class="cls-1" d="m393,213.59c-.97.24-1.91.53-2.86.81-.15.04-.29.09-.44.11-.66.18-1.34.37-2,.59-1.94.55-3.85,1.12-5.76,1.69-.15.07-.33.11-.48.15-.51.15-1.03.33-1.54.48-.68.22-1.36.42-2.05.66-1.58.48-3.17.99-4.75,1.52-.15.04-.33.11-.48.15-2.29.75-4.55,1.52-6.8,2.31-.31.11-.59.2-.9.31-2.75.97-5.46,1.94-8.14,2.95-.7.26-1.43.53-2.13.81-3.59,1.34-7.13,2.73-10.63,4.18-.9.35-1.8.73-2.71,1.1-1.87.79-3.74,1.58-5.59,2.4"/>
    <path class="cls-1" d="m535.73,503.7c-.11-.15-.2-.31-.31-.48-.33-.53-.68-1.06-.99-1.61.33.53.66,1.06,1.01,1.58.09.18.2.33.29.51Z"/>
    <path class="cls-1" d="m356.52,582.29c1.58,1.3,3.19,2.57,4.8,3.81.86.68,1.72,1.32,2.57,1.96,3.41,2.6,6.89,5.04,10.38,7.33,1.01.66,2.02,1.32,3.04,1.96,1.06.68,2.11,1.34,3.19,1.98,2.33,1.41,4.66,2.75,7,4.03.7.4,1.43.77,2.13,1.14,1.03.55,2.07,1.1,3.12,1.63,1.1.57,2.2,1.1,3.32,1.65.99.46,1.98.92,2.97,1.36,1.06.48,2.09.95,3.17,1.41,1.06.46,2.11.9,3.17,1.34"/>
    <path class="cls-1" d="m277.3,471.89c-.24-.55-.46-1.1-.68-1.67-.73-1.72-1.43-3.45-2.11-5.21-.92-2.35-1.83-4.71-2.68-7.06-.46-1.23-.92-2.46-1.34-3.72-.46-1.28-.92-2.55-1.34-3.85-.35-.97-.66-1.91-.99-2.88-.75-2.22-1.47-4.44-2.16-6.69-.77-2.46-1.52-4.93-2.22-7.39-.13-.48-.29-.99-.42-1.47-.57-2.05-1.14-4.09-1.67-6.14-.15-.48-.26-.95-.4-1.43-.11-.46-.22-.95-.33-1.41-.37-1.39-.73-2.77-1.06-4.18,0-.02-.02-.07-.02-.09-.18-.68-.35-1.39-.51-2.07-.4.02-.77.04-1.17.07-1.08.07-2.16.13-3.21.18-.09,0-.18.02-.26.02-2.55.15-5.13.26-7.68.37-1.19.07-2.35.11-3.5.15-1.17.04-2.31.09-3.45.11-1.63.07-3.23.11-4.86.15-1.32.02-2.62.07-3.92.09-4.25.09-8.49.13-12.74.15h-2.16c-2.53,0-4.93,0-7.15-.04h-.35c-1.43,0-2.77-.02-4.05-.04h-.04c-.68-.02-1.34-.02-1.98-.04-.53,0-1.08,0-1.58-.02,2.29,12.63,5.57,24.93,9.75,36.78,1.1,3.12,2.24,6.2,3.48,9.26"/>
    <path class="cls-1" d="m340.2,595.33c18.72,8.47,38.68,14.63,59.58,18.11"/>
    <path class="cls-1" d="m277.3,471.89c-.24-.55-.46-1.1-.68-1.67-.73-1.72-1.43-3.45-2.11-5.21-.92-2.35-1.83-4.71-2.68-7.06-.46-1.25-.92-2.49-1.34-3.72-.46-1.28-.92-2.55-1.34-3.85-.35-.97-.66-1.91-.99-2.88-.75-2.22-1.47-4.44-2.16-6.69-.77-2.46-1.52-4.93-2.22-7.39-.13-.48-.29-.99-.42-1.47-.57-2.05-1.14-4.09-1.67-6.14-.15-.48-.26-.95-.4-1.43-.11-.46-.22-.95-.33-1.41-.37-1.39-.73-2.77-1.06-4.18,0-.02-.02-.07-.02-.09-.18-.68-.35-1.39-.51-2.07-.4.02-.77.04-1.17.07-1.08.07-2.16.13-3.21.18-.09,0-.18.02-.26.02-2.55.15-5.13.26-7.68.37-1.17.07-2.33.11-3.5.15-.59.02-1.17.04-1.76.07-.57.02-1.12.04-1.69.04-1.63.07-3.23.11-4.86.15-1.3.02-2.62.07-3.92.09-4.25.09-8.49.13-12.74.15h-2.16c-1.21,0-2.4,0-3.59-.02-1.19.02-2.38,0-3.56-.02h-.35c-1.43,0-2.77-.02-4.05-.04h-.04c-.68-.02-1.34-.02-1.98-.04-.53,0-1.08,0-1.58-.02-1.28-7.02-2.27-14.17-2.9-21.38v-.02c-.15-1.06-.29-2.13-.4-3.19-.22-1.78-.4-3.54-.55-5.32-.13-1.67-.26-3.34-.35-5.02-.02-.33-.02-.66-.04-.99-.04-.68-.07-1.34-.09-2.02-.09-2.64-.11-5.3-.07-7.94v-.57c0-1.3.04-2.62.13-3.92.04-1.25.11-2.49.2-3.74,0-.09.02-.2.02-.29.22-3.32.55-6.62.99-9.9.02-.11.02-.22.04-.33.18-2.31.4-4.6.66-6.89.22-1.96.46-3.92.75-5.85.4-.64.79-1.23,1.21-1.85l.02-.02c.64-.97,1.3-1.94,1.98-2.9.02-.02.02-.04.04-.07.02-.04.04-.07.07-.11.04-.09.11-.2.18-.29.04-.04.09-.11.13-.18s.09-.13.13-.18c.86-1.25,1.74-2.49,2.64-3.72,2.02-2.77,4.11-5.5,6.27-8.18.84-1.03,1.69-2.09,2.57-3.1.66-.81,1.34-1.61,2.05-2.42.73-.88,1.47-1.74,2.24-2.57l.4-.46c.09-.11.18-.2.26-.29,1.06-1.21,2.16-2.4,3.28-3.59.66-.73,1.34-1.43,2.02-2.16.81-.88,1.65-1.74,2.51-2.62,1.06-1.08,2.11-2.13,3.19-3.19,1.06-1.06,2.16-2.11,3.23-3.15.11-.09.2-.2.31-.29.79-.77,1.61-1.52,2.42-2.27.04-.04.09-.09.13-.11.09-.11.18-.2.29-.31.02-.02.07-.04.09-.07.62-.57,1.25-1.17,1.91-1.74l.04-.04c2.07-1.89,4.16-3.74,6.27-5.52.09-.07.18-.15.26-.22.18-.15.33-.29.51-.42.66-.57,1.32-1.14,1.98-1.67.33-.26.64-.53.97-.79.35-.31.68-.57,1.03-.86.88-.75,1.78-1.47,2.68-2.18.18-.15.33-.29.51-.42.42-.33.81-.66,1.23-.97,1.39-1.1,2.77-2.18,4.18-3.26,3.7-2.82,7.48-5.57,11.31-8.21,1.21-.86,2.44-1.69,3.7-2.53.02-.02.07-.04.09-.07.15-.11.31-.22.46-.31.84-.57,1.67-1.14,2.53-1.69l.4-.26c1.5-1.01,3.04-2,4.58-2.97l.53-.33c1.5-.95,3.01-1.89,4.53-2.82.4-.26.81-.53,1.23-.75v-.02"/>
    <path class="cls-1" d="m504.78,430.29c.09.42.18.81.29,1.23.13.51.24,1.01.37,1.52.07.24.13.51.2.75"/>
    <path class="cls-1" d="m516.57,466.79c.11.24.2.46.29.68l1.32,3.1c.04.09.09.2.15.31"/>
    <path class="cls-1" d="m523.24,481.44c.04.11.11.24.15.35.09.18.18.37.29.55"/>
    <path class="cls-1" d="m526.47,487.75c.22.44.46.88.7,1.32.42.79.84,1.58,1.28,2.35.04.09.11.18.18.26"/>
    <path class="cls-1" d="m530.26,494.57c.09.15.18.33.26.48.81,1.45,1.67,2.9,2.53,4.31.46.75.92,1.5,1.39,2.24.33.53.66,1.06,1.01,1.58l-.02.02"/>
    <path class="cls-1" d="m498.27,378.13c-.02-.13-.02-.29-.02-.42"/>
    <path class="cls-1" d="m437.7,203.45s.07-.02.09-.02c.02-.02.07-.02.09-.02.09-.02.18-.02.24-.04.18-.04.35-.07.53-.09,1.83-.33,3.67-.64,5.5-.92,2.29-.37,4.55-.73,6.84-1.06.73-.11,1.45-.22,2.16-.31.35-.04.68-.11,1.03-.15,1.14-.18,2.31-.33,3.45-.48.18-.02.37-.04.55-.07.81-.11,1.65-.22,2.46-.33,1.41-.18,2.84-.33,4.25-.51.7-.09,1.43-.15,2.13-.24,1.85-.2,3.7-.4,5.52-.57.99-.11,1.98-.2,2.95-.29.13-.02.26-.02.4-.04.4-.04.81-.07,1.21-.11,1.06-.09,2.09-.18,3.15-.26.92-.07,1.85-.15,2.77-.22.13,0,.24-.02.37-.02.44-.04.9-.07,1.36-.11.26-.02.51-.04.75-.04h.09c1.01-.09,2.02-.15,3.01-.22.77.75,1.54,1.5,2.31,2.27.29.26.59.57.95.92,3.72,3.74,7.3,7.59,10.76,11.55.66.75,1.28,1.47,1.91,2.22l1.91,2.24c.55.66,1.08,1.32,1.65,2,.33.42.68.86,1.03,1.28.09.09.15.2.24.29.04.07.09.11.13.18l.26.33s.02.04.04.07c.13.15.24.31.37.46.15.22.31.44.48.64.75.95,1.47,1.89,2.2,2.86.84,1.08,1.65,2.16,2.44,3.26.4.55.79,1.08,1.19,1.63.42.55.81,1.1,1.19,1.65,1.56,2.2,3.1,4.44,4.6,6.69,1.45,2.18,2.86,4.38,4.25,6.62.07.07.11.13.13.2l.13.2c.07.09.13.2.2.31.07.15.15.31.26.46.04.07.09.15.13.24.64,1.06,1.28,2.11,1.94,3.17.09.18.2.35.31.53.46.79.92,1.61,1.41,2.4v.04s.02.02.02.04c0,0-.02.02-.02.04v.02c-1.12,1.89-2.2,3.81-3.23,5.74-.09.11-.15.24-.2.35-.75,1.34-1.47,2.71-2.18,4.07-.35.66-.7,1.34-1.03,2.02-.24.44-.46.88-.68,1.34-.18.33-.33.64-.48.97-1.67,3.37-3.26,6.78-4.77,10.23-.13.31-.26.59-.37.9-.13.26-.24.53-.35.79-.26.62-.53,1.25-.79,1.89-.26.59-.51,1.19-.75,1.8-.88,2.11-1.72,4.27-2.51,6.42-.26.62-.48,1.23-.7,1.87-.02.04-.04.09-.04.13-.22.51-.4,1.03-.57,1.56-.09.22-.15.44-.22.66-.44,1.17-.86,2.35-1.25,3.56-.13.35-.26.73-.37,1.08-.09.26-.18.51-.24.77-.33.99-.64,1.98-.95,2.97-.37,1.14-.75,2.31-1.08,3.45-.24.81-.46,1.61-.68,2.44-.04.13-.09.29-.13.42-.09.29-.18.57-.24.86-.09.26-.15.51-.2.77-.22.79-.44,1.56-.64,2.35-.11.35-.22.73-.31,1.08-.11.4-.22.79-.29,1.19-.09.29-.15.59-.22.88,0,.02-.02.02,0,.04-.02.02-.02.07-.02.09v.02"/>
    <path class="cls-1" d="m503.24,324.69c.18-.9.37-1.8.57-2.73s.4-1.85.64-2.75"/>
    <path class="cls-1" d="m393,213.59c-.97.24-1.91.53-2.86.81-.15.04-.29.09-.44.11-.66.18-1.34.37-2,.59-1.94.55-3.85,1.12-5.76,1.69-.15.07-.33.11-.48.15-.51.15-1.03.33-1.54.48-.68.22-1.36.42-2.05.66-1.58.48-3.17.99-4.75,1.52-.15.04-.33.11-.48.15-2.29.75-4.55,1.52-6.8,2.31-.31.11-.59.2-.9.31-2.75.97-5.46,1.94-8.14,2.95-.7.26-1.43.53-2.13.81-3.59,1.34-7.13,2.73-10.63,4.18-.9.35-1.8.73-2.71,1.1-1.87.79-3.74,1.58-5.59,2.4"/>
    <path class="cls-1" d="m351.42,544.2c.26.04.51.11.77.15.46.09.92.15,1.39.24.15.02.33.07.48.09,1.1.22,2.22.42,3.32.59.33.07.66.11.99.18,1.12.2,2.24.37,3.37.53.13.02.29.04.42.07.97.15,1.96.29,2.93.42.26.04.53.07.79.11.75.11,1.52.2,2.29.31.31.04.64.07.97.11.31.02.64.07.97.09.26.04.55.07.84.11.97.11,1.94.22,2.93.31.48.04.95.09,1.43.13"/>
    <path class="cls-1" d="m433.24,546.05c.18-.02.35-.04.55-.09.31-.04.59-.09.88-.13,1.1-.15,2.2-.33,3.3-.53.2-.04.4-.07.59-.11.48-.07.97-.13,1.43-.24.09-.02.2-.02.29-.04,1.25-.2,2.53-.42,3.78-.68.2-.04.42-.09.62-.13.42-.07.86-.15,1.28-.24.44-.09.86-.15,1.28-.24l1.25-.26c.26-.04.51-.09.77-.15.13-.02.24-.04.37-.09.97-.2,1.96-.42,2.93-.64.51-.11.99-.22,1.5-.35,1.89-.42,3.78-.88,5.65-1.39,1.67-.44,3.32-.88,4.97-1.34,1.67-.46,3.3-.92,4.93-1.43,1.65-.48,3.28-.99,4.88-1.52,1.61-.51,3.23-1.03,4.82-1.61.22-.07.42-.15.64-.22.4-.13.79-.29,1.19-.42.44-.15.86-.31,1.3-.48.75-.26,1.5-.53,2.24-.81,1.83-.68,3.65-1.36,5.46-2.11.22-.09.46-.18.68-.26,1.65-.66,3.3-1.36,4.95-2.07l.33-.13c.09-.04.18-.07.26-.11.18-.07.33-.15.51-.22.4-.18.77-.35,1.17-.51.2-.09.42-.18.62-.26.77-.35,1.52-.68,2.27-1.03.26-.11.53-.24.77-.35,1.69-.77,3.39-1.58,5.04-2.4.09-.04.18-.07.24-.11,1.67-.81,3.34-1.67,4.99-2.53.04-.02.11-.04.15-.09,1.06-.55,2.11-1.1,3.15-1.67l.73-.4s.11-.04.15-.09l.4-.2c.2-.11.4-.2.57-.31.09-.04.18-.09.26-.15.4-.22.79-.44,1.21-.68.11-.07.24-.13.35-.2.64-.35,1.28-.7,1.89-1.08.86-.48,1.69-.97,2.53-1.47,3.04-1.78,6.01-3.65,8.93-5.57v-.02"/>
    <path class="cls-1" d="m590.54,183.51c-.07.02-.13.07-.18.13-.88.68-1.76,1.39-2.62,2.11-.15.11-.31.22-.46.37-.66.51-1.32,1.06-1.96,1.63-.86.68-1.72,1.41-2.55,2.16-.86.7-1.69,1.45-2.53,2.22-1.69,1.45-3.34,2.97-4.97,4.51-1.21,1.1-2.42,2.24-3.59,3.43h-.02c-3.89-.53-7.83-1.01-11.81-1.43-15.64-1.67-31.86-2.44-48.49-2.24h-.02c-7.48.11-15.07.4-22.73.9-4.55-4.42-9.26-8.62-14.12-12.58-27.87-22.9-60.57-38.83-95.66-45.67,19.56-5.08,40.08-7.79,61.25-7.79,19.71,0,38.87,2.35,57.22,6.8,34.56,8.34,66.22,24.07,93.24,45.45Z"/>
    <path class="cls-1" d="m351.42,544.2c.26.04.51.11.77.15.46.09.92.15,1.39.24.15.02.33.07.48.09,1.1.22,2.22.42,3.32.59.33.07.66.11.99.18,1.12.2,2.24.37,3.37.53.13.02.29.04.42.07.97.15,1.96.29,2.93.42.26.04.53.07.79.11.75.11,1.52.2,2.29.31.31.04.64.07.97.11.31.02.64.07.97.09.26.04.55.07.84.11.97.11,1.94.22,2.93.31.48.04.95.09,1.43.13"/>
    <path class="cls-1" d="m332.1,539.5c1.06-5.87.37-12.25-2.18-18.7-3.59-9.11-12.1-17.07-20.72-21.63v-.53c0-10.05-10.8-26.91-27.81-26.91-1.41,0-2.77.04-4.07.15.07.2.15.37.22.57-.09-.2-.15-.37-.24-.57-.24-.55-.46-1.1-.68-1.67-.73-1.72-1.43-3.45-2.11-5.21-.92-2.35-1.83-4.71-2.68-7.06-.46-1.25-.92-2.49-1.34-3.72-.46-1.28-.92-2.55-1.34-3.85-.35-.97-.66-1.91-.99-2.88-.75-2.22-1.47-4.44-2.16-6.69-.77-2.46-1.52-4.93-2.22-7.39-.13-.48-.29-.99-.42-1.47-.57-2.05-1.14-4.09-1.67-6.14-.15-.48-.26-.95-.4-1.43-.11-.46-.22-.95-.33-1.41-.37-1.39-.73-2.77-1.06-4.18,0-.02-.02-.07-.02-.09-.18-.68-.35-1.39-.51-2.07-1.12-4.71-2.16-9.46-3.1-14.26-8.18-41.8-8.71-82.63-2.77-119.88v-.02c.42-.33.81-.66,1.23-.97,1.39-1.1,2.77-2.18,4.18-3.26,3.7-2.82,7.48-5.57,11.31-8.21,1.21-.86,2.44-1.69,3.7-2.53.02-.02.07-.04.09-.07.15-.11.31-.22.46-.31.84-.57,1.67-1.14,2.53-1.69l.4-.26c1.52-.99,3.04-1.98,4.58-2.97l.53-.33c1.5-.95,3.01-1.89,4.53-2.82.4-.26.81-.53,1.23-.75v-.02"/>
    <path class="cls-1" d="m504.78,430.29c.09.42.18.81.29,1.23.13.51.24,1.01.37,1.52.07.24.13.51.2.75"/>
    <path class="cls-1" d="m516.57,466.79c.11.24.2.46.29.68l1.32,3.1c.04.09.09.2.15.31"/>
    <path class="cls-1" d="m523.24,481.44c.04.11.11.24.15.35.09.18.18.37.29.55"/>
    <path class="cls-1" d="m526.47,487.75c.22.44.46.88.7,1.32.42.79.84,1.58,1.28,2.35.04.09.11.18.18.26"/>
    <path class="cls-1" d="m530.26,494.57c.09.15.18.33.26.48.81,1.45,1.67,2.9,2.53,4.31.46.75.92,1.5,1.39,2.24.33.53.66,1.06,1.01,1.58,0,.02,0,.04.04.09.09.13.15.29.24.42.11.18.22.33.33.51.04.07.07.11.11.15.09.15.18.31.26.44.2.31.37.59.57.88-.24.15-.46.33-.7.48l-.02.02c-.07.04-.11.09-.18.13-1.28.86-2.55,1.72-3.83,2.55v.02c-2.93,1.91-5.9,3.78-8.93,5.57-.84.51-1.67.99-2.53,1.47-.62.37-1.25.73-1.89,1.08-.11.07-.24.13-.35.2-.42.24-.81.46-1.21.68-.09.07-.18.11-.26.15-.18.11-.37.2-.57.31l-.4.2s-.11.07-.15.09l-.73.4c-1.03.57-2.09,1.12-3.15,1.67-.04.04-.11.07-.15.09-1.65.86-3.32,1.72-4.99,2.53-.07.04-.15.07-.24.11-1.65.81-3.34,1.63-5.04,2.4-.24.11-.51.24-.77.35-.75.35-1.5.68-2.27,1.03-.2.09-.42.18-.62.26-.4.15-.77.33-1.17.51-.18.07-.33.15-.51.22-.09.04-.18.07-.26.11l-.33.13c-1.65.7-3.3,1.41-4.95,2.07-.22.09-.46.18-.68.26-1.8.75-3.63,1.43-5.46,2.11-.75.29-1.5.55-2.24.81-.44.18-.86.33-1.3.48-.4.13-.79.29-1.19.42-.22.07-.42.15-.64.22-1.61.55-3.21,1.1-4.82,1.61-1.61.53-3.23,1.03-4.88,1.52-1.63.51-3.26.97-4.93,1.43-1.65.46-3.3.9-4.97,1.34-1.87.51-3.76.97-5.65,1.39-.51.13-.99.24-1.5.35-.97.22-1.96.44-2.93.64-.13.04-.24.07-.37.09-.26.07-.51.11-.77.15l-1.25.26c-.42.09-.84.15-1.28.24-.42.09-.86.18-1.28.24-.2.04-.42.09-.62.13-1.28.24-2.53.48-3.78.68-.09.02-.2.02-.29.04-.46.11-.95.18-1.43.24-.2.04-.4.07-.59.11-1.1.2-2.2.37-3.3.53-.29.04-.57.09-.88.13-.2.04-.37.07-.55.09"/>
    <path class="cls-1" d="m498.27,378.13c-.02-.13-.02-.29-.02-.42"/>
    <path class="cls-1" d="m437.7,203.45s.07-.02.09-.02c.02-.02.07-.02.09-.02.09-.02.18-.02.24-.04.18-.04.35-.07.53-.09,1.83-.33,3.67-.64,5.5-.92,2.29-.37,4.55-.73,6.84-1.06.73-.11,1.45-.22,2.16-.31.35-.04.68-.11,1.03-.15,1.14-.18,2.31-.33,3.45-.48.18-.02.37-.04.55-.07.81-.11,1.65-.22,2.46-.33,1.41-.18,2.84-.33,4.25-.51.7-.09,1.43-.15,2.13-.24,2.82-.31,5.63-.59,8.47-.86.13-.02.26-.02.4-.04.4-.04.81-.07,1.21-.11,1.06-.09,2.09-.18,3.15-.26.92-.07,1.85-.15,2.77-.22.13,0,.24-.02.37-.02.44-.04.9-.07,1.36-.11.26-.02.51-.04.75-.04h.09c1.01-.09,2.02-.15,3.01-.22.77.75,1.54,1.5,2.31,2.27.29.26.59.57.95.92,3.72,3.74,7.3,7.59,10.76,11.55.66.75,1.28,1.47,1.91,2.22l1.91,2.24c.55.66,1.08,1.32,1.65,2,.33.42.68.86,1.03,1.28.09.09.15.2.24.29.04.07.09.11.13.18l.26.33s.02.04.04.07c.13.15.24.31.37.46.15.22.31.44.48.64.75.95,1.47,1.89,2.2,2.86.84,1.08,1.65,2.16,2.44,3.26.4.55.79,1.08,1.19,1.63.42.55.81,1.1,1.19,1.65,1.56,2.2,3.1,4.44,4.6,6.69,1.45,2.18,2.86,4.38,4.25,6.62.07.07.11.13.13.2l.13.2c.07.09.13.2.2.31.07.15.15.31.26.46.04.07.09.15.13.24.64,1.06,1.28,2.11,1.94,3.17.09.18.2.35.31.53.46.79.92,1.61,1.41,2.4v.04s.02.02.02.04c0,0-.02.02-.02.04v.02c-1.12,1.89-2.2,3.81-3.23,5.74-.09.11-.15.24-.2.35-.75,1.34-1.47,2.71-2.18,4.07-.35.66-.7,1.34-1.03,2.02-.24.44-.46.88-.68,1.34-.18.33-.33.64-.48.97-1.67,3.37-3.26,6.78-4.77,10.23-.13.31-.26.59-.37.9-.13.26-.24.53-.35.79-.26.62-.53,1.25-.79,1.89-.26.59-.51,1.19-.75,1.8-.88,2.11-1.72,4.27-2.51,6.42-.26.62-.48,1.23-.7,1.87-.02.04-.04.09-.04.13-.22.51-.4,1.03-.57,1.56-.09.22-.15.44-.22.66-.44,1.17-.86,2.35-1.25,3.56-.13.35-.26.73-.37,1.08-.09.26-.18.51-.24.77-.33.99-.64,1.98-.95,2.97-.37,1.14-.75,2.31-1.08,3.45-.24.81-.46,1.61-.68,2.44-.2.68-.4,1.36-.57,2.05-.22.79-.44,1.56-.64,2.35-.13.35-.22.73-.31,1.08-.11.4-.22.79-.29,1.19-.09.29-.15.59-.22.88,0,.02-.02.02,0,.04-.02.02-.02.07-.02.09v.02"/>
    <path class="cls-1" d="m503.24,324.69c.18-.9.37-1.8.57-2.73s.4-1.85.64-2.75"/>
    <path class="cls-1" d="m393,213.59c-.97.24-1.91.53-2.86.81-.15.04-.29.09-.44.11-.66.18-1.34.37-2,.59-1.94.55-3.85,1.12-5.76,1.69-.15.07-.33.11-.48.15-.51.15-1.03.33-1.54.48-.68.22-1.36.42-2.05.66-1.58.48-3.17.99-4.75,1.52-.15.04-.33.11-.48.15-2.29.75-4.55,1.52-6.8,2.31-.31.11-.59.2-.9.31-2.75.97-5.46,1.94-8.14,2.95-.7.26-1.43.53-2.13.81-3.59,1.34-7.13,2.73-10.63,4.18-.9.35-1.8.73-2.71,1.1-1.87.79-3.74,1.58-5.59,2.4"/>
    <path class="cls-1" d="m571.66,200.08c-.44.42-.88.84-1.3,1.28l-2.05,2.05c-1.01.99-2,2.02-2.97,3.04v.02c-.44.44-.81.84-1.21,1.28-1.08,1.12-2.13,2.27-3.17,3.41-.75.81-1.5,1.65-2.2,2.49-.68.75-1.34,1.52-2,2.29-1.03,1.19-2.02,2.38-3.01,3.59-.13.15-.26.31-.4.48-.73.86-1.43,1.72-2.09,2.6-.13.13-.24.26-.33.42-.04.02-.07.04-.04.07-.57.68-1.12,1.39-1.65,2.09-.66.81-1.3,1.65-1.91,2.49-.57.73-1.12,1.45-1.65,2.2-1.43,1.89-2.79,3.81-4.11,5.74-.64.9-1.28,1.8-1.87,2.71-1.8,2.64-3.54,5.35-5.21,8.07-.46.73-.9,1.45-1.34,2.18-.7,1.14-1.41,2.31-2.07,3.5-11.73-20.5-26.07-38.92-42.46-54.74,7.66-.51,15.25-.79,22.73-.9h.02c16.63-.2,32.85.57,48.49,2.24,3.98.42,7.92.9,11.81,1.43Z"/>
    <path class="cls-1" d="m590.54,564.53c-13.9,11-29.04,20.53-45.19,28.29-31.83,15.36-67.56,23.96-105.27,23.96-8.38,0-16.65-.42-24.82-1.25-.02.02-.04,0-.07,0-3.28-1.1-6.56-2.31-9.81-3.65-1.06-.44-2.11-.88-3.17-1.34-1.08-.46-2.11-.92-3.17-1.41-.99-.44-1.98-.9-2.97-1.36-1.12-.55-2.22-1.08-3.32-1.65-1.06-.53-2.09-1.08-3.12-1.63-.7-.37-1.43-.75-2.13-1.14-2.33-1.28-4.66-2.62-7-4.03-1.08-.64-2.13-1.3-3.19-1.98-1.01-.64-2.02-1.3-3.04-1.96-3.5-2.29-6.97-4.73-10.38-7.33-.86-.64-1.72-1.28-2.57-1.96-1.61-1.23-3.21-2.51-4.8-3.81,2.66-3.65,4.25-7.63,4.25-13.55,0-9.66-4.64-18.59-9.35-24.53.26.04.5.11.77.15.46.09.92.15,1.39.24.15.02.33.07.48.09,1.1.22,2.22.42,3.32.59.33.07.66.11.99.18,1.12.2,2.24.37,3.37.53.13.02.29.04.42.07.97.15,1.96.29,2.93.42.26.04.53.07.79.11.75.11,1.52.2,2.29.31.31.04.64.07.97.11.59.07,1.19.15,1.8.2.97.11,1.94.22,2.93.31.48.04.95.09,1.43.13,9.44,14.06,20.81,27.54,32.96,27.54,15.03,0,21.71-13.49,24.99-29.13.18-.02.35-.04.55-.09.31-.04.59-.09.88-.13,1.1-.15,2.2-.33,3.3-.53.2-.04.4-.07.59-.11.48-.07.97-.13,1.43-.24.09-.02.2-.02.29-.04,1.25-.2,2.51-.44,3.78-.68.2-.04.42-.09.62-.13.22-.02.44-.07.66-.11.2-.04.42-.09.62-.13.44-.09.86-.15,1.28-.24s.84-.18,1.25-.26c.26-.04.51-.09.77-.15.13-.02.24-.04.37-.09.97-.2,1.96-.42,2.93-.64.51-.11.99-.22,1.5-.35,1.89-.42,3.78-.88,5.65-1.39,1.67-.44,3.32-.88,4.97-1.34,1.67-.46,3.3-.92,4.93-1.43,1.65-.48,3.28-.99,4.88-1.52,1.61-.51,3.23-1.03,4.82-1.61.22-.07.42-.15.64-.22.4-.13.79-.29,1.19-.42.44-.15.86-.31,1.3-.48.75-.26,1.5-.53,2.24-.81,1.83-.68,3.65-1.36,5.46-2.11.22-.09.46-.18.68-.26,1.65-.66,3.3-1.36,4.95-2.07.11-.04.22-.09.33-.13.09-.04.18-.07.26-.11.18-.07.33-.15.51-.22.4-.18.77-.35,1.17-.51.2-.09.42-.18.62-.26v-.02c.77-.33,1.52-.68,2.27-1.01.26-.11.53-.24.77-.35,1.69-.77,3.39-1.58,5.04-2.4.09-.04.18-.07.24-.11,1.67-.81,3.34-1.67,4.99-2.53.04-.02.11-.04.15-.09,1.05-.55,2.11-1.1,3.15-1.67l.73-.4s.11-.04.15-.09c.13-.07.26-.13.4-.2.2-.11.4-.2.57-.31.09-.04.18-.09.26-.15.4-.22.79-.44,1.21-.68.11-.07.24-.13.35-.2.64-.35,1.28-.7,1.89-1.08.86-.48,1.69-.97,2.53-1.47,3.04-1.78,6.01-3.65,8.93-5.57v-.02c1.28-.84,2.55-1.69,3.83-2.55.07-.04.11-.09.18-.13l.02-.02c.24-.15.46-.33.7-.48.75,1.17,1.5,2.31,2.27,3.45.75,1.1,1.5,2.18,2.24,3.26,0,.02.02.04.04.07.11.18.22.37.37.55.04.09.09.18.18.24,0,.02,0,.04.02.04.55.81,1.12,1.61,1.72,2.4.02.07.07.11.11.15.51.75,1.06,1.5,1.63,2.24.26.37.55.75.84,1.12.24.33.48.66.73.99.18.24.37.48.55.73.4.51.77,1.01,1.17,1.5.42.55.86,1.1,1.28,1.65.73.92,1.43,1.85,2.22,2.75.15.22.33.44.55.66.4.51.81,1.01,1.25,1.54,1.94,2.35,3.94,4.66,5.98,6.93.55.62,1.12,1.23,1.67,1.85.59.66,1.19,1.32,1.8,1.96.57.62,1.17,1.23,1.74,1.85,1.21,1.25,2.42,2.51,3.65,3.74.13.15.31.33.46.48h.02c.95.99,1.91,1.94,2.9,2.86,3.37,3.23,6.82,6.38,10.36,9.44.84.75,1.69,1.47,2.55,2.16.64.55,1.3,1.08,1.96,1.63.15.15.31.26.46.37.92.75,1.85,1.5,2.79,2.24Z"/>
    <path class="cls-1" d="m351.42,544.2c.26.04.51.11.77.15.46.09.92.15,1.39.24.15.02.33.07.48.09,1.1.22,2.22.42,3.32.59.33.07.66.11.99.18,1.12.2,2.24.37,3.37.53.13.02.29.04.42.07.97.15,1.96.29,2.93.42.26.04.53.07.79.11.75.11,1.52.2,2.29.31.31.04.64.07.97.11.31.02.64.07.97.09.26.04.55.07.84.11.97.11,1.94.22,2.93.31.48.04.95.09,1.43.13"/>
    <path class="cls-1" d="m332.1,539.5c1.06-5.87.37-12.25-2.18-18.7-3.59-9.11-12.1-17.07-20.72-21.63v-.53c0-10.05-10.8-26.91-27.81-26.91-1.41,0-2.77.04-4.07.15.07.2.15.37.22.57-.09-.2-.15-.37-.24-.57-.24-.55-.46-1.1-.68-1.67-.73-1.72-1.43-3.45-2.11-5.21-.92-2.35-1.83-4.71-2.68-7.06-.46-1.25-.92-2.49-1.34-3.72-.46-1.28-.92-2.55-1.34-3.85-.35-.97-.66-1.91-.99-2.88-.75-2.22-1.47-4.44-2.16-6.69-.77-2.46-1.52-4.93-2.22-7.39-.13-.48-.29-.99-.42-1.47-.57-2.05-1.14-4.09-1.67-6.14-.15-.48-.26-.95-.4-1.43-.11-.46-.22-.95-.33-1.41-.37-1.39-.73-2.77-1.06-4.18,0-.02-.02-.07-.02-.09-.18-.68-.35-1.39-.51-2.07-.4.02-.77.04-1.17.07-1.08.07-2.16.13-3.21.18-.09,0-.18.02-.26.02-2.55.15-5.13.26-7.68.37-1.17.07-2.33.11-3.5.15-.59.02-1.17.04-1.76.07-.57.02-1.12.04-1.69.04-1.63.07-3.23.11-4.86.15-1.3.02-2.62.07-3.92.09-4.25.09-8.49.13-12.74.15h-2.16c-1.21,0-2.4,0-3.59-.02-1.19.02-2.38,0-3.56-.02h-.35c-1.43,0-2.77-.02-4.05-.04h-.04c-.68-.02-1.34-.02-1.98-.04-.53,0-1.08,0-1.58-.02-1.28-7.02-2.27-14.17-2.9-21.38v-.02c-.15-1.06-.29-2.13-.4-3.19-.22-1.78-.4-3.54-.55-5.32-.13-1.67-.26-3.34-.35-5.02-.02-.33-.02-.66-.04-.99-.04-.68-.07-1.34-.09-2.02-.09-2.64-.11-5.3-.07-7.94v-.57c.02-1.3.07-2.62.13-3.92.04-1.25.11-2.49.2-3.74,0-.09.02-.2.02-.29.22-3.32.55-6.62.99-9.9.02-.11.02-.22.04-.33.18-2.31.4-4.6.66-6.89.22-1.96.46-3.92.75-5.85.4-.64.79-1.23,1.21-1.85l.02-.02c.64-.97,1.3-1.94,1.98-2.9.02-.02.02-.04.04-.07.02-.04.04-.07.07-.11.04-.09.11-.2.18-.29.04-.04.09-.11.13-.18s.09-.13.13-.18c.86-1.25,1.74-2.49,2.64-3.72,2.02-2.77,4.11-5.5,6.27-8.18.84-1.03,1.69-2.09,2.57-3.1.66-.81,1.34-1.61,2.05-2.42.73-.88,1.47-1.74,2.24-2.57l.4-.46c.09-.11.18-.2.26-.29,1.06-1.21,2.16-2.4,3.28-3.59.66-.73,1.34-1.43,2.02-2.16.81-.88,1.65-1.74,2.51-2.62,1.06-1.08,2.11-2.13,3.19-3.19,1.06-1.06,2.13-2.11,3.23-3.15.11-.09.2-.2.31-.29.79-.77,1.61-1.54,2.42-2.29.15-.13.29-.26.42-.4.02-.02.07-.04.09-.07.62-.57,1.25-1.17,1.91-1.74l.04-.04c2.07-1.89,4.16-3.74,6.27-5.52.09-.07.18-.15.26-.22.18-.15.33-.29.51-.42.66-.57,1.32-1.12,1.98-1.67.33-.26.64-.53.97-.79.35-.31.68-.57,1.03-.86.88-.75,1.78-1.47,2.68-2.18.18-.15.33-.29.51-.42.42-.33.81-.66,1.23-.97,1.39-1.1,2.77-2.18,4.18-3.26,3.7-2.82,7.48-5.57,11.31-8.21,1.21-.86,2.44-1.69,3.7-2.53.02-.02.07-.04.09-.07.15-.11.31-.22.46-.31.84-.57,1.67-1.14,2.53-1.69l.4-.26c1.52-.99,3.04-1.98,4.58-2.97l.53-.33c1.5-.95,3.01-1.89,4.53-2.82.4-.26.81-.53,1.23-.75v-.02"/>
    <path class="cls-1" d="m504.78,430.29c.09.42.18.81.29,1.23.13.51.24,1.01.37,1.52.07.24.13.51.2.75"/>
    <path class="cls-1" d="m516.57,466.79c.11.24.2.46.29.68l1.32,3.1c.04.09.09.2.15.31"/>
    <path class="cls-1" d="m523.24,481.44c.04.11.11.24.15.35.09.18.18.37.29.55"/>
    <path class="cls-1" d="m526.47,487.75c.22.44.46.88.7,1.32.42.79.84,1.58,1.28,2.35.04.09.11.18.18.26"/>
    <path class="cls-1" d="m530.26,494.57c.09.15.18.33.26.48.81,1.45,1.67,2.9,2.53,4.31.46.75.92,1.5,1.39,2.24.33.53.66,1.06,1.01,1.58,0,.02,0,.04.04.09.09.13.15.29.24.42.11.18.22.33.33.51.04.07.07.11.11.15.09.15.18.31.26.44.2.31.37.59.57.88-.24.15-.46.33-.7.48l-.02.02c-.07.04-.11.09-.18.13-1.28.86-2.55,1.72-3.83,2.55v.02c-2.93,1.91-5.9,3.78-8.93,5.57-.84.51-1.67.99-2.53,1.47-.62.37-1.25.73-1.89,1.08-.11.07-.24.13-.35.2-.42.24-.81.46-1.21.68-.09.07-.18.11-.26.15-.18.11-.37.2-.57.31l-.4.2s-.11.07-.15.09l-.73.4c-1.03.57-2.09,1.12-3.15,1.67-.04.04-.11.07-.15.09-1.65.86-3.32,1.72-4.99,2.53-.07.04-.15.07-.24.11-1.65.81-3.34,1.63-5.04,2.4-.24.11-.51.24-.77.35-.75.35-1.5.68-2.27,1.03-.2.09-.42.18-.62.26-.4.15-.77.33-1.17.51-.18.07-.33.15-.51.22-.09.04-.18.07-.26.11l-.33.13c-1.65.7-3.3,1.41-4.95,2.07-.22.09-.46.18-.68.26-1.8.75-3.63,1.43-5.46,2.11-.75.29-1.5.55-2.24.81-.44.18-.86.33-1.3.48-.4.13-.79.29-1.19.42-.22.07-.42.15-.64.22-1.61.55-3.21,1.1-4.82,1.61-1.61.53-3.23,1.03-4.88,1.52-1.63.51-3.26.97-4.93,1.43-1.65.46-3.3.9-4.97,1.34-1.87.51-3.76.97-5.65,1.39-.51.13-.99.24-1.5.35-.97.22-1.96.44-2.93.64-.13.04-.24.07-.37.09-.26.07-.51.11-.77.15l-1.25.26c-.42.09-.84.15-1.28.24-.42.09-.86.18-1.28.24-.2.04-.42.09-.62.13-1.28.24-2.53.48-3.78.68-.09.02-.2.02-.29.04-.46.11-.95.18-1.43.24-.2.04-.4.07-.59.11-1.1.2-2.2.37-3.3.53-.29.04-.57.09-.88.13-.2.04-.37.07-.55.09"/>
    <path class="cls-1" d="m498.27,378.13c-.02-.13-.02-.29-.02-.42"/>
    <path class="cls-1" d="m437.7,203.45s.07-.02.09-.02c.02-.02.07-.02.09-.02.09-.02.18-.02.24-.04.18-.04.35-.07.53-.09,1.83-.33,3.67-.64,5.5-.92,2.29-.37,4.55-.73,6.84-1.06.73-.11,1.45-.22,2.16-.31.35-.04.68-.11,1.03-.15,1.14-.18,2.31-.33,3.45-.48.18-.02.37-.04.55-.07.81-.11,1.65-.22,2.46-.33,1.41-.18,2.84-.33,4.25-.51.7-.09,1.43-.15,2.13-.24,2.82-.31,5.63-.59,8.47-.86.13-.02.26-.02.4-.04.4-.04.81-.07,1.21-.11,1.06-.09,2.09-.18,3.15-.26.92-.07,1.85-.15,2.77-.22.13,0,.24-.02.37-.02.44-.04.9-.07,1.36-.11.26-.02.51-.04.75-.04h.09c1.01-.09,2.02-.15,3.01-.22.77.75,1.54,1.5,2.31,2.27.29.26.59.57.95.92,3.72,3.74,7.3,7.59,10.76,11.55.66.75,1.28,1.47,1.91,2.22l1.91,2.24c.55.66,1.08,1.32,1.65,2,.33.42.68.86,1.03,1.28.09.09.15.2.24.29.04.07.09.11.13.18l.26.33s.02.04.04.07c.13.15.24.31.37.46.15.22.31.44.48.64.75.95,1.47,1.89,2.2,2.86.84,1.08,1.65,2.16,2.44,3.26.4.55.79,1.08,1.19,1.63.42.55.81,1.1,1.19,1.65,1.56,2.2,3.1,4.44,4.6,6.69,1.45,2.18,2.86,4.38,4.25,6.62.07.07.11.13.13.2l.13.2c.07.09.13.2.2.31.07.15.15.31.26.46.04.07.09.15.13.24.64,1.06,1.28,2.11,1.94,3.17.09.18.2.35.31.53.46.79.92,1.61,1.41,2.4v.04s.02.02.02.04c0,0-.02.02-.02.04v.02c-1.12,1.89-2.2,3.81-3.23,5.74-.09.11-.15.24-.2.35-.75,1.34-1.47,2.71-2.18,4.07-.35.66-.7,1.34-1.03,2.02-.24.44-.46.88-.68,1.34-.18.33-.33.64-.48.97-1.67,3.37-3.26,6.78-4.77,10.23-.13.31-.26.59-.37.9-.13.26-.24.53-.35.79-.26.62-.53,1.25-.79,1.89-.26.59-.51,1.19-.75,1.8-.88,2.11-1.72,4.27-2.51,6.42-.26.62-.48,1.23-.7,1.87-.02.04-.04.09-.04.13-.22.51-.4,1.03-.57,1.56-.09.22-.15.44-.22.66-.44,1.17-.86,2.35-1.25,3.56-.13.35-.26.73-.37,1.08-.09.26-.18.51-.24.77-.33.99-.64,1.98-.95,2.97-.37,1.14-.75,2.31-1.08,3.45-.24.81-.46,1.61-.68,2.44-.2.68-.4,1.36-.57,2.05-.22.79-.44,1.56-.64,2.35-.13.35-.22.73-.31,1.08-.11.4-.22.79-.29,1.19-.09.29-.15.59-.22.88,0,.02-.02.02,0,.04-.02.02-.02.07-.02.09v.02"/>
    <path class="cls-1" d="m503.24,324.69c.18-.9.37-1.8.57-2.73s.4-1.85.64-2.75"/>
    <path class="cls-1" d="m393,213.59c-.97.24-1.91.53-2.86.81-.15.04-.29.09-.44.11-.66.18-1.34.37-2,.59-1.94.55-3.85,1.12-5.76,1.69-.15.07-.33.11-.48.15-.51.15-1.03.33-1.54.48-.68.22-1.36.42-2.05.66-1.58.48-3.17.99-4.75,1.52-.15.04-.33.11-.48.15-2.29.75-4.55,1.52-6.8,2.31-.31.11-.59.2-.9.31-2.75.97-5.46,1.94-8.14,2.95-.7.26-1.43.53-2.13.81-3.59,1.34-7.13,2.73-10.63,4.18-.9.35-1.8.73-2.71,1.1-1.87.79-3.74,1.58-5.59,2.4"/>
    <path class="cls-1" d="m290.1,183.14c-10.27,15.77-18.81,33.62-25.34,53.09v.02c-4.91,14.59-8.69,30.07-11.26,46.22-21.58,17.18-39.4,36.12-52.6,56.06l-.02.02c-.42.62-.81,1.21-1.21,1.85,8.8-63.62,42.26-119.37,90.44-157.26Z"/>
    <path class="cls-1" d="m356.79,225.34c-.7.26-1.43.53-2.13.81-3.59,1.34-7.13,2.73-10.63,4.18-.9.35-1.8.73-2.71,1.1-1.87.79-3.74,1.58-5.59,2.4-12.69-11.46-24.31-16.41-33.09-12.76-9.57,4-14.26,17.56-14.39,37.22v.02c-.42.22-.84.48-1.23.75-1.52.92-3.04,1.87-4.53,2.82l-.53.33c-1.54.99-3.06,1.98-4.58,2.97-.13.09-.26.18-.4.26-.86.55-1.69,1.12-2.53,1.69-.15.09-.31.2-.46.31-.02.02-.07.04-.09.07-1.25.84-2.49,1.67-3.7,2.53-3.83,2.64-7.61,5.39-11.31,8.21-1.41,1.08-2.79,2.16-4.18,3.26-.42.31-.81.64-1.23.97,2.57-16.15,6.36-31.64,11.26-46.22v-.02c6.53-19.47,15.07-37.31,25.34-53.09,10.43-8.23,21.54-15.6,33.26-22,5.65,8.6,11.68,19.25,17.95,31.57,5.02,9.86,10.21,20.81,15.47,32.63Z"/>
    <path class="cls-1" d="m488.61,197.31c-.99.07-2,.13-3.01.22h-.09c-.7.04-1.41.09-2.11.15-.13,0-.24.02-.37.02-.92.07-1.85.15-2.77.22-1.06.09-2.09.18-3.15.26-.4.04-.81.07-1.21.11-.13.02-.26.02-.4.04-.97.09-1.96.18-2.95.29-1.83.18-3.67.37-5.52.57-.7.09-1.43.15-2.13.24-1.41.18-2.84.33-4.25.51-.81.11-1.65.22-2.46.33-.18.02-.37.04-.55.07-1.14.15-2.31.31-3.45.48-.35.04-.68.11-1.03.15-.73.09-1.45.2-2.16.31-2.29.33-4.55.68-6.84,1.06-1.83.29-3.67.59-5.5.92-.18.02-.35.04-.53.09-.07.02-.15.02-.24.04-.02,0-.07,0-.09.02-.02,0-.07,0-.09.02v-.02c-10.1-10.54-19.84-15.51-28.12-13.2-7.79,2.18-13.33,10.54-16.59,23.36-.97.24-1.91.53-2.86.81-.15.04-.29.09-.44.11-.66.18-1.34.37-2,.59-1.94.55-3.85,1.12-5.76,1.69-.15.07-.33.11-.48.15-.51.15-1.03.33-1.54.48-.68.22-1.36.42-2.05.66-1.58.48-3.17.99-4.75,1.52-.15.04-.33.11-.48.15-2.29.75-4.55,1.52-6.8,2.31-.31.11-.59.2-.9.31-2.75.97-5.46,1.94-8.14,2.95-5.26-11.81-10.45-22.77-15.47-32.63-6.27-12.32-12.3-22.97-17.95-31.57,17.31-9.53,35.9-17.01,55.46-22.09,35.09,6.84,67.78,22.77,95.66,45.67,4.86,3.96,9.57,8.16,14.12,12.58Z"/>
    <path class="cls-1" d="m351.42,544.2c.26.04.51.11.77.15.46.09.92.15,1.39.24.15.02.33.07.48.09,1.1.22,2.22.42,3.32.59.33.07.66.11.99.18,1.12.2,2.24.37,3.37.53.13.02.29.04.42.07.97.15,1.96.29,2.93.42.26.04.53.07.79.11,1.41.18,2.82.35,4.22.51.26.04.55.07.84.11.97.11,1.94.22,2.93.31.48.04.95.09,1.43.13"/>
    <path class="cls-1" d="m332.1,539.5c1.06-5.87.37-12.25-2.18-18.7-3.59-9.11-12.1-17.07-20.72-21.63v-.53c0-10.05-10.8-26.91-27.81-26.91-1.41,0-2.77.04-4.07.15-.24-.55-.48-1.12-.7-1.67-.73-1.72-1.43-3.45-2.11-5.21-.92-2.35-1.83-4.71-2.68-7.06-.46-1.25-.92-2.49-1.34-3.72-.46-1.28-.92-2.55-1.34-3.85-.35-.97-.66-1.91-.99-2.88-.75-2.22-1.47-4.44-2.16-6.69-.77-2.46-1.52-4.93-2.22-7.39-.13-.48-.29-.99-.42-1.47-.57-2.05-1.14-4.09-1.67-6.14-.15-.48-.26-.95-.4-1.43-.11-.46-.22-.95-.33-1.41-.29-1.41-.57-2.86-1.06-4.18,0-.02-.02-.07-.02-.09-.62-1.65-.11-1.47-1.67-2-.73-.26-2.31.09-3.21.18-.09,0-.18.02-.26.02-2.55.15-5.13.26-7.68.37-1.17.07-2.33.11-3.5.15-.59.02-1.17.04-1.76.07-.57.02-1.12.04-1.69.04-1.63.07-3.23.11-4.86.15-1.3.02-2.62.07-3.92.09-4.25.09-8.49.13-12.74.15h-2.16c-1.21,0-2.4,0-3.59-.02-1.19.02-2.38,0-3.56-.02h-.35c-1.32,0-2.73.11-4.05-.04h-.04c-2.33-.31-2.22-.81-2.84-3.19-1.58-6.2-2.82-12.47-3.67-18.81-.13-.88-.24-1.78-.35-2.66-.22-1.78-.4-3.54-.55-5.32-.13-1.67-.26-3.34-.35-5.02-.02-.33-.02-.66-.04-.99-.04-.68-.07-1.34-.09-2.02-.09-2.64-.11-5.3-.07-7.94v-.57c.02-1.3.07-2.62.13-3.92.04-1.25.11-2.49.2-3.74,0-.09.02-.2.02-.29.33-5.17.53-11.35,1.69-17.12.77-3.89,1.96-7.59,3.96-10.63.02-.02.02-.04.04-.07.02-.04.04-.07.07-.11.04-.09.11-.2.18-.29.04-.04.09-.11.13-.18s.09-.13.13-.18c.86-1.25,1.74-2.49,2.64-3.72,2.02-2.77,4.11-5.5,6.27-8.18.84-1.03,1.69-2.09,2.57-3.1.66-.81,1.34-1.61,2.05-2.42.73-.88,1.47-1.74,2.24-2.57l.4-.46c.09-.11.18-.2.26-.29,1.06-1.21,2.16-2.4,3.28-3.59.66-.73,1.34-1.43,2.02-2.16.81-.88,1.65-1.74,2.51-2.62,1.06-1.08,2.11-2.13,3.19-3.19,1.06-1.06,2.13-2.11,3.23-3.15.11-.09.2-.2.31-.29.79-.77,1.61-1.54,2.42-2.29.15-.13.29-.26.42-.4.02-.02.07-.04.09-.07.62-.57,1.25-1.17,1.91-1.74l.04-.04c2.07-1.89,4.16-3.74,6.27-5.52.09-.07.18-.15.26-.22.18-.15.33-.29.51-.42.66-.57,1.32-1.12,1.98-1.67.33-.26.64-.53.97-.79.35-.31.68-.57,1.03-.86.88-.75,1.78-1.47,2.68-2.18.18-.15.33-.29.51-.4v-.02c.42-.33.81-.66,1.23-.97,1.39-1.1,2.77-2.18,4.18-3.26,3.7-2.82,7.48-5.57,11.31-8.21,1.21-.86,2.44-1.69,3.7-2.53.02-.02.07-.04.09-.07.15-.11.31-.22.46-.31.84-.57,1.67-1.14,2.53-1.69l.4-.26c1.52-.99,3.04-1.98,4.58-2.97l.53-.33c.48-.33.97-.64,1.47-.95,1.01-.64,2.05-1.28,3.06-1.87.4-.26.81-.53,1.23-.75"/>
    <path class="cls-1" d="m504.78,430.29c.09.42.18.81.29,1.23.13.51.24,1.01.37,1.52.07.24.13.51.2.75"/>
    <path class="cls-1" d="m506.67,437.7c-.31-1.06-.57-2.09-.84-3.15"/>
    <path class="cls-1" d="m510.04,449.01c.18.57.35,1.17.55,1.74.07.2.13.37.2.57"/>
    <path class="cls-1" d="m516.81,467.31s.02.11.04.15l1.32,3.1c.09.22.2.42.29.64"/>
    <path class="cls-1" d="m523.24,481.44c.04.11.11.24.15.35.09.18.18.37.29.55"/>
    <path class="cls-1" d="m526.78,488.3c.11.26.24.51.4.77.42.79.84,1.58,1.28,2.35.18.29.33.59.51.88"/>
    <path class="cls-1" d="m530.59,495.12c1.89,3.06,3.94,6.07,5.59,9.24.09.15.18.31.26.44.15.29.31.59.46.88-.2.18-.4.33-.59.48l-.02.02c-.07.04-.11.09-.18.13-5.52,4.58-12.5,8.14-18.74,11.57-.09.07-.18.11-.26.15-.18.11-.37.2-.57.31l-.4.2s-.11.07-.15.09l-.73.4c-1.03.57-2.09,1.12-3.15,1.67-.04.04-.11.07-.15.09-1.65.86-3.32,1.72-4.99,2.53-.07.04-.15.07-.24.11-1.65.81-3.34,1.63-5.04,2.4-.24.11-.51.24-.77.35-.75.33-1.5.68-2.27,1.01-.2.09-.42.18-.62.29-.4.15-.77.33-1.17.51-.18.07-.33.15-.51.22-.09.04-.18.07-.26.11l-.33.13c-1.65.7-3.3,1.41-4.95,2.07-.22.09-.46.18-.68.26-1.8.75-3.63,1.43-5.46,2.11-.75.29-1.5.55-2.24.81-.44.18-.86.33-1.3.48-.4.13-.79.29-1.19.42-.22.07-.42.15-.64.22-1.61.55-3.21,1.1-4.82,1.61-1.61.53-3.23,1.03-4.88,1.52-1.63.51-3.26.97-4.93,1.43-1.65.46-3.3.9-4.97,1.34-1.87.51-3.76.97-5.65,1.39-.51.13-.99.24-1.5.35-.97.22-1.96.44-2.93.64-.13.04-.24.07-.37.09-.26.07-.51.11-.77.15l-1.25.26c-.42.09-.84.15-1.28.24-.42.09-.86.18-1.28.24-.2.04-.42.09-.62.13-1.28.24-2.53.48-3.78.68-.09.02-.2.02-.29.04-.46.11-.95.18-1.43.24-.2.04-.4.07-.59.11-1.1.2-2.2.37-3.3.53-.29.04-.57.09-.88.13l-.53.07"/>
    <path class="cls-1" d="m499.1,394.56s-.02-.07-.02-.09"/>
    <line class="cls-1" x1="498.27" y1="370.32" x2="498.27" y2="369.24"/>
    <path class="cls-1" d="m498.31,367.96c-.02.2-.02.37-.02.55"/>
    <path class="cls-1" d="m437.7,203.42h.09s.07-.02.09-.02c.09-.02.18-.02.24-.04.18-.04.35-.07.53-.09,1.83-.33,3.67-.64,5.5-.92,2.29-.37,4.55-.73,6.84-1.06.73-.11,1.45-.22,2.16-.31.35-.04.68-.11,1.03-.15,1.14-.18,2.31-.33,3.45-.48.18-.02.37-.04.55-.07.81-.11,1.65-.22,2.46-.33,1.41-.18,2.84-.33,4.25-.51.7-.09,1.43-.15,2.13-.24,2.82-.31,5.63-.59,8.47-.86.13-.02.26-.02.4-.04.4-.04.81-.07,1.21-.11,1.06-.09,2.09-.18,3.15-.26.92-.07,1.85-.15,2.77-.22.13,0,.24-.02.37-.02.44-.04.9-.07,1.36-.11.26-.02.51-.04.75-.04h.09c2.57-.09,3.59.4,5.32,2.05.29.26.59.57.95.92,3.72,3.74,7.3,7.59,10.76,11.55.66.75,1.28,1.47,1.91,2.22l1.91,2.24c.55.66,1.08,1.32,1.65,2,.33.42.68.86,1.03,1.28.09.09.15.2.24.29.04.07.09.11.13.18l.26.33s.02.04.04.07c.13.15.24.31.37.46.15.22.31.44.48.64.75.95,1.47,1.89,2.2,2.86.84,1.08,1.65,2.16,2.44,3.26.4.55.79,1.08,1.19,1.63.42.55.81,1.1,1.19,1.65,1.56,2.2,3.1,4.44,4.6,6.69,1.45,2.18,2.86,4.38,4.25,6.62.07.07.11.13.13.2l.13.2c.07.09.13.2.2.31,1.14,1.72,4.03,5.1,4.05,6.8v.15c-.13,1.43-2.2,4.14-3.23,5.74-.09.11-.15.24-.2.35-.75,1.34-1.47,2.71-2.18,4.07-.35.66-.7,1.34-1.03,2.02-.24.44-.46.88-.68,1.34-.18.33-.33.64-.48.97-1.67,3.37-3.26,6.78-4.77,10.23-.11.26-.24.53-.35.79-.13.31-.24.59-.37.9-.26.62-.53,1.25-.79,1.89-.26.59-.51,1.19-.75,1.8-.88,2.11-1.72,4.27-2.51,6.42-.26.62-.48,1.23-.7,1.87-.02.04-.04.09-.04.13-.22.51-.4,1.03-.57,1.56-.09.22-.15.44-.22.66-.44,1.17-.86,2.35-1.25,3.56-.13.35-.26.73-.37,1.08-.09.26-.18.51-.24.77-.33.99-.64,1.98-.95,2.97-.37,1.14-.75,2.31-1.08,3.45-.24.81-.46,1.61-.68,2.44-.04.13-.09.29-.13.42-.09.29-.18.57-.24.86-.09.26-.15.51-.2.77-.22.79-.44,1.56-.64,2.35-.13.35-.22.73-.31,1.08-.11.4-.22.79-.29,1.19-.09.29-.15.59-.22.88,0,.02-.02.02,0,.04-.02.02-.02.07-.04.09-.04.18-.09.33-.11.51"/>
    <path class="cls-1" d="m505.15,316.24c-.04.11-.09.24-.09.37-.24.86-.44,1.72-.62,2.6-.24.9-.44,1.83-.64,2.75s-.4,1.83-.57,2.73"/>
    <path class="cls-1" d="m393,213.59c-.97.24-1.91.53-2.86.81-.15.04-.29.09-.44.11-.66.18-1.34.37-2,.59-1.94.55-3.85,1.12-5.76,1.69-.15.07-.33.11-.48.15-.51.15-1.03.33-1.54.48-.68.22-1.36.42-2.05.66-1.58.48-3.17.99-4.75,1.52-.15.04-.33.11-.48.15-2.29.75-4.55,1.52-6.8,2.31-.31.11-.59.2-.9.31-2.75.97-5.46,1.94-8.14,2.95-.7.26-1.43.53-2.13.81-3.59,1.34-7.13,2.73-10.63,4.18-.9.35-1.8.73-2.71,1.1-1.87.79-3.74,1.58-5.59,2.4"/>
    <path class="cls-1" d="m418.56,391.68c16.1,50.58,30.51,102.39,41.14,149.05"/>
    <path class="cls-1" d="m400.37,337.01c-14.34-41.12-29.28-79.64-43.58-111.67"/>
    <path class="cls-1" d="m473.72,614.01c-1.52-10.43-11.81-61.69-14.01-73.28"/>
    <path class="cls-1" d="m323.37,161.14s-.02-.02-.02-.02"/>
    <path class="cls-1" d="m329.86,405.89c-20.17,6.14-46.29,9.24-70.49,10.74"/>
    <path class="cls-1" d="m729,445.45c-.55-2.53-1.06-5.13-1.52-7.81.48,2.68.99,5.28,1.52,7.81Z"/>
    <path class="cls-1" d="m829.68,318.95c0,4.2-.07,8.49-.22,12.83.13-4.33.22-8.6.22-12.83Z"/>
    <path class="cls-1" d="m981.78,343.23c-.15-1.3-.33-2.6-.51-3.89-.09-.53-.15-1.08-.24-1.61-.24-1.58-.48-3.17-.77-4.73,0-.09-.02-.2-.04-.29-.33-1.89-.66-3.76-1.03-5.63-.4-1.96-.79-3.92-1.23-5.85-.42-1.96-.88-3.89-1.36-5.81-7.11,6.29-13.84,13.66-18.63,19.54-2.57,3.17-4.42,6.53-6.67,9.46.15,1.43.31,2.88.44,4.33.95,10.03,1.34,20.22,1.14,30.56-.02,1.06-.04,2.13-.09,3.19.55-.15,1.1-.31,1.63-.44,1.85-.48,3.61-.86,5.26-1.12-6.69-14.87.48-36.06,20.31-36.06.68,0,1.36.02,2.02.07-.07-.57-.13-1.14-.22-1.72Zm-274.6-115.43c-8.56-20.75-19.73-33.31-32.16-33.51-6.58-.11-12.94,3.28-18.83,9.53-6.53,6.91-12.5,17.36-17.56,30.47-10.1,26.07-16.7,62.74-17.36,103.44-.26,16.5.46,32.34,2.05,47.15h.02c4.97,46.79,18.44,82.85,35.66,94.2,3.63,2.4,7.44,3.67,11.35,3.74,19.87.33,37.58-30.95,46.88-77.04,2.07-10.21,3.72-21.14,4.91-32.63.33-15.09.99-30.14,1.96-44.99-.44-40.24-6.84-75.97-16.92-100.36Zm-201.78,87.54c.02-.18.07-.33.11-.51.02-.02.02-.07.04-.09-.02-.02,0-.02,0-.04.07-.29.13-.59.22-.88.18-.75.37-1.52.59-2.27.2-.79.42-1.56.64-2.35.18-.68.37-1.36.57-2.05.55-1.98,1.14-3.94,1.76-5.9.31-.99.62-1.98.95-2.97.2-.62.42-1.23.62-1.85.4-1.21.81-2.4,1.25-3.56.24-.75.51-1.5.79-2.22,0-.04.02-.09.04-.13.22-.64.46-1.25.7-1.87.79-2.16,1.63-4.31,2.51-6.42.24-.62.48-1.21.75-1.8.26-.64.53-1.28.79-1.89.11-.26.22-.53.35-.79.11-.31.24-.59.37-.9,1.52-3.45,3.1-6.86,4.77-10.23.15-.33.31-.64.48-.97.22-.46.44-.9.68-1.34.33-.68.68-1.36,1.03-2.02.7-1.36,1.43-2.73,2.18-4.07.04-.11.11-.24.2-.35,1.03-1.94,2.11-3.85,3.23-5.74v-.02s.02-.04.02-.04c.18-.29.33-.57.51-.86.22-.37.42-.75.64-1.1.88-1.47,1.76-2.9,2.66-4.36.09-.13.15-.24.24-.37.37-.62.77-1.23,1.17-1.85l1.19-1.85c.9-1.39,1.83-2.75,2.75-4.11.73-1.08,1.45-2.13,2.2-3.19.2-.31.4-.59.62-.88.18-.26.37-.51.55-.77.7-.97,1.39-1.91,2.09-2.86.75-1.01,1.52-2.02,2.29-3.04.07-.09.15-.2.22-.29.33-.46.7-.92,1.06-1.36.9-1.19,1.83-2.35,2.77-3.52,2.07-2.55,4.18-5.08,6.36-7.55l.4-.46c.88-1.01,1.76-1.98,2.66-2.97.09-.09.15-.18.24-.24.81-.9,1.63-1.8,2.46-2.68.22-.22.44-.46.64-.68.2-.2.4-.4.57-.59.48-.53.99-1.03,1.47-1.54t.04-.02c.11-.11.22-.22.31-.33.07-.07.11-.13.18-.2l.51-.51c1.25-1.28,2.53-2.53,3.81-3.78h.02c.09-.11.2-.2.29-.31.09-.07.15-.13.24-.22l.35-.35c.09-.09.2-.18.29-.29.09-.09.2-.18.29-.26.24-.22.51-.48.77-.73.44-.42.9-.84,1.36-1.28.09-.09.18-.18.29-.26,1.21-1.12,2.42-2.24,3.65-3.32.33-.33.68-.64,1.03-.92.84-.75,1.69-1.5,2.53-2.22.04-.04.09-.09.13-.11.81-.7,1.61-1.39,2.42-2.05.46-.4.9-.77,1.36-1.14.2-.15.4-.33.59-.48.15-.13.31-.24.46-.37.92-.75,1.85-1.5,2.79-2.24,7.28-5.76,14.89-11.11,22.81-16.02,22.44-13.9,47.32-24.27,73.88-30.25h.02c17.29-3.92,35.27-5.98,53.75-5.98,1.78,0,3.59.02,5.37.07,3.59.07,7.15.22,10.69.46,1.74.11,3.48.24,5.21.4,1.69.15,3.37.31,5.04.48,1.23.13,2.46.29,3.7.44,2.88.35,5.76.75,8.62,1.21,2.29.37,4.55.77,6.82,1.21,1.12.2,2.22.42,3.32.64.88.18,1.74.37,2.6.55,1.41.31,2.82.62,4.2.95,39.05,9.13,74.47,27.72,103.73,53.2-4.33,3.32-8.76,6.49-13.27,9.5-22.15,14.72-46.51,25.45-72.12,31.42-.64-1.34-1.3-2.62-1.98-3.85-.26-.48-.53-.95-.79-1.41-.24-.46-.51-.92-.79-1.36-.26-.46-.55-.9-.84-1.32-.68-1.08-1.39-2.09-2.11-3.06-.46-.62-.92-1.21-1.41-1.78-.46-.57-.95-1.12-1.45-1.65s-.99-1.03-1.5-1.52-1.01-.95-1.52-1.36c-.26-.22-.53-.44-.79-.64-.37-.29-.75-.57-1.12-.81-.31-.24-.64-.46-.97-.64-.31-.2-.59-.37-.9-.55-.35-.2-.68-.37-1.03-.55-.31-.15-.59-.31-.9-.44-.4-.18-.79-.35-1.21-.48-.2-.09-.4-.15-.62-.22-.22-.09-.44-.15-.64-.2-.22-.07-.42-.13-.64-.18-.37-.11-.77-.2-1.14-.26-.57-.11-1.14-.2-1.72-.26-1.8-.18-3.63-.09-5.43.26-.22.02-.44.07-.66.13-.35.07-.7.15-1.06.26-.73.18-1.43.42-2.16.7-.18.07-.35.15-.55.22-1.03.42-2.07.92-3.1,1.52-.35.2-.7.4-1.03.62-.55.33-1.08.68-1.61,1.06-.29.2-.55.4-.84.59-.59.42-1.17.88-1.76,1.39-.37.31-.75.64-1.12.97-1.01.88-2.02,1.85-3.01,2.9-.18.18-.35.35-.51.53-.42.44-.81.88-1.21,1.32-1.3,1.45-2.57,3.01-3.83,4.71-.33.44-.66.9-.99,1.34-.46.62-.9,1.25-1.34,1.91-.53.79-1.06,1.58-1.58,2.4-.33.51-.66,1.01-.97,1.54-.33.51-.64,1.03-.97,1.56s-.64,1.06-.95,1.61c-.09.15-.18.29-.24.44-.37.64-.75,1.3-1.1,1.96-.88,1.56-1.74,3.17-2.55,4.86-.26.48-.51.99-.75,1.5-.4.77-.77,1.56-1.14,2.35-.46.97-.92,1.96-1.36,2.97-.22.51-.44,1.01-.68,1.54-.4.88-.79,1.78-1.17,2.71-.37.9-.77,1.83-1.14,2.77-1.54,3.78-3.01,7.77-4.42,11.9-.33.95-.64,1.91-.97,2.9-.37,1.17-.77,2.35-1.14,3.54s-.75,2.4-1.1,3.61c-.37,1.21-.73,2.44-1.08,3.67-.44,1.54-.88,3.1-1.3,4.69-.44,1.58-.86,3.19-1.25,4.82-.22.86-.44,1.72-.64,2.6-.2.77-.37,1.54-.55,2.29-.4,1.65-.77,3.32-1.14,4.99-.46,2.16-.92,4.31-1.36,6.51-.29,1.36-.55,2.71-.79,4.07-.33,1.69-.64,3.39-.92,5.1-.15.79-.29,1.58-.42,2.4-.18,1.1-.37,2.2-.53,3.3-.57,3.52-1.1,7.11-1.56,10.71-.13.95-.26,1.89-.37,2.86-.4,3.26-.77,6.53-1.1,9.86-1.52,15.22-2.13,29.99-1.94,43.91.02.84.02,1.67.04,2.51,0,.84.02,1.65.07,2.49.04,1.65.11,3.3.18,4.93.07,1.56.13,3.1.22,4.62,0,.09,0,.15.02.22-.68-.04-1.39-.09-2.07-.15.51,57.64,5.72,114.93,15.93,165.33,58.54,1.01,114.33-13.35,162.65-39.62,1.54-2.02,3.04-4.07,4.51-6.16v-.02c-2.97-2.42-7.08-5.48-13.05-9.57-19.1-13.16-25.76-25.21-16.68-37.27,2.27-3.01,5.35-6.01,9.02-8.93-23.17-34.41-10.14-42.88,8.03-50.09,16.02-6.38,40.26-5.13,57.31-3.85m-31.88,124.37c-.07.09-.13.18-.24.24-.55.59-1.12,1.19-1.69,1.78-.84.9-1.72,1.8-2.62,2.68-2.42,2.46-4.93,4.86-7.48,7.22-.77.73-1.56,1.45-2.35,2.16-1.12,1.01-2.27,2.02-3.39,2.99-1.74,1.52-3.48,2.99-5.26,4.42-1.23,1.01-2.49,2.02-3.74,3.01-1.52,1.19-3.06,2.38-4.62,3.54-.04.02-.07.04-.11.09-1.52,1.12-3.06,2.24-4.6,3.34-1.36.99-2.73,1.94-4.11,2.86-1.83,1.28-3.67,2.51-5.57,3.7-1.63,1.06-3.28,2.09-4.95,3.1-1.39.84-2.75,1.67-4.16,2.46-2,1.19-4.03,2.31-6.07,3.43-1.23.66-2.46,1.32-3.7,1.96-.97.51-1.94,1.01-2.93,1.5-3.28,1.67-6.62,3.26-9.99,4.75-1.14.53-2.31,1.03-3.48,1.52-2,.88-4.03,1.72-6.05,2.51-1.03.42-2.07.84-3.12,1.21-.48.22-.97.4-1.45.55-.84.33-1.67.64-2.51.92-.92.35-1.87.7-2.82,1.01-2.11.75-4.22,1.45-6.36,2.11-1.03.33-2.07.66-3.1.97-.62.2-1.23.37-1.87.55l-2.71.79c-1.61.44-3.21.88-4.84,1.3-2.13.55-4.27,1.08-6.42,1.56-2.13.48-4.31.97-6.47,1.39-2.18.44-4.36.84-6.56,1.23-3.28.57-6.6,1.06-9.92,1.5l-.46.07c-2.07.24-4.14.48-6.23.7-2.2.22-4.38.42-6.6.57-.11.02-.22.02-.35.04-1.06.07-2.11.13-3.19.2-2.27.13-4.53.24-6.82.31-2.6.09-5.24.13-7.85.13-14.96,0-29.61-1.36-43.82-3.96-4.2-.75-8.38-1.63-12.52-2.62h-.02c-34.89-8.29-66.86-24.11-94.09-45.67-.95-.75-1.87-1.5-2.79-2.24-.15-.13-.31-.26-.46-.37-.66-.55-1.32-1.08-1.96-1.63-.86-.7-1.72-1.43-2.55-2.16-.15-.13-.29-.26-.44-.37-1.03-.9-2.05-1.8-3.06-2.73-.51-.44-1.01-.88-1.52-1.34-.37-.33-.73-.66-1.1-1.01-.13-.11-.29-.24-.42-.37l-.13-.13c-1.17-1.08-2.31-2.16-3.45-3.26-.09-.07-.18-.15-.24-.22-.99-.95-1.96-1.89-2.9-2.86-.15-.15-.33-.31-.48-.48-1.23-1.23-2.44-2.49-3.65-3.74-.57-.62-1.17-1.23-1.74-1.85-.62-.64-1.21-1.3-1.8-1.96-.55-.62-1.12-1.23-1.67-1.85-2.05-2.27-4.05-4.58-5.98-6.93-.44-.53-.86-1.03-1.25-1.54-.07-.04-.11-.09-.13-.13-.15-.18-.29-.35-.42-.53-.75-.9-1.5-1.83-2.22-2.75-.42-.55-.86-1.1-1.28-1.65-.84-1.06-1.65-2.13-2.44-3.21-.29-.37-.57-.75-.84-1.12-.55-.75-1.1-1.5-1.63-2.24-.64-.86-1.25-1.72-1.85-2.6-.07-.07-.13-.15-.18-.24-.13-.18-.26-.35-.37-.55-1.56-2.22-3.08-4.49-4.55-6.78-.2-.29-.37-.57-.57-.88-.09-.13-.18-.29-.26-.44-.04-.04-.07-.09-.11-.15-.11-.18-.22-.33-.33-.51-.09-.13-.15-.29-.24-.42-.04-.04-.04-.07-.04-.09-.35-.53-.68-1.06-1.01-1.58-.46-.75-.92-1.5-1.39-2.24-.86-1.43-1.69-2.86-2.53-4.31-.09-.15-.18-.33-.26-.48m413.31,13.22s-.02.07-.07.11m-2.44-2.18c-5.5-4.64-10.58-10.03-14.81-15.64m-198.77-52.45c.46,2.68.97,5.28,1.52,7.81-.53-2.53-1.03-5.13-1.52-7.81Zm101.97-105.86c.15-4.33.22-8.62.22-12.83,0,4.22-.09,8.49-.22,12.83Z"/>
    <path class="cls-1" d="m724.1,328.16c.07,3.72.07,7.46,0,11.24-.2,11.64-.86,22.92-1.96,33.75.33-15.09.99-30.14,1.96-44.99Z"/>
    <path class="cls-1" d="m729,445.45c-.55-2.53-1.06-5.13-1.52-7.81.48,2.68.99,5.28,1.52,7.81Z"/>
    <path class="cls-1" d="m829.68,318.95c0,4.2-.07,8.49-.22,12.83.13-4.33.22-8.6.22-12.83Z"/>
    <path class="cls-1" d="m829.46,331.77c.15-4.33.22-8.62.22-12.83,0,4.22-.09,8.49-.22,12.83Zm-101.97,105.86c.46,2.68.97,5.28,1.52,7.81-.53-2.53-1.03-5.13-1.52-7.81Zm93.32-35.86c-.02.18-.07.33-.09.48.04-.15.07-.31.11-.48h-.02Zm-199.54-64.04c.66-40.7,7.26-77.37,17.36-103.44,5.06-13.11,11.02-23.56,17.56-30.47,5.9-6.25,12.25-9.64,18.83-9.53,12.43.2,23.61,12.76,32.16,33.51,10.08,24.4,16.48,60.13,16.92,100.36-.97,14.85-1.63,29.9-1.96,44.99-1.19,11.48-2.84,22.42-4.91,32.63-9.31,46.09-27.02,77.37-46.88,77.04-3.92-.07-7.72-1.34-11.35-3.74-17.23-11.35-30.69-47.41-35.66-94.2h-.02c-1.58-14.81-2.31-30.65-2.05-47.15Zm360.51,5.5c-.15-1.3-.33-2.6-.51-3.89-.09-.53-.15-1.08-.24-1.61-.24-1.58-.48-3.17-.77-4.73,0-.09-.02-.2-.04-.29-.33-1.89-.66-3.76-1.03-5.63-.4-1.96-.79-3.92-1.23-5.85-.42-1.96-.88-3.89-1.36-5.81-7.11,6.29-13.84,13.66-18.63,19.54-2.57,3.17-4.42,6.53-6.67,9.46.15,1.43.31,2.88.44,4.33.95,10.03,1.34,20.22,1.14,30.56-.02,1.06-.04,2.13-.09,3.19.55-.15,1.1-.31,1.63-.44,1.85-.48,3.61-.86,5.26-1.12-6.69-14.87.48-36.06,20.31-36.06.68,0,1.36.02,2.02.07-.07-.57-.13-1.14-.22-1.72Z"/>
    <path class="cls-1" d="m900.3,190.86c-4.33,3.32-8.76,6.49-13.27,9.5-22.15,14.72-46.51,25.45-72.12,31.42-.64-1.34-1.3-2.62-1.98-3.85-.26-.48-.53-.95-.79-1.41-.24-.46-.51-.92-.79-1.36-.26-.46-.55-.9-.84-1.32-.68-1.08-1.39-2.09-2.11-3.06-.46-.62-.92-1.21-1.41-1.78-.46-.57-.95-1.12-1.45-1.65s-.99-1.03-1.5-1.52-1.01-.95-1.52-1.36c-.26-.22-.53-.44-.79-.64-.37-.29-.75-.57-1.12-.81-.31-.24-.64-.46-.97-.64-.31-.2-.59-.37-.9-.55-.35-.2-.68-.37-1.03-.55-.31-.15-.59-.31-.9-.44-.4-.18-.79-.35-1.21-.48-.2-.09-.4-.15-.62-.22-.22-.09-.44-.15-.64-.2-.22-.07-.42-.13-.64-.18-.37-.11-.77-.2-1.15-.26-.57-.11-1.14-.2-1.72-.26-1.8-.18-3.63-.09-5.43.26-.22.02-.44.07-.66.13-.35.07-.7.15-1.06.26-.73.18-1.43.42-2.16.7-.18.07-.35.15-.55.22-1.03.42-2.07.92-3.1,1.52-.35.2-.7.4-1.03.62-.55.33-1.08.68-1.61,1.06-.29.2-.55.4-.84.59-.59.42-1.17.88-1.76,1.39-.37.31-.75.64-1.12.97-1.01.88-2.02,1.85-3.01,2.9-.18.18-.35.35-.51.53-.42.44-.81.88-1.21,1.32-1.3,1.45-2.57,3.01-3.83,4.71-.33.44-.66.9-.99,1.34-.46.62-.9,1.25-1.34,1.91-.53.79-1.06,1.58-1.58,2.4-.33.51-.66,1.01-.97,1.54-.33.51-.64,1.03-.97,1.56s-.64,1.06-.95,1.61c-4.97-.31-9.97-.79-14.96-1.45-2.09-.29-4.16-.59-6.2-.95-9.53-1.54-18.81-3.76-27.83-6.58-8.56-20.75-19.73-33.31-32.16-33.51-6.58-.11-12.94,3.28-18.83,9.53-9.68-6.27-18.88-13.33-27.48-21.08-5.35-4.82-10.47-9.9-15.36-15.25,22.44-13.9,47.32-24.27,73.88-30.25h.02c17.29-3.92,35.27-5.98,53.75-5.98,1.78,0,3.59.02,5.37.07,3.59.07,7.15.22,10.69.46,1.74.11,3.48.24,5.21.4,1.69.15,3.37.31,5.04.48,1.23.13,2.46.29,3.7.44,2.88.35,5.76.75,8.62,1.21,2.29.37,4.55.77,6.82,1.21,1.12.2,2.22.42,3.32.64.88.18,1.74.37,2.6.55,1.41.31,2.82.62,4.2.95,39.05,9.13,74.47,27.72,103.73,53.2Z"/>
    <path class="cls-1" d="m829.46,331.77c.13-4.33.22-8.6.22-12.83,0,4.2-.07,8.49-.22,12.83Z"/>
    <path class="cls-1" d="m900.3,190.86c-4.33,3.32-8.76,6.49-13.27,9.5-22.15,14.72-46.51,25.45-72.12,31.42-.64-1.34-1.3-2.62-1.98-3.85-.26-.48-.53-.95-.79-1.41-.24-.46-.51-.92-.79-1.36-.26-.46-.55-.9-.84-1.32-.68-1.08-1.39-2.09-2.11-3.06-.46-.62-.92-1.21-1.41-1.78-.46-.57-.95-1.12-1.45-1.65s-.99-1.03-1.5-1.52-1.01-.95-1.52-1.36c-.26-.22-.53-.44-.79-.64-.37-.29-.75-.57-1.12-.81-.31-.24-.64-.46-.97-.64-.31-.2-.59-.37-.9-.55-.35-.2-.68-.37-1.03-.55-.31-.15-.59-.31-.9-.44-.4-.18-.79-.35-1.21-.48-.2-.09-.4-.15-.62-.22-.22-.09-.44-.15-.64-.2-.22-.07-.42-.13-.64-.18-.37-.11-.77-.2-1.15-.26-.57-.11-1.14-.2-1.72-.26-1.8-.18-3.63-.09-5.43.26-.22.02-.44.07-.66.13-.35.07-.7.15-1.06.26-.73.18-1.43.42-2.16.7-.18.07-.35.15-.55.22-1.03.42-2.07.92-3.1,1.52-.35.2-.7.4-1.03.62-.55.33-1.08.68-1.61,1.06-.29.2-.55.4-.84.59-.59.42-1.17.88-1.76,1.39-.37.31-.75.64-1.12.97-1.01.88-2.02,1.85-3.01,2.9-.18.18-.35.35-.51.53-.42.44-.81.88-1.21,1.32-1.3,1.45-2.57,3.01-3.83,4.71-.33.44-.66.9-.99,1.34-.46.62-.9,1.25-1.34,1.91-.53.79-1.06,1.58-1.58,2.4-.33.51-.66,1.01-.97,1.54-.33.51-.64,1.03-.97,1.56s-.64,1.06-.95,1.61c-.09.15-.18.29-.24.44-.37.64-.75,1.3-1.1,1.96-.88,1.56-1.74,3.17-2.55,4.86-.26.48-.51.99-.75,1.5-.4.77-.77,1.56-1.14,2.35-.46.97-.92,1.96-1.36,2.97-.22.51-.44,1.01-.68,1.54-.4.88-.79,1.78-1.17,2.71-.37.9-.77,1.83-1.14,2.77-1.54,3.78-3.01,7.77-4.42,11.9-.33.95-.64,1.91-.97,2.9-.37,1.17-.77,2.35-1.14,3.54-.37,1.19-.75,2.4-1.1,3.61-.37,1.21-.73,2.44-1.08,3.67-.44,1.54-.88,3.1-1.3,4.69-.44,1.58-.86,3.19-1.25,4.82-.22.86-.44,1.72-.64,2.6-.2.77-.37,1.54-.55,2.29-.4,1.65-.77,3.32-1.14,4.99-.46,2.16-.92,4.31-1.36,6.51-.29,1.36-.55,2.71-.79,4.07-.33,1.69-.64,3.39-.92,5.1-.15.79-.29,1.58-.42,2.4-.18,1.1-.37,2.2-.53,3.3-.57,3.52-1.1,7.11-1.56,10.71-.13.95-.26,1.89-.37,2.86-.4,3.26-.77,6.53-1.1,9.86-1.52,15.22-2.13,29.99-1.94,43.91.02.84.02,1.67.04,2.51,0,.84.02,1.65.07,2.49.04,1.65.11,3.3.18,4.93.07,1.56.13,3.1.22,4.62,0,.09,0,.15.02.22-.68-.04-1.39-.09-2.07-.15-1.56-.13-3.1-.26-4.66-.44,2.07-10.21,3.72-21.14,4.91-32.63.33-15.09.99-30.14,1.96-44.99-.44-40.24-6.84-75.97-16.92-100.36-8.56-20.75-19.73-33.31-32.16-33.51-6.58-.11-12.94,3.28-18.83,9.53-6.53,6.91-12.5,17.36-17.56,30.47-10.1,26.07-16.7,62.74-17.36,103.44-.26,16.5.46,32.34,2.05,47.15-24.57-8.8-47.56-19.93-68.68-33.04-1.69-1.06-3.39-2.11-5.06-3.19-15.88-10.19-30.6-21.52-44.04-33.79v-.02h-.02s.02-.07.04-.09c-.02-.02,0-.02,0-.04.07-.29.13-.59.22-.88.18-.75.37-1.52.59-2.27.2-.79.42-1.56.64-2.35.18-.68.37-1.36.57-2.05.55-1.98,1.15-3.94,1.76-5.9.31-.99.62-1.98.95-2.97.2-.62.42-1.23.62-1.85.4-1.21.81-2.4,1.25-3.56.24-.75.51-1.5.79-2.22,0-.04.02-.09.04-.13.22-.64.46-1.25.7-1.87.79-2.16,1.63-4.31,2.51-6.42.24-.62.48-1.21.75-1.8.26-.64.53-1.28.79-1.89.11-.26.22-.53.35-.79.11-.31.24-.59.37-.9,1.52-3.45,3.1-6.86,4.77-10.23.15-.33.31-.64.48-.97.22-.46.44-.9.68-1.34.33-.68.68-1.36,1.03-2.02.7-1.36,1.43-2.73,2.18-4.07.04-.11.11-.24.2-.35,1.03-1.94,2.11-3.85,3.23-5.74v-.02s.02-.04.02-.04c.18-.29.33-.57.51-.86.22-.37.42-.75.64-1.1.88-1.47,1.76-2.9,2.66-4.36.09-.13.15-.24.24-.37.37-.62.77-1.23,1.17-1.85.4-.62.79-1.23,1.19-1.85.9-1.39,1.83-2.75,2.75-4.11.73-1.08,1.45-2.13,2.2-3.19.2-.31.4-.59.62-.88.18-.26.37-.51.55-.77.7-.97,1.39-1.91,2.09-2.86.75-1.01,1.52-2.02,2.29-3.04.07-.09.15-.2.22-.29.33-.46.7-.92,1.06-1.36.9-1.19,1.83-2.35,2.77-3.52,2.07-2.55,4.18-5.08,6.36-7.55l.4-.46c.88-1.01,1.76-1.98,2.66-2.97.09-.09.15-.18.24-.24.81-.9,1.63-1.8,2.46-2.68.22-.22.44-.46.64-.68.2-.2.4-.4.57-.59.48-.53.99-1.03,1.47-1.54t.04-.02c.11-.11.22-.22.31-.33.07-.07.11-.13.18-.2l.51-.51c1.25-1.28,2.53-2.53,3.81-3.78h.02c.09-.11.2-.2.29-.31.09-.07.15-.13.24-.22.11-.11.24-.24.35-.35.09-.09.2-.18.29-.29.09-.09.2-.18.29-.26.24-.22.51-.48.77-.73.44-.42.9-.84,1.36-1.28.09-.09.18-.18.29-.26,1.21-1.12,2.42-2.24,3.65-3.32.33-.33.68-.64,1.03-.92.84-.75,1.69-1.5,2.53-2.22.04-.04.09-.09.13-.11.81-.7,1.61-1.39,2.42-2.05.46-.4.9-.77,1.36-1.14.2-.15.4-.33.59-.48.15-.13.31-.24.46-.37.92-.75,1.85-1.5,2.79-2.24,7.28-5.76,14.89-11.11,22.81-16.02,22.44-13.9,47.32-24.27,73.88-30.25h.02c17.29-3.92,35.27-5.98,53.75-5.98,1.78,0,3.59.02,5.37.07,3.59.07,7.15.22,10.69.46,1.74.11,3.48.24,5.21.4,1.69.15,3.37.31,5.04.48,1.23.13,2.46.29,3.7.44,2.88.35,5.76.75,8.62,1.21,2.29.37,4.55.77,6.82,1.21,1.12.2,2.22.42,3.32.64.88.18,1.74.37,2.6.55,1.41.31,2.82.62,4.2.95,39.05,9.13,74.47,27.72,103.73,53.2Z"/>
    <path class="cls-1" d="m979.19,327.09c-8.6,7.72-17.78,14.96-27.46,21.67-.13-1.45-.29-2.9-.44-4.33,2.24-2.93,4.09-6.29,6.67-9.46,4.8-5.87,11.53-13.24,18.63-19.54.48,1.91.95,3.85,1.36,5.81.44,1.94.84,3.89,1.23,5.85Z"/>
    <path class="cls-1" d="m829.46,331.77c.15-4.33.22-8.62.22-12.83,0,4.22-.09,8.49-.22,12.83Zm-101.97,105.86c.46,2.68.97,5.28,1.52,7.81-.53-2.53-1.03-5.13-1.52-7.81Zm93.32-35.86c-.02.18-.07.33-.09.48.04-.15.07-.31.11-.48h-.02Zm-322.52-33.26c0,.24-.02.48-.02.73,0,.55-.02,1.1-.02,1.65,0-.2,0-.37.02-.57,0-.79.02-1.56.04-2.35-.02.2-.02.37-.02.55Zm.81,26.05c-.02-.26-.04-.53-.07-.79,0,.22.02.46.04.7,0,.13.02.26.04.4-.02-.11-.02-.22-.02-.31Zm31.15,100.01c.09.15.18.33.26.48t.04.02c-.09-.18-.2-.35-.31-.51Zm266.31-356.91c-1.39-.33-2.79-.64-4.2-.95-.86-.18-1.72-.37-2.6-.55-1.1-.22-2.2-.44-3.32-.64-2.27-.44-4.53-.84-6.82-1.21-2.86-.46-5.74-.86-8.62-1.21-1.23-.15-2.46-.31-3.7-.44-1.67-.18-3.35-.33-5.04-.48-1.74-.15-3.48-.29-5.21-.4-3.54-.24-7.11-.4-10.69-.46-1.78-.04-3.59-.07-5.37-.07-18.48,0-36.45,2.07-53.75,5.98h-.02c-26.55,5.98-51.44,16.35-73.88,30.25-7.92,4.91-15.53,10.25-22.81,16.02-.95.75-1.87,1.5-2.79,2.24-.15.13-.31.24-.46.37-.2.15-.4.33-.59.48-.46.37-.9.75-1.36,1.14-.81.66-1.61,1.34-2.42,2.05-.04.02-.09.07-.13.11-.84.73-1.69,1.47-2.53,2.22-.35.29-.7.59-1.03.92-1.23,1.08-2.44,2.2-3.65,3.32-.11.09-.2.18-.29.26-.46.44-.92.86-1.36,1.28-.26.24-.53.51-.77.73-.09.09-.2.18-.29.26-.09.11-.2.2-.29.29-.11.11-.24.24-.35.35-.09.09-.15.15-.24.22-.09.11-.2.2-.29.31h-.02c-1.28,1.25-2.55,2.51-3.81,3.78l-.51.51c-.07.07-.11.13-.18.2-.09.11-.2.22-.31.33t-.04.02c-.48.51-.99,1.01-1.47,1.54-.18.2-.37.4-.57.59-.2.22-.42.46-.64.68-.84.88-1.65,1.78-2.46,2.68-.09.07-.15.15-.24.24-.9.99-1.78,1.96-2.66,2.97l-.4.46c-2.18,2.46-4.29,4.99-6.36,7.55-.95,1.17-1.87,2.33-2.77,3.52-.35.44-.73.9-1.06,1.36-.07.09-.15.2-.22.29-.77,1.01-1.54,2.02-2.29,3.04-.7.95-1.39,1.89-2.09,2.86-.18.26-.37.51-.55.77-.22.29-.42.57-.62.88-.75,1.06-1.47,2.11-2.2,3.19-.92,1.36-1.85,2.73-2.75,4.11-.4.62-.79,1.23-1.19,1.85-.4.62-.79,1.23-1.17,1.85-.09.13-.15.24-.24.37-.9,1.45-1.78,2.88-2.66,4.36-.22.35-.42.73-.64,1.1-.18.29-.33.57-.51.86,0,0-.02.02-.02.04v.02c-1.12,1.89-2.2,3.81-3.23,5.74-.09.11-.15.24-.2.35-.75,1.34-1.47,2.71-2.18,4.07-.35.66-.7,1.34-1.03,2.02-.24.44-.46.88-.68,1.34-.18.33-.33.64-.48.97-1.67,3.37-3.26,6.78-4.77,10.23-.13.31-.26.59-.37.9-.13.26-.24.53-.35.79-.26.62-.53,1.25-.79,1.89-.26.59-.51,1.19-.75,1.8-.88,2.11-1.72,4.27-2.51,6.42-.24.62-.48,1.23-.7,1.87-.02.04-.04.09-.04.13-.29.73-.55,1.47-.79,2.22-.44,1.17-.86,2.35-1.25,3.56-.2.62-.42,1.23-.62,1.85-.33.99-.64,1.98-.95,2.97-.62,1.96-1.21,3.92-1.76,5.9-.2.68-.4,1.36-.57,2.05-.22.79-.44,1.56-.64,2.35-.22.75-.42,1.52-.59,2.27-.09.29-.15.59-.22.88,0,.02-.02.02,0,.04-.02.02-.02.07-.04.09-.05.18-.09.33-.11.51.04-.15.09-.33.13-.48,13.44,12.28,28.16,23.61,44.04,33.79-.13,3.76-.22,7.57-.22,11.46,0,76.03,23.39,137.5,64.77,185.61,26.49,11.07,54.96,18.9,84.88,22.88,13.05,1.74,26,2.71,38.83,2.95-10.21-50.4-15.42-107.69-15.93-165.33.68.07,1.39.11,2.07.15-.02-.07-.02-.13-.02-.22-.09-1.52-.15-3.06-.22-4.62-.07-1.63-.13-3.28-.18-4.93-.04-.84-.07-1.65-.07-2.49-.02-.84-.02-1.67-.04-2.51-.2-13.93.42-28.69,1.94-43.91.33-3.32.7-6.6,1.1-9.86.11-.97.24-1.91.37-2.86.46-3.61.99-7.19,1.56-10.71.15-1.1.35-2.2.53-3.3.13-.81.26-1.61.42-2.4.29-1.72.59-3.41.92-5.1.24-1.36.51-2.71.79-4.07.44-2.2.9-4.36,1.36-6.51.37-1.67.75-3.34,1.14-4.99.18-.75.35-1.52.55-2.29.2-.88.42-1.74.64-2.6.4-1.63.81-3.23,1.25-4.82.42-1.58.86-3.15,1.3-4.69.35-1.23.7-2.46,1.08-3.67.35-1.21.73-2.42,1.1-3.61.37-1.19.77-2.38,1.14-3.54.33-.99.64-1.96.97-2.9,1.41-4.14,2.88-8.12,4.42-11.9.37-.95.77-1.87,1.14-2.77.37-.92.77-1.83,1.17-2.71.24-.53.46-1.03.68-1.54.44-1.01.9-2,1.36-2.97.37-.79.75-1.58,1.14-2.35.24-.51.48-1.01.75-1.5.81-1.69,1.67-3.3,2.55-4.86.35-.66.73-1.32,1.1-1.96.07-.15.15-.29.24-.44.31-.55.62-1.08.95-1.61s.64-1.06.97-1.56c.31-.53.64-1.03.97-1.54.53-.81,1.05-1.61,1.58-2.4.44-.66.88-1.3,1.34-1.91.33-.44.66-.9.99-1.34,1.25-1.69,2.53-3.26,3.83-4.71.4-.44.79-.88,1.21-1.32.15-.18.33-.35.51-.53.99-1.06,2-2.02,3.01-2.9.37-.33.75-.66,1.12-.97.59-.51,1.17-.97,1.76-1.39.29-.2.55-.4.84-.59.53-.37,1.06-.73,1.61-1.06.33-.22.68-.42,1.03-.62,1.03-.59,2.07-1.1,3.1-1.52.2-.07.37-.15.55-.22.73-.29,1.43-.53,2.16-.7.35-.11.7-.2,1.06-.26.22-.07.44-.11.66-.13,1.8-.35,3.63-.44,5.43-.26.57.07,1.14.15,1.72.26.37.07.77.15,1.15.26.22.04.42.11.64.18.2.04.42.11.64.2.22.07.42.13.62.22.42.13.81.31,1.21.48.31.13.59.29.9.44.35.18.68.35,1.03.55.31.18.59.35.9.55.33.18.66.4.97.64.37.24.75.53,1.12.81.26.2.53.42.79.64.51.42,1.01.88,1.52,1.36s.99.99,1.5,1.52.99,1.08,1.45,1.65c.48.57.95,1.17,1.41,1.78.73.97,1.43,1.98,2.11,3.06.29.42.57.86.84,1.32.29.44.55.9.79,1.36.26.46.53.92.79,1.41.68,1.23,1.34,2.51,1.98,3.85,25.61-5.96,49.96-16.7,72.12-31.42,4.51-3.01,8.93-6.18,13.27-9.5-29.26-25.48-64.68-44.07-103.73-53.2Zm-74.43,235.49c-1.19,11.48-2.84,22.42-4.91,32.63-9.31,46.09-27.02,77.37-46.88,77.04-3.92-.07-7.72-1.34-11.35-3.74-17.23-11.35-30.69-47.41-35.66-94.2h-.02c-1.58-14.81-2.31-30.65-2.05-47.15.66-40.7,7.26-77.37,17.36-103.44,5.06-13.11,11.02-23.56,17.56-30.47,5.9-6.25,12.25-9.64,18.83-9.53,12.43.2,23.61,12.76,32.16,33.51,10.08,24.4,16.48,60.13,16.92,100.36-.97,14.85-1.63,29.9-1.96,44.99Zm218.92,132.57c-5.5-4.64-10.58-10.03-14.81-15.64m23.36-74.05c-17.05-1.28-41.29-2.53-57.31,3.85-18.17,7.22-31.2,15.69-8.03,50.09-3.67,2.93-6.75,5.92-9.02,8.93-9.09,12.06-2.42,24.11,16.68,37.27,5.96,4.09,10.08,7.15,13.05,9.57v.02c-1.47,2.09-2.97,4.14-4.51,6.16,2.4-1.3,4.75-2.62,7.11-3.98m74.21-184.71c-.15-1.3-.33-2.6-.51-3.89-.09-.53-.15-1.08-.24-1.61-.24-1.58-.48-3.17-.77-4.73,0-.09-.02-.2-.04-.29-.33-1.89-.66-3.76-1.03-5.63-.4-1.96-.79-3.92-1.23-5.85-.42-1.96-.88-3.89-1.36-5.81-7.11,6.29-13.84,13.66-18.63,19.54-2.57,3.17-4.42,6.53-6.67,9.46.15,1.43.31,2.88.44,4.33.95,10.03,1.34,20.22,1.14,30.56-.02,1.06-.04,2.13-.09,3.19.55-.15,1.1-.31,1.63-.44,1.85-.48,3.61-.86,5.26-1.12-6.69-14.87.48-36.06,20.31-36.06.68,0,1.36.02,2.02.07-.07-.57-.13-1.14-.22-1.72Z"/>
    <path class="cls-1" d="m727.49,437.64c.46,2.68.97,5.28,1.52,7.81-.53-2.53-1.03-5.13-1.52-7.81Zm93.32-35.86c-.02.18-.07.33-.09.48.04-.15.07-.31.11-.48h-.02Zm-322.52-33.26c0,.24-.02.48-.02.73,0,.55-.02,1.1-.02,1.65,0-.2,0-.37.02-.57,0-.79.02-1.56.04-2.35-.02.2-.02.37-.02.55Zm.81,26.05c-.02-.26-.04-.53-.07-.79,0,.22.02.46.04.7,0,.13.02.26.04.4-.02-.11-.02-.22-.02-.31Zm238.72,176.99c-10.21-50.4-15.42-107.69-15.93-165.33.68.07,1.39.11,2.07.15-.02-.07-.02-.13-.02-.22-.09-1.52-.15-3.06-.22-4.62-.07-1.63-.13-3.28-.18-4.93-.04-.84-.07-1.65-.07-2.49-.02-.84-.02-1.67-.04-2.51-.2-13.93.42-28.69,1.94-43.91.33-3.32.7-6.6,1.1-9.86.11-.97.24-1.91.37-2.86.46-3.61.99-7.19,1.56-10.71.15-1.1.35-2.2.53-3.3.13-.81.26-1.61.42-2.4.29-1.72.59-3.41.92-5.1.24-1.36.51-2.71.79-4.07.44-2.2.9-4.36,1.36-6.51.37-1.67.75-3.34,1.14-4.99.18-.75.35-1.52.55-2.29.2-.88.42-1.74.64-2.6.4-1.63.81-3.23,1.25-4.82.42-1.58.86-3.15,1.3-4.69.35-1.23.7-2.46,1.08-3.67.35-1.21.73-2.42,1.1-3.61.37-1.19.77-2.38,1.14-3.54.33-.99.64-1.96.97-2.9,1.41-4.14,2.88-8.12,4.42-11.9.37-.95.77-1.87,1.14-2.77.37-.92.77-1.83,1.17-2.71.24-.53.46-1.03.68-1.54.44-1.01.9-2,1.36-2.97.37-.79.75-1.58,1.14-2.35.24-.51.48-1.01.75-1.5.81-1.69,1.67-3.3,2.55-4.86.35-.66.73-1.32,1.1-1.96.07-.15.15-.29.24-.44.31-.55.62-1.08.95-1.61s.64-1.06.97-1.56c.31-.53.64-1.03.97-1.54.53-.81,1.05-1.61,1.58-2.4.44-.66.88-1.3,1.34-1.91.33-.44.66-.9.99-1.34,1.25-1.69,2.53-3.26,3.83-4.71.4-.44.79-.88,1.21-1.32.15-.18.33-.35.51-.53.99-1.06,2-2.02,3.01-2.9.37-.33.75-.66,1.12-.97.59-.51,1.17-.97,1.76-1.39.29-.2.55-.4.84-.59.53-.37,1.06-.73,1.61-1.06.33-.22.68-.42,1.03-.62,1.03-.59,2.07-1.1,3.1-1.52.2-.07.37-.15.55-.22.73-.29,1.43-.53,2.16-.7.35-.11.7-.2,1.06-.26.22-.07.44-.11.66-.13,1.8-.35,3.63-.44,5.43-.26.57.07,1.14.15,1.72.26.37.07.77.15,1.15.26.22.04.42.11.64.18.2.04.42.11.64.2.22.07.42.13.62.22.42.13.81.31,1.21.48.31.13.59.29.9.44.35.18.68.35,1.03.55.31.18.59.35.9.55.33.18.66.4.97.64.37.24.75.53,1.12.81.26.2.53.42.79.64.51.42,1.01.88,1.52,1.36s.99.99,1.5,1.52.99,1.08,1.45,1.65c.48.57.95,1.17,1.41,1.78.73.97,1.43,1.98,2.11,3.06.29.42.57.86.84,1.32.29.44.55.9.79,1.36.26.46.53.92.79,1.41.68,1.23,1.34,2.51,1.98,3.85,25.61-5.96,49.96-16.7,72.12-31.42-24.9-27.61-55.77-49.28-90.46-62.7-1.39-.33-2.79-.64-4.2-.95-.86-.18-1.72-.37-2.6-.55-1.1-.22-2.2-.44-3.32-.64-2.27-.44-4.53-.84-6.82-1.21-2.86-.46-5.74-.86-8.62-1.21-1.23-.15-2.46-.31-3.7-.44-1.67-.18-3.35-.33-5.04-.48-1.74-.15-3.48-.29-5.21-.4-3.54-.24-7.11-.4-10.69-.46-1.78-.04-3.59-.07-5.37-.07-18.48,0-36.45,2.07-53.75,5.98h-.02c-26.55,5.98-51.44,16.35-73.88,30.25-7.92,4.91-15.53,10.25-22.81,16.02-.95.75-1.87,1.5-2.79,2.24-.15.13-.31.24-.46.37-.2.15-.4.33-.59.48-.46.37-.9.75-1.36,1.14-.81.66-1.61,1.34-2.42,2.05-.04.02-.09.07-.13.11-.84.73-1.69,1.47-2.53,2.22-.35.29-.7.59-1.03.92-1.23,1.08-2.44,2.2-3.65,3.32-.11.09-.2.18-.29.26-.46.44-.92.86-1.36,1.28-.26.24-.53.51-.77.73-.09.09-.2.18-.29.26-.09.11-.2.2-.29.29-.11.11-.24.24-.35.35-.09.09-.15.15-.24.22-.09.11-.2.2-.29.31h-.02c-1.28,1.25-2.55,2.51-3.81,3.78l-.51.51c-.07.07-.11.13-.18.2-.09.11-.2.22-.31.33t-.04.02c-.48.51-.99,1.01-1.47,1.54-.18.2-.37.4-.57.59-.2.22-.42.46-.64.68-.84.88-1.65,1.78-2.46,2.68-.09.07-.15.15-.24.24-.9.99-1.78,1.96-2.66,2.97l-.4.46c-2.18,2.46-4.29,4.99-6.36,7.55-.95,1.17-1.87,2.33-2.77,3.52-.35.44-.73.9-1.06,1.36-.07.09-.15.2-.22.29-.77,1.01-1.54,2.02-2.29,3.04-.7.95-1.39,1.89-2.09,2.86-.18.26-.37.51-.55.77-.22.29-.42.57-.62.88-.75,1.06-1.47,2.11-2.2,3.19-.92,1.36-1.85,2.73-2.75,4.11-.4.62-.79,1.23-1.19,1.85-.4.62-.79,1.23-1.17,1.85-.09.13-.15.24-.24.37-.9,1.45-1.78,2.88-2.66,4.36-.22.35-.42.73-.64,1.1-.18.29-.33.57-.51.86,0,0-.02.02-.02.04v.02c-1.12,1.89-2.2,3.81-3.23,5.74-.09.11-.15.24-.2.35-.75,1.34-1.47,2.71-2.18,4.07-.35.66-.7,1.34-1.03,2.02-.24.44-.46.88-.68,1.34-.18.33-.33.64-.48.97-1.67,3.37-3.26,6.78-4.77,10.23-.13.31-.26.59-.37.9-.13.26-.24.53-.35.79-.26.62-.53,1.25-.79,1.89-.26.59-.51,1.19-.75,1.8-.88,2.11-1.72,4.27-2.51,6.42-.24.62-.48,1.23-.7,1.87-.02.04-.04.09-.04.13-.29.73-.55,1.47-.79,2.22-.44,1.17-.86,2.35-1.25,3.56-.2.62-.42,1.23-.62,1.85-.33.99-.64,1.98-.95,2.97-.62,1.96-1.21,3.92-1.76,5.9-.2.68-.4,1.36-.57,2.05-.22.79-.44,1.56-.64,2.35-.22.75-.42,1.52-.59,2.27-.09.29-.15.59-.22.88,0,.02-.02.02,0,.04-.02.02-.02.07-.04.09-.05.18-.09.33-.11.51.04-.15.09-.33.13-.48,13.44,12.28,28.16,23.61,44.04,33.79-.13,3.76-.22,7.57-.22,11.46,0,76.03,23.39,137.5,64.77,185.61-1.69-.7-3.37-1.43-5.04-2.16-28.75-12.54-55.13-28.95-78.5-48.44l-.02-.04c-.09-.18-.2-.35-.31-.51.09.15.18.33.26.48.84,1.45,1.67,2.88,2.53,4.31.46.75.92,1.5,1.39,2.24.33.53.66,1.06,1.01,1.58,0,.02,0,.04.04.09.09.13.15.29.24.42.11.18.22.33.33.51.04.07.07.11.11.15.09.15.18.31.26.44.2.31.37.59.57.88,1.47,2.29,2.99,4.55,4.55,6.78.11.2.24.37.37.55.04.09.11.18.18.24.59.88,1.21,1.74,1.85,2.6.53.75,1.08,1.5,1.63,2.24.26.37.55.75.84,1.12.79,1.08,1.61,2.16,2.44,3.21.42.55.86,1.1,1.28,1.65.73.92,1.47,1.85,2.22,2.75.13.18.26.35.42.53.02.04.07.09.13.13.4.51.81,1.01,1.25,1.54,1.94,2.35,3.94,4.66,5.98,6.93.55.62,1.12,1.23,1.67,1.85.59.66,1.19,1.32,1.8,1.96.57.62,1.17,1.23,1.74,1.85,1.21,1.25,2.42,2.51,3.65,3.74.15.18.33.33.48.48.95.97,1.91,1.91,2.9,2.86.07.07.15.15.24.22,1.14,1.1,2.29,2.18,3.45,3.26l.13.13c.13.13.29.26.42.37.37.35.73.68,1.1,1.01.51.46,1.01.9,1.52,1.34,1.01.92,2.02,1.83,3.06,2.73.15.11.29.24.44.37.84.73,1.69,1.45,2.55,2.16.64.55,1.3,1.08,1.96,1.63.15.11.31.24.46.37.92.75,1.85,1.5,2.79,2.24,27.24,21.56,59.2,37.38,94.09,45.67h.02c4.14.99,8.32,1.87,12.52,2.62,14.21,2.6,28.86,3.96,43.82,3.96,2.62,0,5.26-.04,7.85-.13,2.29-.07,4.55-.18,6.82-.31,1.08-.07,2.13-.13,3.19-.2.13-.02.24-.02.35-.04,2.22-.15,4.4-.35,6.6-.57,2.09-.22,4.16-.46,6.23-.7.15-.02.31-.04.46-.07,3.32-.44,6.64-.92,9.92-1.5,2.2-.4,4.38-.79,6.56-1.23,2.16-.42,4.33-.9,6.47-1.39,2.16-.48,4.29-1.01,6.42-1.56,38.87-16.35,72.8-43.14,98.6-77.15-48.31,26.27-104.1,40.63-162.65,39.62Zm-116.56-233.82c.66-40.7,7.26-77.37,17.36-103.44,5.06-13.11,11.02-23.56,17.56-30.47,5.9-6.25,12.25-9.64,18.83-9.53,12.43.2,23.61,12.76,32.16,33.51,10.08,24.4,16.48,60.13,16.92,100.36-.97,14.85-1.63,29.9-1.96,44.99-1.19,11.48-2.84,22.42-4.91,32.63-9.31,46.09-27.02,77.37-46.88,77.04-3.92-.07-7.72-1.34-11.35-3.74-17.23-11.35-30.69-47.41-35.66-94.2h-.02c-1.58-14.81-2.31-30.65-2.05-47.15Zm283.71,188.01c-2.97-2.42-7.08-5.48-13.05-9.57-19.1-13.16-25.76-25.21-16.68-37.27,2.27-3.01,5.35-6.01,9.02-8.93-23.17-34.41-10.14-42.88,8.03-50.09,16.02-6.38,40.26-5.13,57.31-3.85m-120.16-84.26c.15-4.33.22-8.62.22-12.83,0,4.22-.09,8.49-.22,12.83Z"/>
    <path class="cls-1" d="m614.12,545.72c-1.69-.7-3.37-1.43-5.04-2.16-28.75-12.54-55.13-28.95-78.5-48.44l-.02-.04c-.09-.18-.2-.35-.31-.51-.11-.15-.2-.33-.31-.51-.13-.22-.24-.44-.37-.68-.07-.11-.13-.22-.2-.33-.13-.24-.29-.48-.42-.75-.11-.2-.22-.4-.33-.62-.64-1.12-1.25-2.24-1.85-3.39-.09-.2-.2-.37-.31-.55-.09-.2-.2-.4-.29-.57-.86-1.61-1.69-3.21-2.51-4.84-.15-.31-.29-.62-.44-.9-1.67-3.37-3.26-6.78-4.77-10.23l-.13-.33c-.53-1.19-1.03-2.38-1.52-3.56-.07-.18-.15-.35-.24-.53,0-.02,0-.07-.02-.09-1.41-3.39-2.73-6.82-3.98-10.3-.42-1.17-.84-2.33-1.25-3.52-.11-.33-.22-.66-.33-.99-.07-.18-.13-.37-.2-.57-.04-.15-.09-.29-.13-.44-.22-.62-.42-1.25-.62-1.87-.11-.33-.22-.64-.31-.97-.09-.24-.15-.48-.24-.73-.11-.35-.22-.73-.33-1.08-.2-.64-.4-1.25-.57-1.89-.07-.15-.11-.31-.15-.46-.24-.79-.46-1.58-.7-2.4-.35-1.25-.7-2.51-1.06-3.78-.29-1.03-.55-2.09-.84-3.15-.07-.24-.13-.51-.2-.77l-.86-3.5v-.04c-.11-.44-.22-.9-.31-1.34-.22-.9-.42-1.83-.62-2.73-.13-.53-.24-1.06-.35-1.61-.04-.15-.07-.29-.09-.44-.51-2.31-.95-4.66-1.36-7.02-.18-.88-.33-1.78-.46-2.66-.24-1.36-.46-2.75-.66-4.11-.22-1.52-.44-3.06-.64-4.6-.15-1.1-.29-2.22-.42-3.34-.09-.59-.15-1.19-.2-1.8-.02-.09-.02-.18-.04-.26v-.09c-.04-.37-.09-.77-.11-1.17-.15-1.41-.29-2.79-.4-4.2-.02-.11-.02-.22-.02-.31-.02-.26-.04-.53-.07-.79-.18-1.96-.33-3.92-.42-5.9v-.13c-.07-.84-.11-1.67-.13-2.53-.09-1.63-.13-3.26-.18-4.91-.02-.7-.04-1.43-.04-2.18-.02-1.34-.05-2.68-.05-4.05v-.07c0-1.03,0-2.09.02-3.12,0-.2,0-.37.02-.57,0-.79.02-1.56.04-2.35v-.2c0-.75.05-1.52.07-2.29.07-1.78.13-3.59.24-5.37.02-.57.07-1.17.11-1.76.04-.84.11-1.67.18-2.51.04-.64.09-1.28.15-1.94.07-.95.15-1.89.24-2.82.09-1.17.22-2.33.35-3.48v-.04c.15-1.5.33-2.97.53-4.44.15-1.25.33-2.53.51-3.81.24-1.69.51-3.39.79-5.08.13-.79.26-1.58.4-2.38.42-2.4.88-4.8,1.36-7.17.4-1.85.79-3.67,1.21-5.48.2-.88.42-1.74.62-2.6.02-.13.07-.26.09-.37.09-.31.15-.59.24-.9.04-.15.09-.33.13-.48,13.44,12.28,28.16,23.61,44.04,33.79-.13,3.76-.22,7.57-.22,11.46,0,76.03,23.39,137.5,64.77,185.61Z"/>
    <path class="cls-1" d="m941.06,505.73c-5.5-4.64-10.58-10.03-14.8-15.64"/>
    <path class="cls-1" d="m949.62,416.03c-17.05-1.28-41.29-2.53-57.31,3.85-18.17,7.22-31.2,15.69-8.03,50.09-3.67,2.93-6.75,5.92-9.02,8.93-9.09,12.06-2.42,24.11,16.68,37.27,5.96,4.09,10.08,7.15,13.05,9.57v.02c-1.47,2.09-2.97,4.14-4.51,6.16-48.31,26.27-104.1,40.63-162.65,39.62-10.21-50.4-15.42-107.69-15.93-165.33.68.07,1.39.11,2.07.15.15,2.66.33,5.28.55,7.85.22,2.57.46,5.1.73,7.59.09.86.18,1.69.29,2.51,0,.18.02.33.07.51.18,1.47.37,2.93.57,4.36.37,2.88.81,5.7,1.32,8.45.46,2.68.97,5.28,1.52,7.81.44,2,.88,3.96,1.39,5.87.13.53.26,1.03.4,1.54.33,1.34.7,2.66,1.08,3.94.18.55.33,1.08.48,1.61.18.62.37,1.23.57,1.85.29.92.59,1.85.9,2.75s.62,1.78.95,2.66c.29.84.62,1.65.95,2.46.31.81.64,1.61.97,2.38.7,1.69,1.45,3.3,2.22,4.84.37.73.75,1.45,1.12,2.16.37.7.77,1.39,1.17,2.07.35.64.73,1.25,1.12,1.85,1.45,2.31,2.97,4.36,4.58,6.16.37.44.77.86,1.17,1.25.44.48.92.92,1.39,1.34.2.2.42.4.64.57.2.2.4.37.62.53.46.37.92.73,1.39,1.06.44.35.92.66,1.39.95.4.26.81.51,1.23.73.04.02.07.04.11.07.4.22.81.42,1.23.62.53.24,1.06.46,1.61.64.24.09.51.18.77.26.31.11.62.2.92.26.31.09.64.18.95.22.64.13,1.28.24,1.91.31,1.41.13,2.82.11,4.2-.07.29-.02.57-.07.84-.13.31-.04.64-.11.97-.18.48-.11.97-.22,1.43-.35.13-.02.24-.07.35-.11.46-.13.9-.29,1.34-.46.24-.09.51-.2.77-.31.35-.13.7-.29,1.03-.44.4-.2.79-.4,1.19-.59.35-.18.7-.37,1.06-.59.37-.2.75-.42,1.1-.66.35-.22.7-.44,1.03-.68.35-.22.68-.46,1.03-.73.35-.24.68-.51,1.01-.77.68-.53,1.34-1.1,2.02-1.72.35-.29.68-.59,1.01-.92,1.01-.92,2.02-1.96,3.01-3.06.33-.35.66-.73.99-1.1,1.5-1.72,2.99-3.59,4.44-5.61.29-.42.59-.84.88-1.25,2.75-3.92,5.41-8.38,7.96-13.31.29-.57.59-1.14.88-1.74.55-1.1,1.1-2.22,1.65-3.37.55-1.17,1.1-2.33,1.63-3.52.55-1.19,1.08-2.4,1.58-3.63.42-.99.84-2,1.25-3.01.57-1.36,1.12-2.77,1.65-4.18.24-.64.48-1.28.73-1.94.42-1.1.84-2.24,1.23-3.39.44-1.21.86-2.44,1.28-3.67.42-1.23.84-2.49,1.23-3.76.24-.75.48-1.52.73-2.29.24-.77.48-1.54.73-2.33.51-1.67.99-3.34,1.47-5.06.29-1.01.57-2,.84-3.01.29-1.01.55-2.02.81-3.06.29-1.03.55-2.07.79-3.1.79-3.1,1.54-6.29,2.24-9.53.05-.18.07-.33.11-.48s.07-.31.11-.48c48.93-8.76,93.68-27.13,130.9-53.02.95,10.03,1.34,20.22,1.14,30.56-.02,1.06-.04,2.13-.09,3.19.55-.15,1.1-.31,1.63-.44,1.85-.48,3.61-.86,5.26-1.12-6.69-14.87.48-36.06,20.31-36.06.68,0,1.36.02,2.02.07,18.26.9,24.33,14.1,25.06,21.45.15,1.52.33,3.06.55,4.64h.02c.92,6.23,2.73,12.94,7.02,21.67,7.55,15.33,27.26,18.72,35.22,33.44,3.92,7.19,9.64,18.11,6.31,27.37-1.89,1.5-3.7,3.04-5.46,4.64-5.65,5.21-10.65,11.18-15.31,18.52-4.33,6.82-5.96,15.8-5.5,25.78.18,4.11.73,8.4,1.61,12.78-16.32,10.56-47.45,8.51-63.78,4.99-2.05-.44-4.11-1.08-6.2-1.87-6.05-2.31-12.21-6.03-17.97-10.58"/>
    <path class="cls-1" d="m724.1,328.16c-.97,14.85-1.63,29.9-1.96,44.99-1.19,11.48-2.84,22.42-4.91,32.63-9.31,46.09-27.02,77.37-46.88,77.04-3.92-.07-7.72-1.34-11.35-3.74-17.23-11.35-30.69-47.41-35.66-94.2h-.02c-1.58-14.81-2.31-30.65-2.05-47.15.66-40.7,7.26-77.37,17.36-103.44,5.06-13.11,11.02-23.56,17.56-30.47,5.9-6.25,12.25-9.64,18.83-9.53,12.43.2,23.61,12.76,32.16,33.51,10.08,24.4,16.48,60.13,16.92,100.36Z"/>
    <path class="cls-1" d="m721.9,406.22c-.09-11.02-.02-22.04.24-33.07"/>
    <path class="cls-1" d="m748.85,616.65c-4.18-14.23-7.85-29.33-11.02-45.1"/>
    <path class="cls-1" d="m724.1,328.16c2.13-32.52,5.79-64.2,10.91-93.79,6.64-38.48,15.77-73.46,27.26-102.19"/>
    <path class="cls-1" d="m288.26,258.29s.04-.02.09-.04c-.02.02-.04.04-.09.07v-.02Z"/>
    <path class="cls-1" d="m418.56,391.68c-5.87-18.5-11.97-36.83-18.19-54.67,7.79,18.96,13.88,37.49,18.19,54.67Z"/>
    <path class="cls-1" d="m498.31,380.3c-.02-.86-.04-1.74-.07-2.6,0-1.21-.02-2.42-.02-3.63,0,1.36.02,2.71.05,4.05,0,.75.02,1.47.04,2.18Z"/>
    <path class="cls-1" d="m498.31,367.96c-.02.79-.04,1.56-.04,2.35-.02.2-.02.37-.02.57,0-.55.02-1.1.02-1.65,0-.24.02-.48.02-.73,0-.18,0-.35.02-.55Z"/>
    <path class="cls-1" d="m499.13,394.87c-.02-.13-.04-.26-.04-.4-.02-.24-.04-.48-.04-.7.02.26.04.53.07.79,0,.09,0,.2.02.31Z"/>
    <path class="cls-1" d="m52.06,318.63c-8.48,10.26-11.76,15.56-11.76,22.11s5.15,15.45,14.82,17.94c9.67,2.5,17.29-.39,25.74,1.4,15.45,3.28,22.62,16.85,43.75,16.85,11.8,0,21.63-7.33,26.46-12.79,4.84-5.46,9.9-18.73,6.12-30.66"/>
    <path class="cls-1" d="m55.12,358.69c-1.65,5.42-2.36,6.93-2.36,11.76s3.22,11.38,10.37,15.5,15.91,2.01,25.67,4.23c9.77,2.21,21.55,8.86,27.08,12.28s20.14,6.14,28.09.6c7.95-5.54,15.2-12.32,15.2-20.61s0-16.54-4.13-23.78"/>
    <path class="cls-1" d="m159.13,383.67c10.36-8.14,16.04-19.22,19.82-27.07,3.79-7.86,3.41-10.88,3.41-20.82s-.66-18.27,3.31-26.03c3.98-7.76,5.39-11.93,5.39-17.04s-.47-11.55-4.64-19.59c-4.16-8.04-9.32-19.99-9.32-31.34,0-20.48,7.11-28.98,13.71-36.79s20.65-21.86,20.65-34.01-11.28-20.13-25.85-20.13c-25.68,0-58.13,23.6-58.13,45.46,0,13.01,7.29,15.62,7.29,31.41s-5.03,19.26-8.33,22.38c-3.3-.87-9.02-2.26-18.05-2.26s-27.24,1.74-42.69,11.28c-15.44,9.54-27.94,23.25-27.94,38,0,23.39,26.95,24.8,40.37,30.81,13.42,6,33.56,19.66,45.68,19.66,20.02,0,38.97-13.07,38.97-27.79,0-19.48-5.39-26.84-12.45-31.55-7.06-4.71-14.98-6.72-29.34-7.31-14.36-.59-22.61-2.47-25.2-3.89"/>
    <path class="cls-1" d="m109.31,398.65c-2.46,19.28-8.68,55.58-14.27,75.77-5.58,20.19-13.32,46.42-16.32,56.08,11.38-.86,39.51-11.05,53.69-19.35,16.15-9.45,67.82-47.05,78.6-56.58"/>
    <path class="cls-1" d="m173.4,367.04c-4.67,25.34-21.73,73.95-26.55,87.15,14.75-13.48,36.37-41.49,50.48-60.34"/>
    <path class="cls-1" d="m233.17,501c-3.87,3.59-7.74,6.89-10.98,9.06"/>
    <path class="cls-1" d="m304.58,523.48c-.81,1.34-1.8,2.64-2.95,3.89-7.57,8.21-18.55,6.95-26.27,9.9-3.26,1.23-6.69,2.95-10.23,5.02-4.88,2.84-9.9,6.36-14.65,10.12-6.16,4.88-16.92,8.38-26.47,8.07-3.12-.09-6.12-.59-8.78-1.58-10.8-4-23.01-20.09-23.01-40.48s13.44-42.66,22.26-54.6c5.17,12.98,11.42,25.41,18.68,37.18,5.41-5.04,10.85-10.67,14.54-14.72,5.81-6.4,14.98-13.29,29.59-14.39.09.2.15.37.24.57-.07-.2-.15-.37-.22-.57,1.3-.11,2.66-.15,4.07-.15,17.01,0,27.81,16.85,27.81,26.91v.53c0,8.34-.09,16.96-4.6,24.29"/>
    <path class="cls-1" d="m304.6,523.46s0,.02-.02.02"/>
    <path class="cls-1" d="m277.32,471.89h-.02"/>
    <path class="cls-1" d="m304.58,523.48c-.81,1.34-1.8,2.64-2.95,3.89-7.57,8.21-18.55,6.95-26.27,9.9-3.26,1.23-6.69,2.95-10.23,5.02-4.88,2.84-9.9,6.36-14.65,10.12-6.16,4.88-16.92,8.38-26.47,8.07-1.56,11.66-3.23,25.1,6.25,35.4,8.18,8.93,17.75,11.4,27.19,7.46,1.45-.62,2.9-1.39,4.35-2.29,10.78-6.84,22.26-18.72,28.53-24.95,2.31-2.29,4.36-4.31,6.49-6.09,3.67-3.1,7.57-5.52,13.46-7.59,6.71-2.33,12.12-5.52,15.93-10.01,1.5-1.74,2.73-3.65,3.7-5.81,1.03-2.27,1.76-4.64,2.18-7.11,1.06-5.87.37-12.25-2.18-18.7-3.59-9.11-12.1-17.07-20.72-21.63,0,8.34-.09,16.96-4.6,24.29"/>
    <path class="cls-1" d="m411.98,483.79c-23.3,9.68-66.66-41.25-96.87-113.81-17.78-42.75-27.04-83.45-26.86-111.67.04-.02.07-.04.09-.07-.04.02-.07.04-.09.04.13-19.67,4.82-33.22,14.39-37.22,8.78-3.65,20.39,1.3,33.09,12.76,21.01,18.99,44.95,55.81,63.76,101.05.31.7.59,1.43.88,2.13,6.23,17.84,12.32,36.17,18.19,54.67,12.03,47.76,10.38,85.05-6.58,92.11Z"/>
    <path class="cls-1" d="m504.47,428.9c-.24-.92-.44-1.83-.62-2.73-.13-.53-.24-1.06-.35-1.61-.04-.15-.07-.29-.09-.44-.51-2.31-.95-4.66-1.36-7.02-.18-.88-.33-1.78-.46-2.66-.24-1.36-.46-2.75-.66-4.11-.22-1.52-.44-3.06-.64-4.6-.15-1.1-.29-2.22-.42-3.34-.09-.59-.15-1.19-.2-1.8-.02-.09-.02-.18-.04-.26v-.09c-.04-.37-.09-.77-.11-1.17-.15-1.41-.29-2.79-.4-4.2-.02-.13-.04-.26-.04-.4-.02-.24-.04-.48-.04-.7-.18-1.96-.33-3.92-.42-5.9v-.13c-.07-.84-.11-1.67-.13-2.53-.09-1.63-.13-3.26-.18-4.91-.02-.86-.04-1.74-.07-2.6,0-1.21-.02-2.42-.02-3.63v-.07c0-1.03,0-2.09.02-3.12,0-.55.02-1.1.02-1.65,0-.24.02-.48.02-.73,0-.18,0-.35.02-.55v-.2c0-.75.05-1.52.07-2.29.07-1.78.13-3.59.24-5.37.02-.57.07-1.17.11-1.76.04-.84.11-1.67.18-2.51.04-.64.09-1.28.15-1.94.07-.95.15-1.89.24-2.82.09-1.17.22-2.33.35-3.48v-.04c-2.09-10.56-4.69-21.47-7.79-32.58-13.93-49.87-34.67-91.15-54.16-111.54v-.02c-10.1-10.54-19.84-15.51-28.12-13.2-7.79,2.18-13.33,10.54-16.59,23.36-6.91,27.19-3.5,74.54,10.85,125.97,21.14,75.68,57.97,131.54,82.28,124.76,9.79-2.75,16.04-15.2,18.66-34.03v-.04c-.11-.44-.22-.9-.31-1.34Z"/>
    <path class="cls-1" d="m332.1,539.5c-.42,2.46-1.14,4.84-2.18,7.11-.97,2.16-2.2,4.07-3.7,5.81-3.81,4.49-9.22,7.68-15.93,10.01-5.9,2.07-9.79,4.49-13.46,7.59-2.13,1.78-4.18,3.81-6.49,6.09-6.27,6.23-17.75,18.11-28.53,24.95-1.45.9-2.9,1.67-4.36,2.29.66,7.57,4.75,20.48,12.69,24.84,7.92,4.36,19.29,3.34,26.4-.44,11.92-6.36,19.98-15.11,28.75-23.78,4.4-4.38,9.83-6.45,14.87-8.62h.02c3.78-1.63,7.33-3.3,10.03-6.03,2.44-2.46,4.58-4.66,6.29-7.02,2.66-3.65,4.25-7.63,4.25-13.55,0-9.66-4.64-18.59-9.35-24.53-5.94-7.41-16.26-8.38-18.83-7.41"/>
    <path class="cls-1" d="m433.26,546.03s-.02,0-.02.02"/>
    <path class="cls-1" d="m875.96,291.78c-1.23,12.28,6.03,28.58,24.33,33.64,1.06,11.88,14.54,27.39,31.94,27.39,10.71,0,15.42-3.65,19.05-8.38.15,1.43.31,2.88.44,4.33-37.22,25.89-81.97,44.26-130.9,53.02.31-1.45.62-2.93.92-4.42.31-1.47.59-2.97.88-4.47.42-2.09.79-4.22,1.17-6.36.02-.13.04-.26.07-.4.15-.9.31-1.83.46-2.73.04-.24.09-.46.11-.7.31-1.78.57-3.59.84-5.39.11-.66.2-1.32.29-1.96.6-3.98,1.1-8.03,1.56-12.14.2-1.76.4-3.52.57-5.3.31-3.01.57-6.03.79-9,.09-.99.15-2,.22-2.99.13-1.94.26-3.87.35-5.79.07-.92.11-1.85.15-2.79.04-.92.09-1.87.13-2.79.04-.92.07-1.85.11-2.77.15-4.33.22-8.62.22-12.83,0-1.58-.02-3.17-.04-4.75,0-1.12-.02-2.22-.07-3.34-.04-1.98-.11-3.96-.18-5.94,0-.15,0-.31-.02-.46-.05-.97-.09-1.94-.13-2.88-.09-1.89-.2-3.78-.33-5.65-.07-.9-.13-1.8-.2-2.71-.11-1.43-.22-2.86-.35-4.29-.15-1.58-.31-3.15-.48-4.71-.59-5.46-1.32-10.71-2.2-15.73-.35-2-.73-3.96-1.12-5.9-.09-.48-.2-.97-.29-1.43-.09-.48-.2-.95-.31-1.43-.29-1.3-.57-2.57-.88-3.83-.18-.7-.35-1.41-.53-2.11-.26-1.03-.53-2.05-.81-3.06-.13-.51-.26-1.01-.42-1.5-.22-.81-.46-1.61-.7-2.4-.15-.51-.31-1.01-.48-1.52-.81-2.6-1.67-5.04-2.6-7.39-.18-.48-.37-.97-.57-1.43-.66-1.63-1.34-3.19-2.05-4.71,25.61-5.96,49.96-16.7,72.12-31.42,4.51-3.01,8.93-6.18,13.27-9.5-29.26-25.48-64.68-44.07-103.73-53.2,8.71-13.44,21.6-30.78,37.31-31.97,15.71-1.17,28.36,19.69,36.08,33.53,7.74,13.82,12.67,24.84,18.28,27.87,5.63,3.06,27.65-4.44,38.92-3.74,11.24.7,34.45,6.05,34.45,20.83,0,9.9-3.15,17.16-7.5,23.69-2.13,3.23-4.58,6.27-7.04,9.37-2.75,3.43-6.51,8.12-10.43,13.02-5.5,6.95-11.29,14.39-14.81,19.45-.77,1.1-1.43,2.09-1.96,2.93-4.69,7.5-4.6,21.69-15.93,31.64-6.45,5.65-16.98,10.74-27.98,7.48Z"/>
    <path class="cls-1" d="m861.31,215.17c-12.43,18.28-15.73,48.27-.24,66.31,4.82,5.63,9.9,8.82,14.89,10.3"/>
    <path class="cls-1" d="m986.34,241.68c0,5.98-3.63,12.63-8.67,19.23-4.2,5.48-9.33,10.93-14.12,15.99-4.03,4.22-7.81,8.16-10.63,11.57-3.81,4.62-5.98,11.13-8.84,17.49-4.82,10.71-11.62,21.01-31.57,21.01-4.53,0-8.58-.57-12.21-1.56-18.3-5.06-25.56-21.36-24.33-33.64,11,3.26,21.54-1.83,27.98-7.48,11.33-9.94,11.24-24.13,15.93-31.64.53-.84,1.19-1.83,1.96-2.93,3.52-5.06,9.31-12.5,14.81-19.45,3.92-4.91,7.68-9.59,10.43-13.02,2.46-3.1,4.9-6.14,7.04-9.37,13.31,4.99,32.23,18.68,32.23,33.79Z"/>
    <path class="cls-1" d="m999.6,285.81c0,3.92-1.28,8.12-4,12.25-2.35,3.59-5.79,7.13-10.38,10.41-2.86,2.02-5.76,4.4-8.62,6.95-7.11,6.29-13.84,13.66-18.63,19.54-2.57,3.17-4.42,6.53-6.67,9.46-3.63,4.73-8.34,8.38-19.05,8.38-17.4,0-30.89-15.51-31.94-27.39,3.63.99,7.68,1.56,12.21,1.56,19.95,0,26.75-10.3,31.57-21.01,2.86-6.36,5.04-12.87,8.84-17.49,2.82-3.41,6.6-7.35,10.63-11.57,4.8-5.06,9.92-10.52,14.12-15.99,11.57,4.51,21.93,15.8,21.93,24.9Z"/>
    <line class="cls-1" x1="900.3" y1="325.41" x2="900.3" y2="325.39"/>
    <path class="cls-1" d="m900.52,417.37c-1.21-5.5-2.46-12.52,4.4-17.89,6.62-5.21,32.12-12.83,47.87-16.98"/>
    <path class="cls-1" d="m956.07,416.54c-2-.15-4.16-.33-6.45-.51"/>
    <path class="cls-1" d="m961.54,518.38c-4.64,22.44-13.99,31.55-25.12,31.55-9.44,0-14.61-4.42-18.68-9.53-.73-.9-1.41-1.8-2.07-2.73-2.62-3.59-3.76-5.83-8.1-9.72-.75-.68-1.61-1.41-2.6-2.18"/>
    <path class="cls-1" d="m884.28,469.98c11.07-8.87,27.54-17.29,43.25-24.24"/>
    <path class="cls-1" d="m926.26,490.08c-1.25-1.67-2.44-3.37-3.54-5.06"/>
    <path class="cls-1" d="m943.57,507.79c-.86-.66-1.69-1.34-2.51-2.07"/>
    <path class="cls-1" d="m1007.63,371.04c34.23,11.48,64.79,62.39,73.04,83.73-7.74,6.25-22.59,6.12-29.94,3.39"/>
    <path class="cls-1" d="m995.6,298.07c27.63,10.27,79.95,63.05,98.65,85.6,16.35,19.73,41.76,64.88,51.99,101.97-22.2,17.38-79.82,23.96-116.31,16.83"/>
    <path class="cls-1" d="m699.26,614.01c-.7-.4-1.41-.79-2.09-1.19-32.47-18.5-60.43-40.81-83.05-67.1"/>
    <path class="cls-1" d="m549.57,348.65c3.12-77.04,37.69-126.37,79.93-165.2,18.44-16.92,38.32-31.83,57.73-46.2"/>
    <path class="cls-1" d="m349.54,599.32c13.69,22.09,56.24,81.23,69.02,105.49,12.78,24.26,21.69,47.34,21.69,55.05s-.68,14.96-15.86,6.12c-15.18-8.84-44.87-39.43-70.93-39.43s-26.74,27.19-26.74,47.59v50.99h169.5c-14.53-44.28-10.62-44.03-15.86-72.06s-18.36-117.84-16.32-130.53c2.04-12.69,14.23,30.52,19.26,46.46,5.16,16.34,18.03,111.69,16.77,156.13h149.49v-11.36c0-10.18-6.68-66.48-12.09-83.66-5.41-17.18-18.13-23.86-37.85-14.31-19.72,9.54-42.94,22.9-50.26,26.08-7.32,3.18-21.31,5.41-21.31-21.31s21.45-88.45,46.41-144.35"/>
    <path class="cls-1" d="m652.65,600.37c18.29,21.41,46.18,57.7,57.7,73.2,27.47,36.96,38.5,68.79,38.5,75.61s-3.65,17.57-21.63,1.24c-17.98-16.33-39.06-35.75-45.26-40.51-6.2-4.75-18.18-9.82-21.49,10.33-2.69,16.33-5.79,53.32-5.99,70.06s0,29.14,0,34.82h168.85s-12.19-35.65-16.53-51.15-23.39-84.01-27.9-109.12c-11.16-62.11,3.38-47.6,10.95-7.23,5.99,31.93,27.28,89.8,31.21,113.36,3.93,23.56,5.99,40.71,5.99,54.15h143.02v-16.53c0-7.03-2.27-58.08-7.03-73.99-4.75-15.91-12.19-24.8-29.97-19.01s-53.32,20.05-63.45,23.97c-10.13,3.93-32.03,11.57-21.7-14.47,10.33-26.04,33.86-91.56,41.63-110.98s17.72-45.66,30-71.61"/>
    <path class="cls-1" d="m959.67,380.94c13.11-2.28,23.91,2.31,34.06,13.43,10.15,11.13,21.6,20.62,21.6,20.62"/>
  </g>
</svg>