<?xml version="1.0" encoding="UTF-8"?>
<svg id="Layer_1" data-name="Layer 1" xmlns="http://www.w3.org/2000/svg" viewBox="0 0 1184 860">
  <defs>
    <style>
      .cls-1 {
        fill: none;
        stroke: #000;
        stroke-linecap: round;
        stroke-linejoin: round;
        stroke-width: 6.6px;
      }
    </style>
  </defs>
  <g>
    <path d="m543.12,363.49c-8.76,3.39-24.29-15.6-34.72-42.44-10.4-26.82-11.77-51.33-3.04-54.71,8.76-3.41,24.29,15.6,34.72,42.42,10.41,26.84,11.77,51.35,3.04,54.74Z"/>
    <path d="m614.88,339.8c-8.76,3.39-24.29-15.6-34.72-42.44-10.41-26.84-11.77-51.33-3.04-54.74,8.76-3.39,24.29,15.6,34.72,42.44,1.3,3.32,2.44,6.6,3.45,9.81l-4.6,2.07,9.86,24.62c.51,9.72-1.36,16.54-5.68,18.24Z"/>
    <path d="m507.61,373.12s14.65,30.06,19.23,38.99c4.58,8.93,13.83,18.3,29.15,18.3s26.09-10.43,34.67-18.51c8.58-8.08,22.72-27.43,22.72-27.43l-105.77-11.35Z"/>
    <path d="m440.98,146.76h3.41s3.26-12.62,7.33-20.89c4.06-8.27,9.5-12.99,14.22-12.99s1.74-7.25-2.47-14.94c-4.21-7.69-10.17-11.62-15.23-.87-8.05,17.08-7.25,33.41-7.25,49.69Z"/>
    <path d="m491.91,76.44c7.56,0,16.32,0,26.19,3.32s21.76,9.47,21.76,9.47l2.32-2.92s-5.34-7.86-10.98-14.1c-5.64-6.25-18.74-17.53-26.6-17.53s-12.69,6.35-12.69,21.76Z"/>
  </g>
  <g>
    <path class="cls-1" d="m812.2,438.44c-.46,1.32-.92,2.64-1.41,3.96-.48,1.32-.97,2.64-1.47,3.94s-1.01,2.6-1.54,3.89c-.51,1.25-1.03,2.51-1.56,3.76-.57,1.32-1.14,2.62-1.72,3.92-.46,1.06-.95,2.11-1.43,3.15-.48,1.06-.99,2.13-1.5,3.19-.81,1.67-1.63,3.3-2.46,4.95-.22.44-.44.88-.68,1.32-.73,1.41-1.47,2.82-2.24,4.2-1.91,3.56-3.94,7.06-6.05,10.52-.4.68-.81,1.34-1.23,2-.77,1.25-1.58,2.53-2.42,3.78-.53.84-1.08,1.67-1.63,2.51-1.01,1.52-2.05,3.04-3.1,4.53-.97,1.41-1.96,2.77-2.99,4.14-.46.7-.99,1.41-1.52,2.09-1.06,1.45-2.16,2.88-3.28,4.29-1.12,1.45-2.29,2.9-3.45,4.31-.44.57-.9,1.12-1.39,1.67-.97,1.19-1.96,2.35-2.97,3.5-1.58,1.85-3.21,3.67-4.88,5.46-1.36,1.5-2.75,2.97-4.18,4.42-.42.46-.86.9-1.3,1.34-1.19,1.21-2.4,2.42-3.63,3.61-1.21,1.19-2.44,2.38-3.7,3.52-.51.51-1.03.99-1.56,1.45-.35.33-.7.66-1.06.95-.97.9-1.91,1.76-2.9,2.62-.29.26-.57.51-.86.75-1.47,1.3-2.97,2.57-4.49,3.83-39.09,32.45-88.55,52.84-142.67,55.53-4.05.2-8.14.31-12.23.31-18.41,0-36.34-2.05-53.59-5.96,5.08-4.07,9.5-10.38,13.27-16.76,4.58-7.77,8.16-15.64,10.74-19.69,5.61-8.82,17.31-14.74,17.31-33.18"/>
    <path class="cls-1" d="m506.86,555.95c2.86-6.89,7.19-13.93,13.38-23.78,5.87-9.35,12.43-14.26,15.03-23.25"/>
    <path class="cls-1" d="m477.2,529.79c1.08-3.54,1.94-7.26,2.71-11.42,1.98-10.65,1.54-23.28,3.76-29.7,1.08-3.15,3.26-6.91,6.67-9.9"/>
    <path class="cls-1" d="m418.09,440.86c-.18-.42-.35-.86-.53-1.28-5.28-12.74-9.57-25.65-12.87-38.63-10.82-.97-22.02-2.64-29.15-4.88-3.1-22.55-9.46-45.39-21.85-45.39-5.63,0-10.14,2.95-13.75,7.96.09-52.54,16.9-101.2,45.39-140.89,20.61-28.8,47.41-52.89,78.43-70.33,1.65-.92,3.32-1.85,4.99-2.73,1.67-.9,3.37-1.78,5.06-2.62,1.3-.66,2.6-1.3,3.89-1.89.66-.35,1.32-.68,2-.97,1.01-.48,2.02-.97,3.04-1.41.35-.15.7-.31,1.03-.46.31-.15.62-.29.92-.42,1.56-.7,3.15-1.39,4.73-2.05,3.41-1.41,6.84-2.75,10.3-4.03l.4-.13c1.63-.59,3.28-1.17,4.95-1.72,2.29-.79,4.62-1.54,6.95-2.24,1.47-.44,2.95-.88,4.42-1.3.22-.07.42-.13.64-.18,1.52-.44,3.04-.84,4.58-1.23,2.02-.53,4.07-1.03,6.09-1.5.86-.2,1.72-.4,2.6-.57,2.31-.53,4.62-.99,6.95-1.41,1.32-.26,2.62-.51,3.94-.73,1.32-.24,2.64-.46,3.96-.66,1.96-.31,3.92-.57,5.87-.84"/>
    <path class="cls-1" d="m506.86,555.95c2.86-6.89,7.19-13.93,13.38-23.78,5.87-9.35,12.43-14.26,15.03-23.25,11.2-5.39,35.16-1.1,35.16,17.34s-11.7,24.35-17.31,33.18c-2.57,4.05-6.16,11.92-10.74,19.69-3.76,6.38-8.18,12.69-13.27,16.76,17.25,3.92,35.18,5.96,53.59,5.96,4.09,0,8.18-.11,12.23-.31,54.12-2.68,103.58-23.08,142.67-55.53,7.3-11.75,13.73-24,19.23-36.65"/>
    <path class="cls-1" d="m477.2,529.79c1.08-3.54,1.94-7.26,2.71-11.42,1.98-10.65,1.54-23.28,3.76-29.7,1.08-3.15,3.26-6.91,6.67-9.9"/>
    <path class="cls-1" d="m418.09,440.86c-.18-.42-.35-.86-.53-1.28-5.28-12.74-9.57-25.65-12.87-38.63-10.82-.97-22.02-2.64-29.15-4.88-3.1-22.55-9.46-45.39-21.85-45.39-5.63,0-10.14,2.95-13.75,7.96.09-52.54,16.9-101.2,45.39-140.89,20.61-28.8,47.41-52.89,78.43-70.33,1.65-.92,3.32-1.85,4.99-2.73,1.67-.9,3.37-1.78,5.06-2.62,1.3-.66,2.6-1.3,3.89-1.89.66-.35,1.32-.68,2-.97,1.01-.48,2.02-.97,3.04-1.41.35-.15.7-.31,1.03-.46.31-.15.62-.29.92-.42,1.56-.7,3.15-1.39,4.73-2.05,3.41-1.41,6.84-2.75,10.3-4.03l.4-.13c1.63-.59,3.28-1.17,4.95-1.72,2.29-.79,4.62-1.54,6.95-2.24,1.47-.44,2.95-.88,4.42-1.3.22-.07.42-.13.64-.18,1.52-.44,3.04-.84,4.58-1.23,2.02-.53,4.07-1.03,6.09-1.5.86-.2,1.72-.4,2.6-.57,2.31-.53,4.62-.99,6.95-1.41,1.32-.26,2.62-.51,3.94-.73,1.32-.24,2.64-.46,3.96-.66,1.96-.31,3.92-.57,5.87-.84"/>
    <path class="cls-1" d="m542.37,579.11c4.58-7.77,8.16-15.64,10.74-19.69,5.61-8.82,17.31-14.74,17.31-33.18s-23.96-22.73-35.16-17.34c-2.6,9-9.15,13.9-15.03,23.25-6.18,9.86-10.52,16.9-13.38,23.78"/>
    <path class="cls-1" d="m594.93,601.53c54.12-2.68,103.58-23.08,142.67-55.53,1.52-1.25,3.01-2.53,4.49-3.83.29-.24.57-.48.86-.75.99-.86,1.94-1.72,2.9-2.62.35-.29.7-.62,1.06-.95.53-.46,1.06-.95,1.56-1.45,1.25-1.14,2.49-2.33,3.7-3.52,1.23-1.19,2.44-2.4,3.63-3.61.44-.44.88-.88,1.3-1.34,1.43-1.45,2.82-2.93,4.18-4.42,1.67-1.78,3.3-3.61,4.88-5.46,1.01-1.14,2-2.31,2.97-3.5.48-.55.95-1.1,1.39-1.67,1.17-1.41,2.33-2.86,3.45-4.31,1.12-1.41,2.22-2.84,3.28-4.29.53-.68,1.06-1.39,1.52-2.09,1.03-1.36,2.02-2.73,2.99-4.14,1.06-1.5,2.09-3.01,3.1-4.53.55-.84,1.1-1.67,1.63-2.51.84-1.25,1.65-2.53,2.42-3.78.42-.66.84-1.32,1.23-2,2.11-3.45,4.14-6.95,6.05-10.52.77-1.39,1.52-2.79,2.24-4.2.24-.44.46-.88.68-1.32.84-1.65,1.65-3.28,2.46-4.95.51-1.06,1.01-2.13,1.5-3.19.48-1.03.97-2.09,1.43-3.15.57-1.3,1.14-2.6,1.72-3.92.53-1.25,1.06-2.51,1.56-3.76.53-1.3,1.03-2.6,1.54-3.89s.99-2.62,1.47-3.94c.48-1.32.95-2.64,1.41-3.96"/>
    <path class="cls-1" d="m776.23,212.53c-5.9-7.81-12.28-15.25-19.1-22.26"/>
    <path class="cls-1" d="m744.46,178.07c-2.9-2.62-5.9-5.15-8.93-7.61"/>
    <path class="cls-1" d="m551.08,118.37c-1.96.26-3.92.53-5.87.84-2.64.42-5.28.86-7.9,1.39-2.33.42-4.64.88-6.95,1.41-.88.18-1.74.37-2.6.57-9.57,2.2-18.92,4.99-28.03,8.29-3.45,1.28-6.89,2.62-10.3,4.03-1.58.66-3.17,1.34-4.73,2.05-.31.13-.62.26-.92.42-1.87.81-3.72,1.67-5.54,2.57-1.47.68-2.95,1.41-4.42,2.16-1.69.86-3.39,1.72-5.06,2.62-1.67.88-3.34,1.8-4.99,2.73-20.13,23.63-36.15,50.31-47.56,78.87-21.67,54.27-26.66,115.28-11.51,174.66,3.3,12.98,7.59,25.89,12.87,38.63.18.42.35.86.53,1.28"/>
    <path class="cls-1" d="m477.2,529.79c1.08-3.54,1.94-7.26,2.71-11.42,1.98-10.65,1.54-23.28,3.76-29.7,1.08-3.15,3.26-6.91,6.67-9.9"/>
    <path class="cls-1" d="m628.78,120.7c-2.64,6.4-6.38,12.94-11.09,19.43-7.19,9.92-16.65,19.78-27.98,29.15-16.13-22.22-32.56-34.21-44.07-29.74-13.11,5.1-16.52,30.32-10.67,63.6-2.38,1.1-4.8,2.18-7.24,3.21-.77.33-1.56.68-2.35.99-19.25-32.38-40.66-51.5-54.71-46.05-13.2,5.13-16.57,30.6-10.58,64.2-15.82,2.13-30.69,2.4-43.89.81-11.77-1.41-22.22-4.25-30.87-8.54,20.61-28.8,47.41-52.89,78.43-70.33,1.65-.92,3.32-1.85,4.99-2.73,1.67-.9,3.37-1.78,5.06-2.62,1.03-.53,2.07-1.03,3.12-1.54.22-.11.42-.2.62-.29.04-.02.11-.04.15-.07.18-.11.35-.18.53-.26.02-.02.07-.04.09-.04.2-.11.42-.2.62-.31.33-.18.66-.33.99-.46.09-.04.2-.09.29-.13.33-.15.64-.31.97-.46.46-.2.92-.42,1.39-.62.07-.04.11-.07.18-.09.35-.18.68-.33,1.03-.46.31-.15.62-.29.92-.42,1.56-.7,3.15-1.39,4.73-2.05,3.41-1.41,6.84-2.75,10.3-4.03.13-.04.26-.09.4-.13,1.65-.59,3.3-1.17,4.95-1.72.73-.26,1.45-.51,2.18-.73.73-.24,1.5-.48,2.24-.75.2-.04.37-.11.57-.18.77-.22,1.54-.46,2.31-.7,1.34-.42,2.7-.81,4.07-1.19.22-.07.42-.13.64-.18,1.47-.42,2.95-.81,4.44-1.19.24-.07.46-.13.7-.2.48-.13.99-.24,1.5-.37,1.34-.33,2.68-.66,4.03-.97.86-.2,1.72-.4,2.6-.57,2.31-.53,4.62-.99,6.95-1.41,1.32-.26,2.62-.51,3.94-.73,1.32-.24,2.64-.46,3.96-.66,1.96-.31,3.92-.57,5.87-.84,10.34-1.34,20.9-2.05,31.61-2.05,15.75,0,31.17,1.5,46.09,4.38Z"/>
    <path class="cls-1" d="m513.88,601.84s-.4.18-1.19.46c-.02,0-.04,0-.07.02"/>
    <path class="cls-1" d="m375.54,396.07c2.13,15.31,2.75,30.54,2.75,38.35"/>
    <path class="cls-1" d="m442.58,526.09c-.15,5.1-.97,10.08-2.99,15.75"/>
    <path class="cls-1" d="m506.86,555.95c-.64,1.54-1.21,3.06-1.69,4.6"/>
    <path class="cls-1" d="m477.2,529.79c-1.67,5.52-3.89,10.6-7.26,16.28"/>
    <path class="cls-1" d="m415.05,462.18c-3.21-2.27-6.84-2.88-9.88-2.88-7.08,0-11.48,4.77-11.48,10.49s.75,8.8.75,25.63c0,7.61,0,13.22.88,17.97,1.03,5.74,3.32,10.27,8.38,15.71,9.26,9.94,9.13,13.13,16.92,28.47"/>
    <path class="cls-1" d="m529.1,595.88c-2.29,1.85-4.71,3.23-7.26,3.96-2.68.77-5.76,1.63-9.15,2.46-.02,0-.04,0-.07.02"/>
    <path class="cls-1" d="m442.6,526.11s-.02,0-.02-.02"/>
    <polyline class="cls-1" points="737.68 383.38 756.05 430.61 728.53 447.13 728.16 447.35"/>
    <path class="cls-1" d="m740.58,459.41c-2.14-3.63-9.88-11.74-16.03-14.72,2.52-7.74,4.19-12.86,4.19-20.5,0-15.56-7.83-34.67-27.96-34.67-8.85,0-18.5,4.76-19.11,15.09s-1.94,33.86-3.48,44.39c-1.53,10.54.68,14.82,7.47,18.62,10.02,5.6,26.8,19.13,33.24,26.18"/>
    <path class="cls-1" d="m680.95,416.67c-4.59-5.48-9.35-8.74-15.22-8.74s-15.22,5.27-15.22,14.82c0,6.61,5.24,14.46,5.24,24.52s-2.75,21.76-2.75,33.88c0,6.75,4.27,9.17,10.88,12.64,6.61,3.47,19.28,8.71,25.76,12.84"/>
    <path class="cls-1" d="m477.2,529.79c1.08-3.54,1.94-7.26,2.71-11.42,1.98-10.65,1.54-23.28,3.76-29.7,1.08-3.15,3.26-6.91,6.67-9.9"/>
    <path class="cls-1" d="m418.09,440.86c-.18-.42-.35-.86-.53-1.28-5.28-12.74-9.57-25.65-12.87-38.63-10.82-.97-22.02-2.64-29.15-4.88-3.1-22.55-9.46-45.39-21.85-45.39-5.63,0-10.14,2.95-13.75,7.96-9.66,13.44-12.61,41.76-12.61,67.58,0,35.42,14.06,108.92,27.52,136.75,25.19,22.84,70.58,46.27,106.3,46.27,30.14,0,46.95-5.28,51.46-6.93-15.75,3.87-37.99,7.08-56.06-3.45-21.96-12.83-28.18-25.96-35.95-41.29-11.77-3.56-29.28-15.73-36.67-23.34-.55-7.79-1.56-23.72-2.44-39.29,4.31,6.38,8.91,12.54,13.82,18.46"/>
    <path class="cls-1" d="m506.86,555.95c2.86-6.89,7.19-13.93,13.38-23.78,5.87-9.35,12.43-14.26,15.03-23.25,11.2-5.39,35.16-1.1,35.16,17.34s-11.7,24.35-17.31,33.18c-2.57,4.05-6.16,11.92-10.74,19.69-3.76,6.38-8.18,12.69-13.27,16.76"/>
    <path class="cls-1" d="m635.96,497.21c-1.17-6.47-.37-14.61-.37-23.03,0-13.4-2.84-14.56-2.84-24.27,0-9.11,5.76-14.23,13.4-14.23,2.64,0,6.09,1.25,8.4,2.84"/>
    <path class="cls-1" d="m835.74,264.78c-4.55-8.6-25.48-53.15-45.39-47.74-3.26.88-5.61,2.64-7.26,5.02-1.1-1.63-2.24-3.21-3.39-4.82-1.14-1.58-2.31-3.15-3.48-4.71-5.92-7.81-12.3-15.22-19.1-22.26-1.28-1.32-2.57-2.62-3.87-3.92-.15-.18-.31-.31-.46-.46-1.23-1.19-2.46-2.38-3.7-3.54l-.4-.4c-1.41-1.3-2.82-2.6-4.25-3.87-2.9-2.6-5.9-5.15-8.93-7.61-1.52-1.23-3.04-2.44-4.6-3.63-1.34-1.06-2.71-2.09-4.09-3.1-.44-.33-.88-.64-1.32-.97-.86-.64-1.74-1.28-2.64-1.89-.97-.7-1.96-1.39-2.95-2.07-.13-.09-.29-.18-.42-.26-1.21-.84-2.42-1.65-3.65-2.46-5.06-3.32-10.25-6.47-15.58-9.42-1.3-.73-2.62-1.45-3.94-2.13-1.5-.79-2.99-1.58-4.51-2.33-.57-.31-1.14-.59-1.74-.88-1.41-.68-2.79-1.36-4.22-2.02-.07-.04-.13-.07-.22-.11-1.32-.62-2.64-1.21-3.96-1.8-.68-.33-1.39-.64-2.09-.92-1.56-.7-3.15-1.36-4.73-2-1.83-.75-3.65-1.47-5.48-2.18-.02-.02-.04-.02-.07-.02-1.87-.73-3.74-1.41-5.61-2.07-1.69-.59-3.39-1.19-5.1-1.74-.59-.2-1.19-.4-1.8-.57-1.32-.44-2.66-.86-4-1.25-.35-.11-.7-.22-1.08-.31-1.69-.53-3.41-1.01-5.13-1.47-.04-.02-.09-.02-.13-.04-1.72-.46-3.41-.9-5.13-1.32-.37-.11-.77-.2-1.14-.29-1.8-.44-3.63-.86-5.46-1.25-1.98-.44-3.96-.86-5.96-1.23-14.92-2.88-30.34-4.38-46.09-4.38-10.71,0-21.27.7-31.61,2.05,23.06,4.49,45.43,11.81,66.62,21.76,54.56,25.59,101.13,68.6,130.57,125.2,18.57-1.21,38.65,13.95,47.92,37.77,10.67,27.48,2.97,56.14-17.16,64.59,2.29,22.35,1.85,44.66-1.14,66.48v.02c-1.32,1.5-2.51,2.84-3.59,4-.99,5.63-2.13,11.88-2.88,19.07-.59,5.9-1.17,11.35-1.83,16.39,0,.04,0,.07-.02.09.02.02.02.04,0,.07-.84,6.36-1.85,12.08-3.34,17.27,14.32-12.63,30.73-31.5,45.98-52.65,18.44-25.52,35.16-54.36,44.46-79.53,0-42.68-16.37-85.54-20.92-94.14Z"/>
    <path class="cls-1" d="m790.35,272.87c-5.35-10.45-15.69-38.72-7.26-50.82"/>
    <path class="cls-1" d="m779.02,367.69c-.24.11-.51.22-.75.31-20.7,8.03-46.22-7.99-57.02-35.79-10.8-27.79-2.77-56.85,17.91-64.88,2.95-1.14,6.01-1.8,9.11-2,18.57-1.21,38.65,13.95,47.92,37.77,10.67,27.48,2.97,56.14-17.16,64.59Z"/>
    <path class="cls-1" d="m802.14,289.02c8.16,10.27,21.82,49.39,21.74,74.36-9.94,26.38-32.98,55.9-46,70.8"/>
    <path class="cls-1" d="m546.68,251.55c-6.36-16.37-13.66-31.33-21.3-44.22-19.25-32.38-40.66-51.5-54.71-46.05-13.2,5.13-16.57,30.6-10.58,64.2,2.93,16.46,8.07,34.83,15.42,53.72,22.33,57.49,56.36,97.9,76.03,90.27,19.65-7.63,17.47-60.43-4.86-117.92Zm-3.56,111.94c-8.76,3.39-24.29-15.6-34.72-42.44-10.4-26.82-11.77-51.33-3.04-54.71,8.76-3.41,24.29,15.6,34.72,42.42,10.41,26.84,11.77,51.35,3.04,54.74Z"/>
    <path class="cls-1" d="m543.12,363.49c-8.76,3.39-24.29-15.6-34.72-42.44-10.4-26.82-11.77-51.33-3.04-54.71,8.76-3.41,24.29,15.6,34.72,42.42,10.41,26.84,11.77,51.35,3.04,54.74Z"/>
    <path class="cls-1" d="m774.29,438.2c-.99,5.63-2.13,11.88-2.88,19.07-.59,5.9-1.17,11.35-1.83,16.39,0,.04,0,.07-.02.09.02.02.02.04,0,.07-.84,6.36-1.85,12.08-3.34,17.27v.02c-2,6.97-4.88,12.96-9.39,18.24-13.57,15.95-44.24,26.03-59.27,26.03s-25.81-11.64-33.33-16.5c-7.55-4.86-16.59-5.9-23.61-12.23-2.62-2.35-3.98-5.61-4.66-9.44l-15.29,6.78-50.25,22.26c0-18.44-23.96-22.73-35.16-17.34.75-2.53,1.17-5.41,1.17-8.8,0-15.4-19.4-26.77-31.59-26.77-6.2,0-11,2.31-14.5,5.43-5.32-9.09-17.73-22.66-31.04-22.66s-21.93,6.42-21.93,17.95c0,1.74.07,3.37.18,4.88.6,8.62,2.68,14.78,3.81,27.02.73,7.81,1.45,14.06,1.23,20.13-10.93-5.79-26.47-29.99-26.47-52.76,0-9.83.55-21.32,1.98-32.47,1.91-14.67,5.39-28.78,11.26-37.71,13.05-19.84,19.05-27.61,54.16-45.25l19.38,40.46,8.85,18.48s-14.92,10.49-14.92,21.85,5.96,22.11,20.79,22.11,21.45-6.91,33.37-12.87c5.72-2.84,28.97-14.39,51.66-25.63,24.66-12.19,48.62-24.05,48.62-24.05l-16.17-40.39-4.93-12.28-9.61-24.02-9.86-24.62,4.6-2.07,22.04-9.9,52.87-23.74,47.48,122.14c1.8-4.66,9.9-10.25,16.48-10.25,11.57,0,10.54,17.23,18.39,32.34,5.43,10.45,3.96,20.09,1.74,32.74Z"/>
    <path class="cls-1" d="m620.56,321.56l9.61,24.02c-1.12.9-2.33,1.63-3.65,2.13-19.67,7.63-53.7-32.78-76.03-90.27-7.44-19.12-12.63-37.73-15.51-54.32-5.85-33.29-2.44-58.5,10.67-63.6,11.51-4.47,27.94,7.52,44.07,29.74,11.42,15.77,22.7,36.67,31.97,60.52,7.57,19.45,12.8,38.37,15.66,55.18l-22.04,9.9c-1.01-3.21-2.16-6.49-3.45-9.81-10.43-26.84-25.96-45.83-34.72-42.44-8.73,3.41-7.37,27.9,3.04,54.74,10.43,26.84,25.96,45.83,34.72,42.44,4.31-1.69,6.18-8.51,5.68-18.24Z"/>
    <path class="cls-1" d="m614.88,339.8c-8.76,3.39-24.29-15.6-34.72-42.44-10.41-26.84-11.77-51.33-3.04-54.74,8.76-3.39,24.29,15.6,34.72,42.44,1.3,3.32,2.44,6.6,3.45,9.81l-4.6,2.07,9.86,24.62c.51,9.72-1.36,16.54-5.68,18.24Z"/>
    <path class="cls-1" d="m404.69,400.96c9.57.84,18.81,1.14,24.66.81"/>
    <path class="cls-1" d="m502.89,398.35c4.35.24,11.32-.68,16.26-1.69"/>
    <path class="cls-1" d="m577.54,382.19c10.06-2.54,42.91-16.74,57.55-24.33"/>
    <path class="cls-1" d="m489.44,134.89c36.48,55.86,74.76,152.13,102.26,247.26,2.11,7.37,4.18,14.72,6.16,22.04,1.65,6.05,3.26,12.1,4.8,18.11"/>
    <path class="cls-1" d="m620.67,503.98c6.31,35.09,9.9,66.92,9.88,92.69"/>
    <path class="cls-1" d="m381.5,494.94c-.53-9.59-1.01-19.07-1.3-26.42"/>
    <path class="cls-1" d="m461.17,609.24c13.94,30.52,33.19,93.44,37.88,107.71,4.68,14.27,13.6,41.47-15.61,27.65-29.21-13.82-69.56-26.75-82.27-31.66-12.71-4.9-25.86-12.49-36.79,9.14-10.92,21.63-13.6,64.21-13.6,74.46s0,8.69,0,8.69h207.34s-15.16-34.11-18.73-63.54c-3.57-29.43-1.03-95.89,1.78-121.28,3.12-28.2,28.88-26.64,30.54,5.8.67,13.04,1.85,61.78,1.85,81.92s-14.64,81.15-19.86,97.19h205.94v-7.77c0-4.18-.28-47.67-10.87-69.69-10.59-22.02-15.33-25.09-35.4-16.73-20.07,8.36-76.87,28.95-91.28,34.71-14.41,5.76-19.27.9-12.07-13.51,7.2-14.41,25.28-54.24,43.53-81.83,18.25-27.59,67.88-89.83,84.04-104.51"/>
    <path class="cls-1" d="m554.74,557.11c44.92,6.9,99.86-4.77,132.46-23.15"/>
    <path class="cls-1" d="m778.82,216.02c-4.43,12.01-20.73,39.59-30.56,49.3"/>
  </g>
</svg>