<?xml version="1.0" encoding="UTF-8"?>
<svg id="Layer_1" data-name="Layer 1" xmlns="http://www.w3.org/2000/svg" viewBox="0 0 1184 860">
  <defs>
    <style>
      .cls-1 {
        fill: none;
        stroke: #000;
        stroke-linecap: round;
        stroke-linejoin: round;
        stroke-width: 6.6px;
      }
    </style>
  </defs>
  <g>
    <path d="m365.06,495.33c4.09.26,8.29,1.02,12.23.35,45.33-7.76,93.81-33.41,116.41-74.98.8-1.48,1.57-2.98,2.3-4.5,1.77-3.71,3.3-13.16,7.24-15.14,3.81-1.92,4.39,4.22,4.5,7.24.91,24.5-.18,54.75-15,75.35-11.44,15.9-29.49,26.64-48.55,30.55-15.17,3.11-30.94,2.77-46.27,1.21-13.67-1.39-27.74-4.08-39.55-11.47-7.6-4.75-3.94-8.31,3.09-8.67,1.18-.06,2.39-.03,3.6.05Z"/>
    <ellipse cx="314.2" cy="355.89" rx="21.35" ry="56.83" transform="translate(-135.85 204.78) rotate(-30)"/>
    <ellipse cx="419.27" cy="312.38" rx="21.35" ry="56.83" transform="translate(-72.99 136.18) rotate(-16.99)"/>
    <path d="m193.96,172.62c1.73-11.75,13.24-54.82,20.04-65.53,6.79-10.71,10.83-15.43,18.77-15.43s17.5,4.15,20.84,20.5c-11.4,5.53-8.52,2.3-20.04,13.36-11.52,11.06-26.95,30.75-34.89,47.79l-4.72-.69Z"/>
    <path d="m298.51,60.69c0,9.5,5.56,18.31,7.49,20.41s11.17-5.13,26.19-3.39,41.48,9.61,56.22,16.85l2.01-2.75c-6.78-5.59-30.37-26-44.21-34.15-13.84-8.15-23.91-10.71-31.69-10.71s-16,4.77-16,13.74Z"/>
  </g>
  <g>
    <path class="cls-1" d="m574.69,472.38c16.72-50.31,17.89-106.11.11-159.79-5.24.92-10.98,1.41-14.65.75-4.53-.81-8.98-2.73-12.58-5.48-4.8-3.67-8.1-8.82-8.1-14.87,0-9.66,1.45-20.09,9.46-35.6,1.14-2.16,2.38-4.42,3.76-6.78,6.38-10.87,17.45-21.76,28.45-31.02-34.36-43.01-82.32-72.45-134.95-84.39-37.93-8.65-78.32-8.21-117.81,2.79-7.44,2.07-14.83,4.51-22.18,7.33-7.46,2.86-14.7,6.07-21.69,9.57-48.51,24.31-85.78,63.36-108.37,109.47-22.31,45.52-30.29,97.92-20.72,149.8,2.68,14.43,6.71,28.82,12.17,43.03,16.24,42.22,43.03,77.24,76.23,103.25,63.49,49.74,150.37,66.4,231.35,36.98,1.43-.51,2.88-1.06,4.31-1.61,3.3-1.25,6.56-2.6,9.77-4,1.36-.59,2.73-1.21,4.09-1.83,86.61-39.58,139.59-125.16,140.84-216.13-12.63,35.31-32.71,68.97-59.49,98.52Zm-200.57-312.97c18.02-5.19,40.79,14.23,60.21,47.81,10.76,18.59,20.5,41.49,27.85,66.97,12.63,43.78,15.29,84.94,9,112.11-3.96,17.2-11.53,28.82-22.37,31.94-7.06,2.02-14.83.29-22.84-4.6-23.83-14.48-49.79-56.72-65.21-110.18-1.3-4.47-2.49-8.91-3.54-13.31-16.26-66-9.35-123.16,16.9-130.75Zm-151.73,81.11c1.54-14.32,6.62-24.73,15.42-29.37.02-.02.07-.02.09-.04,24.88-12.96,70.51,24.66,105.14,85.27,2.27,3.96,4.49,8.03,6.64,12.19,25.08,48.16,35.9,95.52,30.45,123.77-2.18,11.42-7.02,19.69-14.65,23.67-11.29,5.87-26.82,1.34-43.67-11-22.75-16.68-47.87-47.61-68.11-86.46-11.11-21.32-19.4-42.46-24.73-61.86-5.96-21.6-8.23-41.05-6.6-56.14l.02-.02Z"/>
    <path class="cls-1" d="m574.69,472.38c16.72-50.31,17.89-106.11.11-159.79-5.24.92-10.98,1.41-14.65.75-4.53-.81-8.98-2.73-12.58-5.48-4.8-3.67-8.1-8.82-8.1-14.87,0-9.66,1.45-20.09,9.46-35.6,1.14-2.16,2.38-4.42,3.76-6.78,6.38-10.87,17.45-21.76,28.45-31.02-34.36-43.01-82.32-72.45-134.95-84.39-37.93-8.65-78.32-8.21-117.81,2.79-7.44,2.07-14.83,4.51-22.18,7.33-7.46,2.86-14.7,6.07-21.69,9.57-18.37,16.52-34.03,35.53-46.71,56.25.02-.02.07-.02.09-.04,24.88-12.96,70.51,24.66,105.14,85.27,2.27,3.96,4.49,8.03,6.64,12.19,25.08,48.16,35.9,95.52,30.45,123.77-2.18,11.42-7.02,19.69-14.65,23.67-11.29,5.87-26.82,1.34-43.67-11-22.75-16.68-47.87-47.61-68.11-86.46-11.11-21.32-19.4-42.46-24.73-61.86-5.96-21.6-8.23-41.05-6.6-56.14-6.58,14.78-11.77,30.18-15.42,45.98-11.15,47.83-8.56,99.37,10.41,148.68.48,1.23.97,2.46,1.47,3.7,25.92,64.48,75.42,112.64,134.7,138.34,37.77,16.37,79.51,23.63,121.64,20.2,1.43-.51,2.88-1.06,4.31-1.61,3.3-1.25,6.56-2.6,9.77-4,1.36-.59,2.73-1.21,4.09-1.83,86.61-39.58,139.59-125.16,140.84-216.13-12.63,35.31-32.71,68.97-59.49,98.52Zm-213.93-168.92c-1.3-4.47-2.49-8.91-3.54-13.31-16.26-66-9.35-123.16,16.9-130.75,18.02-5.19,40.79,14.23,60.21,47.81,10.76,18.59,20.5,41.49,27.85,66.97,12.63,43.78,15.29,84.94,9,112.11-3.96,17.2-11.53,28.82-22.37,31.94-7.06,2.02-14.83.29-22.84-4.6-23.83-14.48-49.79-56.72-65.21-110.18Z"/>
    <path class="cls-1" d="m574.8,312.59c-5.24.92-10.98,1.41-14.65.75-4.53-.81-8.98-2.73-12.58-5.48-4.8-3.67-8.1-8.82-8.1-14.87,0-9.66,1.45-20.09,9.46-35.6-25.59-41.01-61.78-72.86-103.49-93.32-36.01-17.71-76.14-26.88-117.06-26.07-7.44,2.07-14.83,4.51-22.18,7.33-7.46,2.86-14.7,6.07-21.69,9.57-48.51,24.31-85.78,63.36-108.37,109.47-22.31,45.52-30.29,97.92-20.72,149.8,2.68,14.43,6.71,28.82,12.17,43.03,16.24,42.22,43.03,77.24,76.23,103.25,63.49,49.74,150.37,66.4,231.35,36.98,1.43-.51,2.88-1.06,4.31-1.61,3.3-1.25,6.56-2.6,9.77-4,1.36-.59,2.73-1.21,4.09-1.83,38.24-30.91,66.2-72.01,81.36-117.61,16.72-50.31,17.89-106.11.11-159.79Zm-200.68-153.19c18.02-5.19,40.79,14.23,60.21,47.81,10.76,18.59,20.5,41.49,27.85,66.97,12.63,43.78,15.29,84.94,9,112.11-3.96,17.2-11.53,28.82-22.37,31.94-7.06,2.02-14.83.29-22.84-4.6-23.83-14.48-49.79-56.72-65.21-110.18-1.3-4.47-2.49-8.91-3.54-13.31-16.26-66-9.35-123.16,16.9-130.75Zm-151.73,81.11c1.54-14.32,6.62-24.73,15.42-29.37.02-.02.07-.02.09-.04,24.88-12.96,70.51,24.66,105.14,85.27,2.27,3.96,4.49,8.03,6.64,12.19,25.08,48.16,35.9,95.52,30.45,123.77-2.18,11.42-7.02,19.69-14.65,23.67-11.29,5.87-26.82,1.34-43.67-11-22.75-16.68-47.87-47.61-68.11-86.46-11.11-21.32-19.4-42.46-24.73-61.86-5.96-21.6-8.23-41.05-6.6-56.14l.02-.02Z"/>
    <path class="cls-1" d="m306.21,145.32c13.73,96.89,138.1,387.5,183.04,446.49"/>
    <path class="cls-1" d="m445.44,164.07c-1.69,14.83-5.43,29.35-11.11,43.14-19.43-33.57-42.2-53-60.21-47.81-26.25,7.59-33.15,64.75-16.9,130.75-2.2,1.08-4.4,2.11-6.62,3.1-2.51,1.1-5.04,2.16-7.57,3.12-34.63-60.61-80.26-98.23-105.14-85.27-.02.02-.07.02-.09.04-8.8,4.64-13.88,15.05-15.42,29.37l-.02.02c-1.63,15.09.64,34.54,6.6,56.14-7.57-2.79-14.94-6.2-22.02-10.16-11-6.07-21.34-13.49-30.8-22.15,22.59-46.11,59.86-85.16,108.37-109.47,7-3.5,14.23-6.71,21.69-9.57,7.35-2.82,14.74-5.26,22.18-7.33,39.49-11,79.88-11.44,117.81-2.79.62,9.68.37,19.34-.75,28.86Z"/>
    <path class="cls-1" d="m581.14,219.6c-11,9.26-22.07,20.15-28.45,31.02-1.39,2.35-2.62,4.62-3.76,6.78-8.01,15.51-9.46,25.94-9.46,35.6,0,6.05,3.3,11.2,8.1,14.87-19.87,29.44-45.52,56.19-76.38,78.43,6.29-27.17,3.63-68.33-9-112.11-7.35-25.48-17.09-48.38-27.85-66.97-19.43-33.57-42.2-53-60.21-47.81-26.25,7.59-33.15,64.75-16.9,130.75,1.06,4.4,2.24,8.84,3.54,13.31,15.42,53.46,41.38,95.7,65.21,110.18-7.41,3.72-14.89,7.11-22.44,10.19-7.75,3.17-15.55,6.01-23.41,8.51,5.46-28.25-5.37-75.61-30.45-123.77-2.15-4.16-4.38-8.23-6.64-12.19-34.63-60.61-80.26-98.23-105.14-85.27-.02.02-.07.02-.09.04-8.8,4.64-13.88,15.05-15.42,29.37l-.02.02c-1.63,15.09.64,34.54,6.6,56.14,5.32,19.4,13.62,40.55,24.73,61.86,20.24,38.85,45.36,69.78,68.11,86.46-35.29,4.16-70.22,2-102.98-6.12-22.35-5.5-43.69-13.79-63.4-24.73-9.57-51.88-1.58-104.28,20.72-149.8,22.59-46.11,59.86-85.16,108.37-109.47,7-3.5,14.23-6.71,21.69-9.57,7.35-2.82,14.74-5.26,22.18-7.33,39.49-11,79.88-11.44,117.81-2.79,52.62,11.95,100.58,41.38,134.95,84.39Z"/>
    <path class="cls-1" d="m574.8,312.59c-5.24.92-10.98,1.41-14.65.75-4.53-.81-8.98-2.73-12.58-5.48-4.8-3.67-8.1-8.82-8.1-14.87,0-9.66,1.45-20.09,9.46-35.6,1.14-2.16,2.38-4.42,3.76-6.78,6.38-10.87,17.45-21.76,28.45-31.02-34.36-43.01-82.32-72.45-134.95-84.39-37.93-8.65-78.32-8.21-117.81,2.79-7.44,2.07-14.83,4.51-22.18,7.33-7.46,2.86-14.7,6.07-21.69,9.57-48.51,24.31-85.78,63.36-108.37,109.47-22.31,45.52-30.29,97.92-20.72,149.8,2.68,14.43,6.71,28.82,12.17,43.03,16.24,42.22,43.03,77.24,76.23,103.25,34.1,12.69,71.48,18.46,109.71,16.79,36.9-1.58,74.58-10.08,110.9-25.94,11.07-4.82,22.02-10.34,32.78-16.54,29.9-17.27,55.88-38.48,77.48-62.37,16.72-50.31,17.89-106.11.11-159.79Zm-103.62,73.7c-3.96,17.2-11.53,28.82-22.37,31.94-7.06,2.02-14.83.29-22.84-4.6-23.83-14.48-49.79-56.72-65.21-110.18-1.3-4.47-2.49-8.91-3.54-13.31-16.26-66-9.35-123.16,16.9-130.75,18.02-5.19,40.79,14.23,60.21,47.81,10.76,18.59,20.5,41.49,27.85,66.97,12.63,43.78,15.29,84.94,9,112.11Zm-149.38,58.72c-22.75-16.68-47.87-47.61-68.11-86.46-11.11-21.32-19.4-42.46-24.73-61.86-5.96-21.6-8.23-41.05-6.6-56.14l.02-.02c1.54-14.32,6.62-24.73,15.42-29.37.02-.02.07-.02.09-.04,24.88-12.96,70.51,24.66,105.14,85.27,2.27,3.96,4.49,8.03,6.64,12.19,25.08,48.16,35.9,95.52,30.45,123.77-2.18,11.42-7.02,19.69-14.65,23.67-11.29,5.87-26.82,1.34-43.67-11Z"/>
    <path class="cls-1" d="m462.18,274.18c-7.35-25.48-17.09-48.38-27.85-66.97-19.43-33.57-42.2-53-60.21-47.81-26.25,7.59-33.15,64.75-16.9,130.75,1.06,4.4,2.24,8.84,3.54,13.31,15.42,53.46,41.38,95.7,65.21,110.18,8.01,4.88,15.77,6.62,22.84,4.6,10.85-3.12,18.41-14.74,22.37-31.94,6.29-27.17,3.63-68.33-9-112.11Z"/>
    <path class="cls-1" d="m349.68,308.57c-2.15-4.16-4.38-8.23-6.64-12.19-34.63-60.61-80.26-98.23-105.14-85.27-.02.02-.07.02-.09.04-8.8,4.64-13.88,15.05-15.42,29.37l-.02.02c-1.63,15.09.64,34.54,6.6,56.14,5.32,19.4,13.62,40.55,24.73,61.86,20.24,38.85,45.36,69.78,68.11,86.46,16.85,12.34,32.38,16.87,43.67,11,7.63-3.98,12.47-12.25,14.65-23.67,5.46-28.25-5.37-75.61-30.45-123.77Z"/>
    <path class="cls-1" d="m591.06,508.25c-18.16,31.89-58.59,97.23-67.16,140.52-8.58,43.29-9.8,65.75-9.8,65.75l-128.23-24.5s24.46,43.88,32.82,56.77c8.36,12.88,16.04,24.06,16.04,33.71,0,14.6-22.9,32.56-42.22,32.56h-66.69l12.95-207.26,101.3,35.7,25.37,8.94-20.3-38.46s-5.07,14.37-5.07,29.52"/>
    <path class="cls-1" d="m444.17,701.15c4.51,33.14,23.59,104.63,26.01,111.9h-206.58s.66-5.61,2.19-14.58c1.53-8.97,9.63-67.6,11.16-77.01,1.53-9.41,9.84-16.63,22.31-12.69s32.41,10.46,32.41,10.46"/>
    <path class="cls-1" d="m187.9,498.11c-6.79,2.19-16.55,6.35-24.11-8.23-7.57-14.58-8.54-49.28-13.08-63.94-4.54-14.66-10.99-21.99-19.35-21.99s-17.74,4.54-26.09,15.39-12.75,23.89-12.75,33.57c0,25.36,30.63,29.02,30.63,53.06,0,27.12-39.57,35.03-39.57,77.1,0,25.65,17.3,41.48,32.25,41.48s33.14-11.06,40.6-24.62c12.9-23.45,26.09-23.89,26.09-40.75,0-7.04-6.6-28.73-26.82-28.73s-36.2,21.11-41.33,31.07"/>
    <path class="cls-1" d="m123.02,623.76c1.66,12.09,12.18,34.3,27.81,34.3s20.6-9.2,24.98-15.49c4.38-6.28,5.99-20.01,10.96-27.76,4.97-7.74,13.55-18.12,13.55-25.27,0-10.08-1.28-24.04-18.58-24.04"/>
    <path class="cls-1" d="m160.89,656.45c4.43,8.07,10.09,13.33,18.18,13.33s17.53-6.2,22.24-15.77c4.72-9.57,3.33-14.86,8.76-23.05,4.5-6.78,9.02-11.33,9.02-17.24,0-8.79-.91-14.64-6.19-20.33-2.52-2.72-7.46-3.52-12.6-2.54"/>
    <path class="cls-1" d="m218.83,607.22c5.85-6.49,8.02-19.89,7.85-29.7-.17-9.81-2.21-33.95-2.21-33.95"/>
    <path class="cls-1" d="m814.6,133.84s-12.58,22.86-22.09,39.05c-9.24,15.77-25.43,51.39-38.98,92.18-12.96,6.01-26.42,10.36-42.48,10.36-11.9,0-22.77-3.39-28.97-7.59-10.32,4.2-19.62,12.63-27.15,20.28h-35.29c2.31,6.34,4.33,12.69,6.07,19.1-2.46.73-4.88,1.19-7.19,1.36-11.42.86-20.46,5.81-20.46,20.81s12.78,25.74,19.43,30.51c4.2,3.01,10.49,1.41,16.39-1.87.29,5.28.4,10.56.31,15.82-12.63,35.31-32.71,68.97-59.49,98.52,16.72-50.31,17.89-106.11.11-159.79-5.24.92-10.98,1.41-14.65.75-4.53-.81-8.98-2.73-12.58-5.48-4.8-3.67-8.1-8.82-8.1-14.87,0-9.66,1.45-20.09,9.46-35.6,1.14-2.16,2.38-4.42,3.76-6.78,6.38-10.87,17.45-21.76,28.45-31.02,8.54-7.17,17.03-13.38,23.28-17.8,14.23-10.12,51.37-30.14,68.51-38.04,17.12-7.9,64.06-22.46,84.41-26.8s46.38-3.45,57.27-3.12Z"/>
    <path class="cls-1" d="m581.05,311.23c-1.85.48-4,.97-6.25,1.36"/>
    <path class="cls-1" d="m608.76,297.9c13.5-17.07,37.33-42.75,51.36-53.61,14.03-10.85,43.15-28.99,59.43-37.59-10.72,15.62-23.16,39.05-29.78,62.74"/>
    <path class="cls-1" d="m751.92,363.22c26.11-23.61,32.58-49.57,32.58-74.16"/>
    <path class="cls-1" d="m772.85,337.44c7.11,4.65,16.78,12.56,16.78,21.51s-8.21,13.63-13.19,23.01c-4.98,9.38-11.14,24.77-13.93,30.34s-8.36,10.85-17.3,11.87-14.37.59-20.52,0-11.87-6.89-12.31-16.71c-.44-9.82-1.03-21.99-3.66-28.14s-8.94-21.11-11.29-25.51"/>
    <path class="cls-1" d="m665.62,343.12c4.1,6.74,7.33,14.37,7.33,24.04s-3.66,30.34-3.66,40.31,5.72,18.47,16.27,18.47,16.64-3.74,27.68-13.86"/>
    <path class="cls-1" d="m655.15,410.56c8.1.7,11.75-1.28,14.15-3.08"/>
    <path class="cls-1" d="m643.42,351.2c-.18-3.1-.33-6.6-.33-11.02,0-11.24,5.39-15.22,9.13-19.69,3.76-4.44,11.73-17.8,15.36-23.54"/>
    <path class="cls-1" d="m1041.47,772.22c-.04.09-.07.15-.11.22-.26.53-.55,1.03-.81,1.54,0,.02,0,.04-.02.07-12.06,22.31-39.75,39.01-95.79,39.01h-295.15l-17.31-60.96h55.92c28.34,0,44.4-11.99,35.51-47.5-8.87-35.51-68.55-294.03-68.55-294.03-8.07-.7-18.85-9.59-18.85-18.85s7.74-17.45,7.74-26.36c0-5.39-.35-9.35-.62-14.15-2.71,2.46-6.05,4.93-9.55,6.84-5.9,3.28-12.19,4.88-16.39,1.87-6.65-4.77-19.43-15.51-19.43-30.51s9.04-19.95,20.46-20.81c2.31-.18,4.73-.64,7.19-1.36,9.66-2.79,19.84-9.35,26.22-16.02.97-1.01,1.96-2.02,2.97-3.08h.02c7.52-7.66,16.83-16.08,27.15-20.28,6.2,4.2,17.07,7.59,28.97,7.59,16.06,0,29.52-4.36,42.48-10.36,5.26-2.44,10.43-5.15,15.64-7.92,8.8,8.62,15.33,20.86,15.33,31.9h197.76s59.16,401.94,64.11,428.87c3.3,18.02,3.39,37.6-4.91,54.3Z"/>
    <path class="cls-1" d="m1041.36,772.44c-.26.53-.53,1.03-.81,1.54"/>
    <polyline class="cls-1" points="632.27 752.09 699.05 680.45 717.89 680.45"/>
    <path class="cls-1" d="m786.97,185.02h246.58l66.88,467.15s-40.92,85.54-58.96,120.05"/>
    <line class="cls-1" x1="982.26" y1="289.05" x2="1033.55" y2="185.03"/>
    <path class="cls-1" d="m409.59,731.72c7.05,1.18,12.29,1.01,12.29-5.59s-5.25-11.51-8.97-15.75c-3.73-4.23-15.27-18.12-15.27-18.12"/>
  </g>
</svg>