<?xml version="1.0" standalone="no"?>
<!DOCTYPE svg PUBLIC "-//W3C//DTD SVG 20010904//EN"
 "http://www.w3.org/TR/2001/REC-SVG-20010904/DTD/svg10.dtd">
<svg version="1.0" xmlns="http://www.w3.org/2000/svg"
 width="500.000000pt" height="500.000000pt" viewBox="0 0 500.000000 500.000000"
 preserveAspectRatio="xMidYMid meet">
<metadata>
Created by potrace 1.14, written by Peter Selinger 2001-2017
</metadata>
<g transform="translate(0.000000,500.000000) scale(0.100000,-0.100000)"
fill="#000000" stroke="none">
<path d="M1732 4098 l-18 -63 268 -3 c172 -1 268 -6 268 -12 0 -19 -780 -2793
-806 -2870 -60 -170 -143 -289 -241 -342 -66 -37 -164 -53 -237 -39 -88 16
-94 23 -48 53 97 65 105 209 17 287 -84 74 -235 47 -295 -52 -68 -112 -3 -283
137 -359 115 -62 292 -80 433 -44 261 66 458 288 605 681 21 55 204 684 408
1398 l370 1297 232 0 231 0 17 53 c9 30 17 59 17 65 0 9 -168 12 -670 12
l-669 0 -19 -62z"/>
<path d="M3436 3753 c-20 -70 -129 -434 -137 -460 l-11 -33 -153 0 -153 0 -11
-31 c-21 -60 -23 -59 128 -59 77 0 142 -3 144 -8 3 -4 -78 -300 -179 -657
-101 -358 -188 -681 -192 -718 -31 -249 105 -396 356 -385 72 2 98 8 147 32
80 40 213 173 294 295 58 88 204 368 229 440 11 30 10 31 -31 41 -23 6 -50 14
-60 16 -14 4 -22 -6 -39 -48 -47 -113 -152 -317 -204 -394 -133 -199 -314
-305 -389 -229 -21 21 -25 33 -25 89 0 83 26 181 243 926 l174 595 240 3 241
2 6 28 c4 15 9 35 12 45 5 16 -11 17 -230 17 -130 0 -236 2 -236 4 0 2 34 113
75 247 41 134 75 247 75 252 0 4 -69 7 -154 7 -139 0 -155 -2 -160 -17z"/>
</g>
</svg>
